<svg xmlns="http://www.w3.org/2000/svg" viewBox="0 0 512 493.16"><defs><style>.cls-1{fill:#fff;}</style></defs><title>auction-active</title><g id="Слой_2" data-name="Слой 2"><g id="Capa_1" data-name="Capa 1"><path class="cls-1" d="M506.44,404.12,401.15,298.82a18.94,18.94,0,0,0-23.2-2.83l-59.15-59.15a7.76,7.76,0,1,0-11,11l58.75,58.75-21.64,21.64L237.16,220.46l21.64-21.64,14.42,14.42a7.76,7.76,0,1,0,11-11l-14.42-14.42,37.52-37.52,3,3a19.53,19.53,0,0,0,27.62,0l13.83-13.83a19.53,19.53,0,0,0,0-27.61L245.6,5.72a19.52,19.52,0,0,0-27.61,0L204.15,19.55a19.53,19.53,0,0,0,0,27.61l3,3L88.48,168.77l-3-3a19.55,19.55,0,0,0-27.61,0L44.07,179.64a19.53,19.53,0,0,0,0,27.61L150.18,313.37a19.53,19.53,0,0,0,27.62,0l13.83-13.83h0a19.55,19.55,0,0,0,0-27.61l-3-3,37.52-37.52L334.34,339.6a18.94,18.94,0,0,0,2.83,23.2L442.46,468.1a19,19,0,0,0,26.84,0L506.44,431a19,19,0,0,0,0-26.84ZM215.13,30.53,229,16.7a4,4,0,0,1,5.65,0L340.74,122.81a4,4,0,0,1,0,5.66L326.91,142.3a4.1,4.1,0,0,1-5.66,0L215.13,36.19a4,4,0,0,1,0-5.66Zm-34.48,258-13.83,13.83a4.1,4.1,0,0,1-5.66,0L55,196.27a4,4,0,0,1,0-5.66l13.83-13.83a4,4,0,0,1,5.66,0L180.65,282.9A4,4,0,0,1,180.65,288.56Zm40-73.59h0l-43,43L99.46,179.75,218.1,61.11l78.22,78.22-43,43h0ZM495.46,420l-37.14,37.14a3.45,3.45,0,0,1-4.88,0L348.15,351.82a3.45,3.45,0,0,1,0-4.88l2.26-2.26,34.88-34.88a3.45,3.45,0,0,1,4.88,0l105.3,105.29a3.45,3.45,0,0,1,0,4.88Z"/><path class="cls-1" d="M294.83,424.35H282.94V383.44a16.57,16.57,0,0,0-16.55-16.55H132.57a7.76,7.76,0,1,0,0,15.53H266.39a1,1,0,0,1,1,1v40.91H61.14V383.44a1,1,0,0,1,1-1H83.79a7.76,7.76,0,1,0,0-15.53H62.16a16.57,16.57,0,0,0-16.55,16.55v40.91H33.72A33.76,33.76,0,0,0,0,458.07v22.1a13,13,0,0,0,13,13H315.56a13,13,0,0,0,13-13v-22.1A33.76,33.76,0,0,0,294.83,424.35ZM313,477.63H15.53V458.07a18.22,18.22,0,0,1,18.19-18.2H294.83a18.22,18.22,0,0,1,18.2,18.2Z"/></g></g></svg>