<?xml version="1.0" encoding="UTF-8"?>
<!DOCTYPE svg PUBLIC "-//W3C//DTD SVG 1.1//EN" "http://www.w3.org/Graphics/SVG/1.1/DTD/svg11.dtd">
<!-- Creator: CorelDRAW X8 -->
<svg xmlns="http://www.w3.org/2000/svg" xml:space="preserve" width="85.0403mm" height="81.9109mm" version="1.1" style="shape-rendering:geometricPrecision; text-rendering:geometricPrecision; image-rendering:optimizeQuality; fill-rule:evenodd; clip-rule:evenodd"
viewBox="0 0 4346 4186"
 xmlns:xlink="http://www.w3.org/1999/xlink">
 <defs>
  <style type="text/css">
   <![CDATA[
    .fil0 {fill:url(#id0)}
   ]]>
  </style>
  <linearGradient id="id0" gradientUnits="userSpaceOnUse" x1="750.316" y1="3677.21" x2="3595.92" y2="509.087">
   <stop offset="0" style="stop-opacity:1; stop-color:#0072FF"/>
   <stop offset="1" style="stop-opacity:1; stop-color:#F08322"/>
  </linearGradient>
 </defs>
 <g id="Слой_x0020_1">
  <metadata id="CorelCorpID_0Corel-Layer"/>
  <path class="fil0" d="M4299 3430l-894 -893c-30,-31 -71,-48 -114,-48 -29,0 -58,9 -83,24l-502 -503c-26,-25 -67,-25 -93,0 -26,26 -26,68 0,94l499 498 -184 184 -915 -915 184 -183 122 122c26,26 68,26 93,0 26,-26 26,-67 0,-93l-122 -123 319 -318 25 25c31,31 73,49 117,49 44,0 86,-18 117,-49l118 -117c31,-32 48,-73 48,-117 0,-45 -17,-86 -48,-118l-901 -900c-31,-32 -73,-49 -117,-49 -45,0 -86,17 -118,49l-117 117c-31,31 -49,73 -49,117 0,44 18,86 49,117l25 26 -1007 1007 -25 -26c-65,-64 -170,-64 -235,0l-117 118c-31,31 -48,73 -48,117 0,44 17,86 48,117l901 901c31,31 73,49 117,49 44,0 86,-18 117,-49l118 -117c0,0 0,0 0,0 64,-65 64,-170 0,-235l-26 -25 319 -318 918 918c-15,25 -23,53 -23,83 0,43 17,83 47,114l894 894c30,30 71,47 114,47 43,0 83,-17 114,-47l315 -316c30,-30 47,-71 47,-114 0,-43 -17,-83 -47,-114zm-1796 172l-101 0 0 -347c0,-78 -63,-141 -141,-141l-1136 0c-36,0 -66,30 -66,66 0,37 30,66 66,66l1136 0c5,0 9,4 9,9l0 347 -1751 0 0 -347c0,-5 4,-9 9,-9l183 0c37,0 66,-29 66,-66 0,-36 -29,-66 -66,-66l-183 0c-78,0 -141,63 -141,141l0 347 -101 0c-158,0 -286,129 -286,286l0 188c0,61 49,110 110,110l2569 0c61,0 110,-49 110,-110l0 -188c0,-157 -128,-286 -286,-286zm154 453l0 0 -2525 0 0 -167c0,-85 69,-154 154,-154l2217 0c85,0 154,69 154,154l0 167zm-831 -3796l118 -117c6,-7 15,-10 24,-10 9,0 17,3 24,10l900 901c7,6 10,14 10,24 0,9 -3,17 -10,24l-117 117c-13,13 -35,13 -48,0l-901 -901c-6,-6 -10,-15 -10,-24 0,-9 4,-17 10,-24zm-293 2190l-117 118c-13,13 -35,13 -48,0l-901 -901c-6,-6 -10,-15 -10,-24 0,-9 4,-17 10,-24l118 -117c6,-7 15,-10 24,-10 8,0 17,3 24,10l900 900c14,14 14,35 0,48zm340 -624c0,0 0,0 0,0l-365 365 -664 -664 1007 -1007 664 664 -365 365c0,0 0,0 0,0l-277 277zm2333 1740l-315 315c-8,8 -17,9 -21,9 -5,0 -13,-1 -21,-9l-894 -893c-7,-8 -8,-17 -8,-21 0,-5 1,-13 8,-21l20 -19 296 -296c7,-8 16,-9 20,-9 5,0 14,1 21,9l894 894c7,7 8,16 8,20 0,5 -1,14 -8,21z"/>
 </g>
</svg>
