<svg xmlns="http://www.w3.org/2000/svg" viewBox="0 0 594.34 582.08"><defs><style>.cls-1{fill:#fff;}</style></defs><title>car-buy</title><g id="Слой_2" data-name="Слой 2"><g id="Слой_1-2" data-name="Слой 1"><g id="Слой_1-3" data-name="Слой_1"><path class="cls-1" d="M0,419.48V400.34l59.33-66.75C71.4,316,91.79,305.76,114,305.76H266.12a158.05,158.05,0,0,1,100.14,36.18l82,59.57,120.13,43.33a28,28,0,0,1,19.46,25l5.56,44.53a20.48,20.48,0,0,1-5.56,17.6,19.78,19.78,0,0,1-15.76,7.42H520.28a51.94,51.94,0,0,1-102.21,0H154a51.94,51.94,0,0,1-102.21,0H28.74A28.87,28.87,0,0,1,0,510.68Zm433-97.74c-89,0-161.33-72.31-161.33-161.33S344,0,433,0,594.34,72.33,594.34,161.33,522,321.73,433,321.73Zm-296.72-49-42.64-43.6,13-13,29.67,29.67,30.6-29.67,13,13Zm9.28-51.94H127V202.29h18.53Zm0-37.08H127V165.21h18.53Zm0-37.08H127V128.1h18.53Zm0-37.08H127v-8.35a46.37,46.37,0,0,1,.9-11.14l18.55,1.86c0,2.79-.93,6.49-.93,9.28Zm4.65-33.39L132.59,69.7c2.76-6.49,5.56-13,9.28-18.55l15.76,10.21A107.23,107.23,0,0,0,150.22,76.19Zm17.6-26.88-13-13a108,108,0,0,1,15.76-13L180.82,39.1C176.16,41.89,171.54,44.66,167.82,49.31Zm27.83-17.62-6.49-17.62a131,131,0,0,1,20.39-4.63L211.41,28C205.83,28,201.21,29.83,195.65,31.69Zm126.08-4.63H303.2V8.51h18.53Zm-37.08,0H266.12V8.51h18.53Zm-37.08,0H229V8.51h18.55Zm228.11,165.8A42.54,42.54,0,0,0,433,150.22,20.4,20.4,0,1,1,453.4,129.8h21.35A41.77,41.77,0,0,0,443.21,89V73.26H421.87V89c-17.6,4.65-31.5,21.35-31.5,40.8A42.54,42.54,0,0,0,433,172.47a20.39,20.39,0,1,1-20.39,20.39H391.27a41.8,41.8,0,0,0,31.53,40.8v15.76h21.35V233.66C461.74,228.11,475.67,212.34,475.67,192.86ZM433,18.55a142.79,142.79,0,1,0,142.8,142.78A142.84,142.84,0,0,0,433,18.55ZM331,477.29h18.55V457.84H331Zm-61.19,0h18.55V457.84H269.82Zm-62.12,0h18.55V457.84H207.69ZM154,520.89h264a51.94,51.94,0,0,1,102.21,0h51.81c.93,0,1.86-.93,2.79-.93a4.08,4.08,0,0,0,.93-2.79l-5.58-44.5c-.93-4.65-3.7-8.35-7.42-9.28L442.28,419.82H19.46v90.86a10.31,10.31,0,0,0,10.21,10.21H51.81a51.94,51.94,0,0,1,102.21,0Zm-51.09-25a33.24,33.24,0,0,0-33.39,33.39c0,18.53,14.83,34.29,33.39,34.29a33.24,33.24,0,0,0,33.36-33.39C136.29,511.61,121.46,495.85,102.93,495.85Zm366.23,0a33.37,33.37,0,1,0,33.39,33.39A33.24,33.24,0,0,0,469.16,495.85ZM0,400.34Zm220.66,0v-76h45.46a136.82,136.82,0,0,1,89,32.46l60.26,43.57Zm-18.53-76v76H26.21l48-55.64a48.4,48.4,0,0,1,38.94-20.39Z"/></g></g></g></svg>