<?xml version="1.0" encoding="UTF-8"?>
<!DOCTYPE svg PUBLIC "-//W3C//DTD SVG 1.1//EN" "http://www.w3.org/Graphics/SVG/1.1/DTD/svg11.dtd">
<!-- Creator: CorelDRAW X8 -->
<svg xmlns="http://www.w3.org/2000/svg" xml:space="preserve" width="77.4545mm" height="65.7434mm" version="1.1" style="shape-rendering:geometricPrecision; text-rendering:geometricPrecision; image-rendering:optimizeQuality; fill-rule:evenodd; clip-rule:evenodd"
viewBox="0 0 17623 14959"
 xmlns:xlink="http://www.w3.org/1999/xlink">
 <defs>
  <style type="text/css">
   <![CDATA[
    .fil0 {fill:url(#id0);fill-rule:nonzero}
   ]]>
  </style>
  <linearGradient id="id0" gradientUnits="userSpaceOnUse" x1="3834.93" y1="13766.8" x2="13788.2" y2="1191.77">
   <stop offset="0" style="stop-opacity:1; stop-color:#0072FF"/>
   <stop offset="1" style="stop-opacity:1; stop-color:#F08322"/>
  </linearGradient>
 </defs>
 <g id="Слой_x0020_1">
  <metadata id="CorelCorpID_0Corel-Layer"/>
  <path class="fil0" d="M14959 13320l-455 0 0 455 455 0 0 -455zm-5920 -10064l-1046 0 0 453 1046 0 0 -453zm8419 -1176l-2041 -583 -68 -42c-18,-12 -37,-23 -54,-33 -22,-13 -40,-22 -56,-32 -22,-11 -50,-27 -71,-40 -1616,-965 -3441,-1410 -5246,-1344 -1805,67 -3591,644 -5133,1724l-503 352 -2056 294c-383,56 -743,196 -1058,404 -315,208 -584,484 -786,814l-5 7 -5 6c-7,7 -13,14 -19,22 -7,9 -12,18 -18,26 -64,115 -120,235 -166,359 -45,122 -82,248 -108,378l-1 1c-3,15 -8,36 -14,66 -5,25 -9,48 -12,68 -4,21 -8,42 -10,65 -4,22 -6,43 -9,65 -4,40 -8,81 -11,122 -2,43 -4,84 -4,123l0 0c0,8 -1,16 -2,24 0,2 0,4 0,5l0 1512c0,63 25,120 65,161l1 0c41,41 98,66 161,66l1562 0 8 60c32,217 98,426 197,620 97,193 227,370 384,523l122 119 -2274 0c-63,0 -120,26 -162,66 -40,42 -66,98 -66,161l0 0c1,572 189,1110 513,1547 325,435 785,771 1333,937l116 35 -91 82c-124,112 -222,248 -288,399 -67,150 -103,314 -103,482l1 0 0 64 -1 0c-1,227 62,444 178,629 114,186 279,339 482,440l0 1 3452 1725 0 0c262,130 538,230 822,297 283,67 576,102 868,102l0 0 10114 0c62,0 119,-26 161,-68 40,-40 65,-96 65,-160l0 -4143c0,-63 -25,-120 -66,-162 -41,-40 -98,-66 -160,-66l-894 0 153 -123c306,-246 548,-554 713,-899 166,-345 255,-727 255,-1119l-1 0c0,-63 -25,-119 -66,-161 -41,-40 -98,-66 -160,-66l-2274 0 121 -119c157,-153 287,-330 384,-523 99,-194 165,-403 197,-620l8 -60 380 0c35,0 68,-8 98,-22 31,-15 57,-36 79,-63l0 0 1184 -1480 0 -1c16,-19 29,-42 37,-66 9,-23 12,-49 12,-75l0 -2664c0,-51 -16,-99 -45,-137 -29,-38 -70,-68 -119,-82l0 0zm-3699 -8l-3536 0 0 -1618 69 0c733,2 1461,92 2168,267 706,176 1392,436 2042,777l105 55 -829 519 -19 0 0 0zm-3991 -1528l0 1528 -4680 0 192 -127c660,-433 1370,-776 2112,-1024 742,-247 1517,-398 2304,-446l72 -5 0 74zm-9282 4052c4,-31 10,-59 15,-86 7,-28 14,-58 21,-87 9,-35 18,-69 28,-102 10,-35 21,-68 33,-101l0 0c8,-19 14,-36 21,-53l0 -3c11,-27 20,-49 27,-66 8,-18 18,-39 31,-65l18 -40 869 0 -547 732 -528 7 3 -74c1,-11 2,-21 3,-30 1,-10 3,-21 6,-32l0 0zm36 590l597 -8c35,-1 69,-9 99,-26 30,-14 57,-37 78,-65l0 0 889 -1184c25,-34 41,-75 45,-116 3,-41 -4,-83 -23,-122l0 0c-20,-38 -49,-70 -84,-92 -35,-21 -77,-33 -120,-33l-1025 0 118 -118c163,-161 349,-294 551,-395 201,-101 420,-169 645,-202l2097 -299 5379 0 0 3691 -3997 0 -9 -60c-2,-12 -4,-24 -7,-36 -1,-8 -3,-16 -6,-29 0,0 0,0 0,-1 -5,-28 -10,-58 -15,-81 -3,-15 -8,-32 -13,-52 -6,-20 -10,-37 -15,-53 -1,-4 -6,-19 -6,-21 -5,-18 -10,-35 -17,-55l0 -2c-8,-27 -21,-60 -34,-93l-6 -15 0 0c-3,-10 -6,-18 -10,-27 -4,-12 -9,-25 -15,-39l0 -1c-11,-22 -19,-42 -27,-58 -7,-14 -18,-34 -31,-58l0 0c-7,-16 -10,-22 -12,-27l0 0c-4,-7 -7,-15 -13,-25l0 -1c-13,-25 -29,-51 -45,-78 -15,-25 -33,-52 -50,-78 -7,-9 -14,-18 -22,-28l0 0 -4 -5 -4 -4c-12,-18 -25,-36 -40,-57 -14,-18 -28,-36 -42,-54l0 0c-14,-16 -23,-27 -33,-37l0 0 -17 -20c-26,-29 -51,-58 -74,-82 -13,-13 -28,-27 -42,-41 -6,-5 -12,-12 -19,-17 -25,-23 -50,-46 -75,-67l0 0c-20,-18 -38,-33 -57,-46l-17 -13c-24,-19 -48,-37 -71,-53l-2 -1c-13,-9 -24,-16 -33,-23 -11,-7 -22,-15 -34,-22l0 0c-13,-9 -28,-17 -44,-28l0 0c-19,-11 -33,-19 -46,-26 -12,-8 -24,-14 -35,-21 -13,-6 -25,-12 -36,-18l0 0c-18,-9 -34,-18 -47,-24 -11,-5 -28,-13 -48,-22l-6 -3c-25,-11 -49,-22 -68,-29l-1 0c-16,-7 -32,-13 -50,-20 -17,-6 -34,-13 -51,-18l0 0c-7,-2 -10,-4 -28,-9 -16,-6 -31,-11 -48,-16l0 0c-16,-5 -35,-10 -54,-15 -32,-8 -44,-11 -56,-14l0 0 -28 -6c-15,-4 -30,-7 -46,-11 -20,-4 -42,-7 -63,-10 -32,-5 -50,-8 -64,-9l-1 0c-8,-1 -17,-3 -26,-4 -11,-2 -21,-4 -37,-5 -33,-2 -65,-5 -94,-6 -29,-2 -62,-3 -98,-3 -35,0 -68,1 -98,3 -34,2 -66,4 -98,7l-1 0c-14,1 -25,3 -36,5 -8,1 -17,3 -26,4l-1 0c-22,3 -45,6 -65,9 -20,3 -40,6 -62,11l0 0c-17,3 -33,6 -49,11l-24 5 0 0 -5 1c-35,9 -71,18 -107,28l0 0c-14,5 -30,10 -47,16l-29 10c-35,12 -70,24 -101,37l-1 0c-24,10 -47,21 -71,31l0 1 -2 0 0 0 -19 9 0 0c-26,12 -52,24 -74,36l-2 1c-11,5 -23,12 -36,19 -13,7 -25,14 -35,20l0 0c-19,11 -36,20 -46,26 -13,9 -28,18 -44,28l-7 5c-19,12 -39,24 -59,39l-2 1c-14,11 -29,21 -43,31 -20,15 -34,26 -42,33l-11 8c-18,14 -35,27 -51,41l-1 1c-24,19 -43,38 -64,58l-24 23c-17,14 -33,29 -47,43l0 1c-13,14 -26,27 -38,40 -10,12 -23,27 -38,45l-18 19c-8,10 -17,19 -30,35 -16,19 -29,38 -41,53 -12,17 -26,35 -40,57l-14 18c-5,6 -10,13 -15,19 -17,27 -34,53 -49,78 -16,26 -32,53 -46,79l0 1c-5,8 -9,17 -13,26 -3,6 -6,12 -12,24l0 0c-12,23 -22,44 -30,59 -9,18 -18,38 -27,59 -6,12 -11,26 -17,42 -2,5 -4,10 -9,25l0 0 -8 20c-12,29 -23,57 -32,86l0 2c-6,18 -11,35 -15,52 -5,18 -4,13 -7,24l0 0 -15 54c-4,18 -10,36 -14,55 -4,16 -8,39 -12,62l-3 17 0 1c-2,10 -4,18 -6,26 -2,13 -5,27 -7,38l-8 59 -1331 0 0 -1030 68 -1 0 0zm11342 1544c31,217 97,426 196,620 98,192 227,370 384,523l122 119 -7509 0 122 -119c157,-153 287,-331 384,-523 99,-194 165,-403 197,-620l8 -60 6087 0 9 60 0 0zm-9633 -287c0,-427 173,-815 453,-1095 280,-280 668,-455 1095,-455 428,0 815,175 1096,455 280,280 453,668 453,1095 0,428 -173,815 -453,1096 -281,280 -668,453 -1096,453l0 0c-428,-1 -815,-174 -1095,-454 -280,-280 -453,-667 -453,-1095l0 0zm3633 5405l-2258 -1034 2531 0 -62 104c-76,128 -125,268 -145,413 -19,145 -10,293 29,436l39 143 -134 -62zm-69 2304l-3451 -1724 0 0c-126,-62 -229,-158 -299,-273 -71,-115 -111,-249 -110,-390l-1 0 0 -64 1 0c-1,-126 31,-247 89,-355 58,-108 144,-201 250,-269 106,-68 226,-107 348,-115 122,-9 246,13 360,66l0 0 3366 1541c15,7 31,12 47,16 16,4 32,6 48,6l2961 0c62,0 118,-26 160,-68 41,-40 66,-97 66,-160 0,-63 -25,-119 -66,-160 -42,-41 -98,-67 -160,-67l-2368 0c-183,0 -349,-73 -468,-193 -119,-120 -194,-286 -194,-468 0,-183 75,-348 194,-467 119,-120 285,-194 468,-194l2269 0c19,0 38,-3 56,-7 19,-5 36,-11 52,-20l76 -42c589,-323 1239,-490 1892,-497 652,-8 1306,143 1902,454l37 19 0 3783 -6038 0 0 0c-258,0 -514,-30 -764,-89 -250,-59 -492,-147 -723,-262l0 -1 0 0zm11374 -3269l0 3621 -3394 0 0 -3690 3394 0 0 69zm-22 -2358c-77,527 -340,985 -718,1312 -378,327 -870,522 -1401,523l0 0 -1425 0 -15 -8c-672,-372 -1415,-558 -2157,-559 -743,-1 -1486,184 -2158,553l-15 8 -2222 6 0 0 -4440 0 0 0c-533,-1 -1024,-196 -1402,-523 -378,-327 -641,-785 -718,-1312l-12 -79 16695 0 -12 79zm-3303 -533c-428,0 -816,-173 -1096,-453 -280,-281 -454,-668 -454,-1096 0,-427 174,-815 454,-1095 280,-280 668,-455 1096,-455 427,0 814,175 1095,455 280,280 453,668 453,1095l0 0c0,428 -174,815 -454,1095 -280,280 -667,453 -1094,454l0 0zm2226 -1775l-235 0 -9 -60c-1,-12 -4,-24 -7,-36 -1,-8 -3,-16 -5,-29l0 -1 -2 -11c-5,-24 -9,-48 -14,-70l1 0c-4,-15 -8,-32 -14,-52 -5,-18 -9,-35 -15,-52l-1 -3 -3 -15 -1 0c-6,-22 -12,-44 -17,-59l-1 -1c-9,-31 -22,-65 -35,-99l-14 -36c-4,-13 -9,-25 -16,-40l0 -1c-9,-21 -19,-41 -27,-58 -8,-17 -18,-37 -30,-58 -6,-12 -10,-20 -13,-28 -6,-10 -10,-20 -12,-24l-1 -1c-15,-28 -30,-53 -45,-78 -17,-27 -33,-53 -50,-79l0 1c-5,-7 -9,-13 -13,-17 -4,-6 -7,-10 -15,-20l0 0c-14,-21 -28,-40 -40,-57 -13,-16 -26,-35 -43,-54l0 0c-10,-13 -20,-24 -30,-35l-16 -17 0 0 -3 -4c-26,-30 -51,-58 -75,-83 -13,-14 -27,-27 -41,-41 -5,-4 -11,-9 -15,-13 -26,-24 -53,-49 -79,-71 -19,-17 -38,-33 -58,-47l-2 -2 0 0c-11,-9 -25,-19 -44,-32 -13,-10 -26,-20 -43,-32 -14,-9 -24,-16 -33,-23 -11,-7 -22,-15 -34,-22l0 0c-15,-9 -30,-18 -44,-28 -23,-12 -36,-21 -46,-26l0 0c-16,-10 -28,-16 -35,-21 -13,-6 -25,-12 -36,-19 -15,-7 -31,-15 -47,-23 -8,-4 -24,-11 -48,-22l0 0 -6 -3c-25,-11 -50,-22 -68,-29l-1 0c-16,-7 -33,-13 -50,-20 -22,-8 -37,-13 -51,-18l0 0 -27 -9 0 0c-15,-5 -29,-10 -49,-16l0 0c-38,-11 -73,-19 -109,-29l-2 0 0 0 -27 -6c-15,-4 -30,-7 -47,-11 -19,-4 -41,-7 -62,-10 -19,-3 -41,-7 -64,-9l-1 0c-8,-1 -17,-3 -26,-4 -11,-2 -21,-4 -37,-5 -34,-2 -66,-5 -95,-6 -30,-2 -62,-3 -98,-3 -35,0 -69,1 -99,3 -34,2 -66,4 -98,7l-1 0c-14,1 -24,3 -35,5 -9,1 -17,3 -27,4l-1 0c-22,3 -44,6 -65,9 -19,3 -40,6 -61,11l-1 0c-17,3 -33,6 -48,11l-25 5 0 0 -7 2c-35,9 -70,17 -105,27l0 0c-15,5 -31,10 -46,16l-29 10c-34,11 -69,24 -101,37l0 0c-23,9 -48,20 -73,32l-1 0 -20 9 0 0c-26,12 -52,24 -74,36l-2 1c-11,5 -23,12 -36,19 -13,7 -25,14 -35,20l0 0c-19,11 -35,20 -46,26 -13,9 -28,18 -44,28l-8 6c-20,12 -40,24 -58,38l-1 1c-13,9 -27,20 -43,31 -15,11 -29,22 -43,33l0 0 -7 5 -1 0c-18,14 -36,29 -54,44l-1 0c-20,18 -41,37 -62,57l-28 26c-16,14 -31,29 -44,42 -14,16 -27,29 -39,41 -12,15 -25,30 -37,45l-18 20c-11,12 -22,24 -29,32l0 0c-16,20 -31,40 -43,55 -14,19 -28,38 -40,57l-1 1c-3,3 -7,10 -13,17 -5,6 -10,13 -14,18 -18,27 -34,53 -49,79 -16,25 -32,51 -47,80 -4,6 -9,16 -13,27 -5,9 -9,18 -11,23l-1 0c-11,23 -22,43 -30,59 -9,18 -18,37 -27,59l0 0c-7,13 -12,29 -18,45 -5,14 -10,26 -15,40 -12,30 -23,59 -33,88l0 3c-6,16 -11,34 -15,50l0 0c-4,16 -4,16 -7,25l0 0 -2 7c-8,29 -16,59 -27,102l0 0c-4,19 -8,39 -11,61l-4 18c-2,11 -4,19 -6,27 -2,13 -5,26 -6,38l-8 59 -1627 0 0 -3691 3621 0c21,0 42,-3 62,-9 21,-6 40,-15 58,-26l1093 -683 51 32 95 59 1 0c8,6 17,10 27,15 10,4 20,8 30,10l0 0 1908 546 0 786 -1184 0 0 453 1184 0 0 1173c-356,445 -711,889 -1067,1335l-32 0 0 0zm-2226 -593c-227,0 -432,92 -579,240 -148,148 -240,353 -240,579 0,226 92,430 239,579 148,148 353,240 580,240 225,0 431,-92 578,-240 149,-149 241,-353 241,-579 0,-226 -92,-431 -241,-579 -148,-148 -353,-240 -578,-240zm0 1184c-102,0 -193,-40 -258,-107 -67,-66 -107,-157 -107,-258 0,-101 40,-192 107,-258 65,-66 156,-107 258,-107 100,0 191,41 258,107 66,66 107,157 107,258 0,101 -41,192 -107,258 -67,67 -158,107 -258,107zm-10065 -1184c-226,0 -431,92 -579,240 -147,148 -240,353 -240,579 0,226 93,430 240,579 148,148 353,240 579,240 226,0 431,-92 579,-240 148,-149 241,-353 241,-579 0,-226 -93,-431 -241,-579 -148,-148 -353,-240 -579,-240zm0 1184c-101,0 -192,-40 -257,-107l0 0c-67,-66 -108,-157 -108,-258 0,-100 41,-191 108,-258l0 0c65,-66 156,-107 257,-107 101,0 192,41 258,107 67,66 107,157 107,258 0,101 -40,192 -107,258 -66,67 -157,107 -258,107z"/>
 </g>
</svg>
