<?xml version="1.0" encoding="UTF-8"?>
<!DOCTYPE svg PUBLIC "-//W3C//DTD SVG 1.1//EN" "http://www.w3.org/Graphics/SVG/1.1/DTD/svg11.dtd">
<!-- Creator: CorelDRAW X8 -->
<svg xmlns="http://www.w3.org/2000/svg" xml:space="preserve" width="84.9065mm" height="83.1557mm" version="1.1" style="shape-rendering:geometricPrecision; text-rendering:geometricPrecision; image-rendering:optimizeQuality; fill-rule:evenodd; clip-rule:evenodd"
viewBox="0 0 3832 3753"
 xmlns:xlink="http://www.w3.org/1999/xlink">
 <defs>
  <style type="text/css">
   <![CDATA[
    .fil0 {fill:url(#id0)}
   ]]>
  </style>
  <linearGradient id="id0" gradientUnits="userSpaceOnUse" x1="638.32" y1="3275.17" x2="3193.38" y2="477.518">
   <stop offset="0" style="stop-opacity:1; stop-color:#0072FF"/>
   <stop offset="1" style="stop-opacity:1; stop-color:#F08322"/>
  </linearGradient>
 </defs>
 <g id="Слой_x0020_1">
  <metadata id="CorelCorpID_0Corel-Layer"/>
  <path class="fil0" d="M0 2704l0 -123 383 -430c77,-114 209,-180 352,-180l981 0c233,0 466,84 645,233l529 385 774 279c72,24 120,84 126,161l36 287c6,42 -6,84 -36,114 -24,30 -60,48 -102,48l-334 0c-28,156 -164,275 -329,275 -165,0 -302,-119 -330,-275l-1702 0c-28,156 -165,275 -329,275 -165,0 -302,-119 -330,-275l-149 0c-101,0 -185,-84 -185,-186l0 -588 0 0zm2792 -630c-574,0 -1041,-466 -1041,-1040 0,-574 467,-1034 1041,-1034 574,0 1040,466 1040,1040 0,574 -466,1034 -1040,1034zm-1913 -315l-275 -282 83 -83 192 191 197 -191 84 83 -281 282 0 0zm59 -335l-119 0 0 -120 119 0 0 120zm0 -239l-119 0 0 -120 119 0 0 120zm0 -239l-119 0 0 -120 119 0 0 120zm0 -240l-119 0 0 -53c0,-24 0,-48 6,-72l119 12c0,18 -6,42 -6,60l0 53zm30 -215l-113 -42c18,-41 36,-83 60,-119l101 66c-18,29 -36,65 -48,95zm114 -173l-84 -84c30,-30 66,-60 102,-84l66 102c-30,18 -60,36 -84,66l0 0zm179 -114l-41 -113c41,-12 83,-24 131,-30l12 119c-36,0 -66,12 -102,24zm813 -30l-119 0 0 -119 119 0 0 119zm-239 0l-119 0 0 -119 119 0 0 119zm-239 0l-120 0 0 -119 120 0 0 119zm1471 1069c0,-149 -120,-275 -275,-275 -72,0 -132,-59 -132,-131 0,-72 60,-132 132,-132 71,0 131,60 131,132l138 0c0,-126 -84,-233 -204,-263l0 -102 -137 0 0 102c-114,30 -203,137 -203,263 0,149 119,275 275,275 71,0 131,60 131,131 0,72 -60,132 -131,132 -72,0 -132,-60 -132,-132l-137 0c0,126 83,233 203,263l0 102 137 0 0 -102c114,-35 204,-137 204,-263zm-275 -1123c-509,0 -921,412 -921,920 0,508 412,921 921,921 508,0 920,-413 920,-921 0,-508 -412,-920 -920,-920zm-658 2957l120 0 0 -125 -120 0 0 125zm-395 0l120 0 0 -125 -120 0 0 125zm-400 0l120 0 0 -125 -120 0 0 125zm-346 281l1702 0c28,-156 165,-275 330,-275 165,0 301,119 329,275l334 0c6,0 12,-6 18,-6 0,0 6,-6 6,-18l-36 -287c-6,-30 -24,-54 -48,-60l-777 -280 -2726 0 0 -3 0 588c0,36 30,66 66,66l143 0c28,-156 165,-275 330,-275 164,0 301,119 329,275l0 0zm-329 -161c-120,0 -216,95 -216,215 0,119 96,221 216,221 119,0 215,-96 215,-215 0,-120 -96,-221 -215,-221zm2361 0c-120,0 -215,95 -215,215 0,119 95,215 215,215 119,0 215,-96 215,-215 0,-120 -96,-215 -215,-215zm-3025 -616l0 0zm1423 0l0 -490 293 0c209,0 412,72 573,209l389 281 -1255 0zm-120 -490l0 490 -1134 0 309 -359c60,-83 156,-131 251,-131l574 0 0 0z"/>
 </g>
</svg>
