<?xml version="1.0" encoding="UTF-8"?>
<!DOCTYPE svg PUBLIC "-//W3C//DTD SVG 1.1//EN" "http://www.w3.org/Graphics/SVG/1.1/DTD/svg11.dtd">
<!-- Creator: CorelDRAW X8 -->
<svg xmlns="http://www.w3.org/2000/svg" xml:space="preserve" width="50px" height="61px" version="1.1" style="shape-rendering:geometricPrecision; text-rendering:geometricPrecision; image-rendering:optimizeQuality; fill-rule:evenodd; clip-rule:evenodd"
viewBox="0 0 15348 18614"
 xmlns:xlink="http://www.w3.org/1999/xlink">
 <defs>
  <style type="text/css">
   <![CDATA[
    .fil0 {fill:url(#id0)}
   ]]>
  </style>
  <linearGradient id="id0" gradientUnits="userSpaceOnUse" x1="1359.19" y1="14891" x2="13989.3" y2="3723.1">
   <stop offset="0" style="stop-opacity:1; stop-color:#0072FF"/>
   <stop offset="1" style="stop-opacity:1; stop-color:#F08322"/>
  </linearGradient>
 </defs>
 <g id="Слой_x0020_1">
  <metadata id="CorelCorpID_0Corel-Layer"/>
  <path class="fil0" d="M2224 13030l5245 5495c111,115 291,119 406,9 4,-5 9,-9 9,-9l5244 -5495c801,-837 1388,-1756 1749,-2733 369,-977 525,-2023 455,-3066 -131,-1912 -956,-3710 -2319,-5052 -2967,-2905 -7711,-2905 -10678,0 -1363,1346 -2187,3144 -2319,5052 -70,1043 86,2089 456,3066 365,977 952,1896 1752,2733zm5614 -6074l0 3271c0,452 370,821 821,821 452,0 821,-369 821,-821l0 -3271c575,-308 989,-935 989,-1621 0,-689 -390,-1321 -1010,-1629 -90,-45 -201,-41 -287,12 -86,54 -139,144 -143,246l0 723 -382 258 -398 -279 4 -697c0,-161 -127,-288 -283,-288 -45,0 -91,8 -132,29 -898,451 -1260,1543 -808,2442 176,349 460,632 808,804l0 0zm-160 -2401l0 259c0,94 45,181 123,238l686 480c98,70 226,70 324,4l673 -451c78,-54 123,-144 123,-238l0 -287c205,217 279,488 279,779 4,517 -316,981 -800,1166 -111,41 -181,152 -176,271l0 3459c0,136 -111,247 -247,247 -135,0 -246,-111 -246,-247l0 -3459c-4,-123 -78,-230 -193,-271 -484,-181 -808,-645 -812,-1166 -9,-287 90,-562 266,-784zm-2565 3128l-172 574c-8,25 -16,54 -16,82l0 1884c4,464 377,841 841,845l435 0c460,0 817,-389 817,-845l0 -1884c4,-28 0,-53 -4,-82l-165 -574c152,-25 255,-173 226,-325 -25,-135 -144,-233 -283,-229l-513 0 0 -3132c0,-160 -127,-287 -287,-287 -160,0 -288,127 -288,287l0 0 0 3132 -533 0c-156,-4 -283,119 -287,270 -5,140 94,259 229,284zm386 697l209 -677 550 0 185 677 0 1843c0,144 -98,271 -242,271l-435 0c-148,-8 -263,-127 -267,-271l0 -1843zm2175 4404c2988,0 5417,-2430 5417,-5417 0,-2988 -2429,-5418 -5417,-5418 -2987,0 -5417,2430 -5417,5418 0,2987 2430,5417 5417,5417zm0 -10260c2676,0 4843,2167 4843,4843 0,2675 -2167,4842 -4843,4842 -2676,0 -4842,-2167 -4842,-4842 4,-2676 2171,-4839 4842,-4843l0 0zm-7083 4744c119,-1773 886,-3435 2150,-4682 2742,-2689 7129,-2689 9870,0 1264,1247 2028,2913 2151,4682 61,960 -82,1925 -423,2828 -332,903 -882,1756 -1625,2536l-5040 5278 -5035 -5278c-747,-780 -1293,-1633 -1626,-2536 -340,-899 -488,-1863 -422,-2828z"/>
 </g>
</svg>
