<svg xmlns="http://www.w3.org/2000/svg" viewBox="0 0 542.17 460.2"><defs><style>.cls-1{fill:#fff;}</style></defs><title>car-3</title><g id="Слой_2" data-name="Слой 2"><g id="Слой_1-2" data-name="Слой 1"><g id="Слой_1-3" data-name="Слой_1"><path class="cls-1" d="M460.2,409.8h-14v14h14ZM278.07,100.17H245.9v13.95h32.17ZM537.1,64,474.31,46.06l-2.1-1.3c-.57-.37-1.13-.71-1.67-1s-1.22-.68-1.73-1c-.68-.34-1.53-.85-2.18-1.25A293.88,293.88,0,0,0,147.34,53.23L131.87,64.06l-63.27,9a80,80,0,0,0-56.72,37.47l-.14.2-.17.2a7.29,7.29,0,0,0-.6.68c-.2.26-.37.54-.54.79a79.27,79.27,0,0,0-5.1,11A80.73,80.73,0,0,0,2,135.13l0,0c-.09.45-.23,1.11-.43,2-.14.77-.28,1.47-.37,2.07s-.23,1.3-.31,2-.17,1.33-.26,2C.45,144.51.34,145.76.26,147s-.14,2.58-.14,3.77h0a6,6,0,0,1-.06.74v46.69a7,7,0,0,0,2,4.93h0a6.87,6.87,0,0,0,4.93,2H55.1l.26,1.84a61.45,61.45,0,0,0,17.86,35.18L77,245.87H7a7,7,0,0,0-7,7H0a80,80,0,0,0,56.78,76.42l3.57,1.08-2.78,2.52a36.78,36.78,0,0,0-12,27.13h0v2h0a36.57,36.57,0,0,0,20.32,32.88v0L172,447.92h0a116.57,116.57,0,0,0,52,12.27H535.17a7,7,0,0,0,5-2.07,6.91,6.91,0,0,0,2-4.93V325.72a7,7,0,0,0-7-7h-27.5l4.71-3.77a79.79,79.79,0,0,0,29.79-62.11h0a7,7,0,0,0-7-7h-70l3.74-3.66A61.45,61.45,0,0,0,486.81,207l.26-1.84h11.68a6.88,6.88,0,0,0,5.44-2.61h0l36.42-45.52v0a6.73,6.73,0,0,0,1.5-4.37V70.72a7,7,0,0,0-5-6.72Zm-113.81-.26H314.5V14h2.13A279.67,279.67,0,0,1,446.14,46.09l3.26,1.7-25.51,16Zm-122.77-47v47h-144l5.92-3.91A278.73,278.73,0,0,1,298.29,14.6l2.24-.14ZM14.94,141.39c.14-.94.31-1.81.48-2.64s.43-1.79.65-2.69c.26-1.08.54-2.1.85-3.12s.65-2.1,1-3.12h0l.62-1.62,0-.11c.31-.82.6-1.5.82-2s.54-1.22.94-2l.57-1.22H47.65L30.84,145.36l-16.27.23.11-2.27q0-.51.09-.94A6.62,6.62,0,0,1,14.94,141.39Zm1.13,18.17,18.34-.26a6.74,6.74,0,0,0,3.06-.79,6.85,6.85,0,0,0,2.41-2h0l27.33-36.42a6.94,6.94,0,0,0,.68-7.31h0a6.9,6.9,0,0,0-6.26-3.86H30.08l3.66-3.63A65.31,65.31,0,0,1,70.52,86.91L135,77.7H300.52V191.25h-123l-.26-1.84c-.06-.37-.14-.74-.23-1.11s-.09-.48-.17-.88v0c-.17-.88-.31-1.79-.48-2.49-.09-.45-.23-1-.4-1.62s-.31-1.13-.45-1.62c0-.11-.2-.6-.2-.65-.14-.54-.28-1.08-.51-1.7v-.06c-.26-.82-.65-1.84-1-2.86l-.17-.45h0c-.11-.31-.2-.57-.31-.82s-.28-.77-.48-1.22v0c-.31-.68-.57-1.28-.82-1.79s-.54-1-.94-1.79h0c-.23-.48-.31-.65-.4-.82h0a6.75,6.75,0,0,0-.4-.77v0c-.4-.77-.88-1.59-1.39-2.41s-1-1.59-1.53-2.38c-.2-.28-.43-.57-.68-.88h0l-.11-.14-.11-.14c-.37-.54-.79-1.11-1.25-1.73s-.85-1.13-1.28-1.67h0c-.43-.48-.71-.82-1-1.13h0l-.54-.62c-.79-.88-1.56-1.79-2.27-2.52l-1.28-1.25-.6-.54c-.77-.71-1.53-1.42-2.3-2.07h0c-.62-.54-1.19-1-1.76-1.42l-.54-.4c-.74-.57-1.47-1.13-2.18-1.62l-.06,0-1-.71c-.34-.23-.68-.45-1-.68h0c-.4-.28-.85-.54-1.33-.85h0l-1.42-.82c-.4-.23-.77-.43-1.08-.62s-.79-.4-1.11-.57h0l-1.45-.74-1.5-.68-.17-.09c-.77-.34-1.5-.68-2.1-.91h0q-.72-.3-1.53-.6c-.54-.2-1-.4-1.59-.57h0l-.85-.28c-.48-.17-1-.34-1.47-.48h0c-.51-.14-1.08-.31-1.67-.45-1-.26-1.36-.34-1.73-.43h0l-.85-.2-1.42-.34c-.62-.11-1.28-.23-1.93-.31l-2-.28h0c-.23,0-.51-.09-.79-.11a9.45,9.45,0,0,0-1.13-.14c-1-.09-2-.17-2.89-.2s-1.9-.09-3-.09-2.1,0-3,.09-2,.11-3,.23h0a9.69,9.69,0,0,0-1.11.14c-.26,0-.54.09-.82.11l0,0-2,.26c-.62.09-1.25.2-1.9.34h0a14.31,14.31,0,0,0-1.5.34l-.74.17h0l-.14,0c-1.08.26-2.18.54-3.29.85h0l-1.45.48-.91.31c-1.08.37-2.15.74-3.09,1.13h0c-.77.31-1.47.65-2.21,1v0h-.06l-.57.28h0c-.82.37-1.62.74-2.3,1.11l-.06,0q-.51.26-1.11.6c-.4.2-.77.43-1.08.6h0c-.6.34-1.11.62-1.42.82l-1.36.85-.2.14c-.6.4-1.22.77-1.81,1.22l-.06,0c-.45.34-.91.65-1.33,1-.62.45-1,.79-1.3,1L78,150c-.54.43-1,.82-1.56,1.25l0,.06a23.8,23.8,0,0,0-2,1.76l-.77.71c-.51.45-1,.91-1.42,1.33v0c-.43.43-.82.85-1.19,1.25l-1.16,1.36-.54.6c-.26.31-.54.6-.94,1.08s-.91,1.16-1.28,1.64-.79,1.08-1.22,1.73l-.43.57c-.17.2-.31.4-.45.6q-.81,1.23-1.53,2.38c-.48.82-1,1.64-1.42,2.44v0c-.14.26-.26.54-.4.79s-.17.37-.37.74h0c-.37.71-.68,1.36-.91,1.81s-.57,1.19-.85,1.81c-.17.37-.34.82-.51,1.3-.06.14-.11.31-.28.77h0l-.26.62c-.34.88-.68,1.76-1,2.64v.06c-.2.57-.34,1.08-.48,1.62s-.11.4-.2.74h0l-.45,1.67c-.14.54-.31,1.11-.45,1.67s-.23,1.22-.37,1.93l-.09.51v0c-.06.31-.11.57-.17.79-.09.4-.17.82-.23,1.16l-.26,1.84H14V159.59ZM365,207a61.45,61.45,0,0,0,17.86,35.18l3.74,3.66h-231l3.74-3.66A61.45,61.45,0,0,0,177.19,207l.26-1.84H364.73ZM68.63,198.22a47.66,47.66,0,1,1,47.65,47.65h0a47.66,47.66,0,0,1-47.65-47.65ZM180.39,364.5l-69.45-31.8h77.87l-1.93,3.2A33.63,33.63,0,0,0,183.31,362l1.22,4.39Zm-2.1,70.89L72.11,382.33h0A22.63,22.63,0,0,1,59.53,362h0v-2h0a22.7,22.7,0,0,1,32.23-20.72h0L195.3,386.7a7.87,7.87,0,0,0,1.45.48,6.35,6.35,0,0,0,1.47.17H289.3a6.94,6.94,0,0,0,4.93-2.07,7,7,0,0,0,0-9.86,7,7,0,0,0-4.93-2H216.45a20.34,20.34,0,1,1,0-40.68h69.82a7.06,7.06,0,0,0,1.73-.23,6,6,0,0,0,1.59-.62l2.35-1.28a123.66,123.66,0,0,1,116.73-1.33l1.13.6V446.22H224a102.57,102.57,0,0,1-45.72-10.8ZM528.2,334.82v111.4H423.77V332.7H528.2Zm-.68-72.57a65.94,65.94,0,0,1-65.2,56.47H418.5l-.48-.26a137.41,137.41,0,0,0-132.74-.17l-.45.26-68.37.17H79.85a65.94,65.94,0,0,1-65.2-56.47l-.37-2.41h513.6ZM425.9,245.87a47.66,47.66,0,1,1,47.65-47.65h0a47.71,47.71,0,0,1-47.65,47.65Zm68.48-54.62h-7.23l-.26-1.84c-.06-.37-.14-.74-.23-1.11s-.09-.48-.17-.88v0l-.06-.34c-.14-.74-.26-1.47-.43-2.15h0q-.17-.68-.43-1.62c-.14-.54-.28-1.08-.45-1.59l0-.09-.11-.48h0c-.17-.65-.37-1.33-.51-1.81l0,0c-.28-.94-.68-2-1.08-3l-.43-1.11a13,13,0,0,0-.51-1.25v0c-.28-.65-.57-1.25-.82-1.79s-.57-1.13-.94-1.79c-.17-.37-.28-.6-.4-.85s-.31-.62-.37-.74l0,0c-.45-.85-.91-1.64-1.39-2.41s-1-1.62-1.53-2.41v0a5.36,5.36,0,0,0-.4-.54c-.11-.17-.23-.31-.45-.62h0L474.88,161c-.4-.51-.79-1.08-1.3-1.67h0c-.31-.4-.62-.74-.94-1.08l-.48-.54h0l-.11-.11c-.79-.91-1.56-1.79-2.3-2.55-.4-.43-.82-.82-1.28-1.25l-.45-.43c-.79-.74-1.62-1.5-2.41-2.18-.6-.51-1.19-1-1.81-1.45l-.06-.06h0l-1.33-1-1.33-1c-.43-.28-.74-.51-1-.71s-.68-.45-1-.68h0l-1.36-.85-1.39-.82h0c-.51-.28-.88-.48-1.11-.62q-.6-.3-1.11-.6l-1.45-.71-1.47-.68h0L451,142c-.77-.34-1.53-.68-2.1-.91h0c-.48-.2-1-.4-1.53-.6-.68-.26-1.16-.43-1.59-.57h0l-.82-.28h0c-.45-.14-.88-.31-1.5-.48h0c-1.16-.34-2.24-.6-3.34-.88H440l-.82-.2c-.45-.11-.91-.23-1.45-.34s-1.25-.23-1.9-.31-1.28-.2-2-.28h0c-.23,0-.51-.09-.79-.11a9.45,9.45,0,0,0-1.13-.14c-1-.09-2-.17-2.92-.2s-1.93-.09-3-.09-2.1,0-3,.09-2,.11-3,.23h0a9.69,9.69,0,0,0-1.11.14c-.26,0-.51.09-.82.11l0,0-2,.26c-.6.09-1.25.2-1.9.34h0a12.39,12.39,0,0,0-1.47.34l-.77.17h0l-.2.06c-1.08.26-2.15.51-3.23.82h0c-.48.14-1,.31-1.42.48L406,140c-1,.34-2.13.74-3.12,1.13h0c-.71.28-1.47.62-2.24,1h0l-.62.28h0c-.79.37-1.59.74-2.27,1.11l-.06,0q-.51.26-1.11.6c-.4.2-.77.43-1.08.6h0l-1.42.82-1.36.85-.23.17c-.62.4-1.25.77-1.79,1.19l0,0c-.43.28-.85.62-1.33,1s-.91.65-1.33,1h0l-.2.17h0c-.57.43-1.13.88-1.67,1.33l0,0c-.62.54-1.28,1.13-1.9,1.73l-.88.82c-.48.43-.94.88-1.36,1.28s-.82.91-1.19,1.28-.77.91-1.13,1.36l-.57.62c-.34.37-.68.74-.88,1h0c-.51.62-1,1.22-1.33,1.7s-.85,1.16-1.22,1.73l0,.06c-.09.09-.23.28-.4.51s-.31.4-.45.57c-.54.82-1,1.62-1.5,2.41s-1,1.59-1.45,2.47c-.11.2-.26.51-.4.82s-.28.57-.34.71h0c-.34.71-.68,1.33-.91,1.81s-.57,1.16-.85,1.81v0a12.38,12.38,0,0,0-.54,1.36c-.17.43-.31.82-.48,1.25-.37.91-.71,1.81-1,2.69v.09c-.2.51-.34,1-.48,1.56h0c-.11.48-.11.48-.2.77h0l-.06.2c-.26.91-.51,1.81-.85,3.15h0q-.17.89-.34,1.87l-.11.57c-.06.34-.11.6-.17.82a9.07,9.07,0,0,0-.2,1.16l-.26,1.84H314.5V77.7H425.9a7.34,7.34,0,0,0,1.93-.26,8.37,8.37,0,0,0,1.79-.79l33.62-21,1.56,1,2.92,1.81h0a6,6,0,0,0,.85.45,4.31,4.31,0,0,0,.91.31h0L528.2,76v24.18H491.77v13.95H528.2v36.08l-32.82,41ZM425.9,173a25.21,25.21,0,1,0,17.8,7.37A25.1,25.1,0,0,0,425.9,173Zm0,36.42a11.23,11.23,0,1,1,7.94-3.29A11.09,11.09,0,0,1,425.9,209.45ZM116.28,173a25.21,25.21,0,1,0,17.8,7.37A25.22,25.22,0,0,0,116.28,173Zm0,36.42a11.09,11.09,0,0,1-7.94-3.29h0a11.16,11.16,0,0,1,0-15.87h0a11.22,11.22,0,1,1,7.94,19.16Z"/></g></g></g></svg>