<?xml version="1.0" encoding="UTF-8"?>
<!DOCTYPE svg PUBLIC "-//W3C//DTD SVG 1.1//EN" "http://www.w3.org/Graphics/SVG/1.1/DTD/svg11.dtd">
<!-- Creator: CorelDRAW X8 -->
<svg xmlns="http://www.w3.org/2000/svg" xml:space="preserve" width="56px" height="49px" version="1.1" style="shape-rendering:geometricPrecision; text-rendering:geometricPrecision; image-rendering:optimizeQuality; fill-rule:evenodd; clip-rule:evenodd"
viewBox="0 0 21228 18469"
 xmlns:xlink="http://www.w3.org/1999/xlink">
 <defs>
  <style type="text/css">
   <![CDATA[
    .fil0 {fill:url(#id0)}
   ]]>
  </style>
  <linearGradient id="id0" gradientUnits="userSpaceOnUse" x1="4436.23" y1="16848.6" x2="16791.4" y2="1619.94">
   <stop offset="0" style="stop-opacity:1; stop-color:#0072FF"/>
   <stop offset="1" style="stop-opacity:1; stop-color:#F08322"/>
  </linearGradient>
 </defs>
 <g id="Слой_x0020_1">
  <metadata id="CorelCorpID_0Corel-Layer"/>
  <path class="fil0" d="M3468 6961l-8 0c-636,0 -1148,516 -1148,1152 0,4 0,4 0,8 4,636 516,1156 1156,1161l9 0c309,-43 597,-134 816,-357 215,-219 335,-516 331,-825 -4,-632 -520,-1143 -1156,-1139zm9900 4615c-111,-124 -300,-133 -425,-21 -125,111 -133,300 -21,425 0,0 4,4 4,4l1134 1229c112,121 301,129 426,17l2144 -1963c124,-112 129,-301 17,-426 -112,-124 -301,-129 -425,-17l-1925 1762 -929 -1010zm5243 -2643l-3687 -1809c-86,-43 -181,-43 -267,0l-3691 1805c-103,52 -172,155 -172,271l0 3455c0,924 602,2054 1367,2574l2458 1675c103,69 236,69 339,0l2462 -1675c761,-520 1363,-1650 1363,-2574l0 -3451c0,-116 -69,-219 -172,-271zm-430 3722c0,717 -507,1671 -1100,2075l-2290 1560 -2295 -1560c-593,-404 -1104,-1358 -1104,-2075l0 -3266 3394 -1659 3395 1663 0 3262zm-11666 -5608l0 0c-168,4 -301,142 -301,309l4 800c0,167 133,305 301,309l4 0c168,-4 301,-146 297,-314l-5 -799c0,-163 -133,-301 -300,-305zm1456 0l0 0c-167,0 -300,133 -300,301 0,0 0,0 0,4l4 782c0,164 137,292 296,292 0,0 0,0 5,0l4 0c163,0 296,-128 296,-292 0,0 0,-4 0,-4l-4 -782c0,-172 -133,-301 -301,-301 0,0 0,0 0,0zm11714 -503c0,-13 4,-25 4,-38 0,-486 -176,-954 -498,-1324 -82,-94 -176,-176 -275,-253l1053 -9c167,0 300,-137 296,-305 0,-4 0,-9 0,-13 -21,-253 -73,-503 -150,-739 -176,-520 -726,-855 -1397,-855l-17 0c-408,0 -1147,9 -1487,9l-674 -1229c-473,-834 -1156,-1788 -2286,-1788l-13 0 -8212 64c-924,9 -1740,654 -2299,1822l-687 1238c-335,0 -1083,4 -1500,9 -679,4 -1229,348 -1401,876 -77,241 -124,490 -142,743 -8,168 125,310 293,318 4,0 8,0 8,0l4 0 1032 -8c-447,348 -735,924 -731,1585 0,13 0,26 5,39l511 3803c13,541 408,993 941,1083l9 1216c4,391 322,705 713,705l4 0 1251 -9c395,-4 709,-322 709,-718l-9 -1203 3614 -26c-13,159 -17,323 -17,486 0,3554 2891,6446 6445,6446 3554,0 6446,-2892 6446,-6446 4,-1611 -598,-3163 -1685,-4349l142 -1130zm-980 -2930c408,-5 748,176 838,447 30,86 52,176 73,262l-1676 13 -395 -718c374,0 859,-4 1160,-4l0 0zm-14442 -1440c4,-4 4,-13 9,-17 262,-550 842,-1482 1766,-1491l8207 -64 9 0c644,0 1173,446 1761,1482l1388 2518 -1469 13c-134,-997 -989,-1740 -1994,-1736l-13 0c-1014,0 -1865,761 -1981,1770l-9092 65 1409 -2540zm11065 2445l-2776 22c116,-671 700,-1160 1379,-1160l9 0c369,-5 726,137 988,395 211,202 348,460 400,743zm-14679 -159c17,-90 43,-176 69,-262 90,-271 425,-455 834,-460 305,-4 790,-4 1160,-8l-400 717 -1663 13zm3395 8422l-1251 9c-30,0 -55,-13 -77,-30 -21,-22 -34,-47 -34,-77l-9 -1204 1474 -12 9 1203c0,64 -52,111 -112,111zm4387 -1946l-6179 47c-137,0 -271,-56 -370,-150 -98,-99 -154,-228 -158,-370 0,-13 0,-26 -5,-38l-511 -3803c4,-791 537,-1268 1078,-1307 18,5 35,9 48,9l4 0 15559 -120c5,0 5,-9 9,-9l9 0c313,0 614,142 820,383 220,253 340,575 344,910l-82 662c-2247,-1942 -5530,-2101 -7953,-378 -494,352 -937,774 -1315,1246l-4 -683c0,-168 -138,-301 -306,-296 -167,4 -300,137 -296,305l4 786c0,163 138,296 301,296l0 0c-498,752 -842,1612 -997,2510l0 0zm12199 1087c0,3223 -2621,5844 -5844,5844 -3222,0 -5844,-2621 -5844,-5844 0,-3227 2617,-5844 5844,-5844 3227,0 5844,2617 5844,5844zm-17158 -3365c-146,0 -288,-55 -391,-159 -103,-98 -163,-240 -163,-386 -4,-301 241,-550 546,-555 0,0 4,0 4,0l4 0c301,-4 550,232 555,533 0,5 0,5 0,9 -5,309 -250,558 -555,558 0,0 0,0 0,0l0 0z"/>
 </g>
</svg>
