<?xml version="1.0" encoding="UTF-8"?>
<!DOCTYPE svg PUBLIC "-//W3C//DTD SVG 1.1//EN" "http://www.w3.org/Graphics/SVG/1.1/DTD/svg11.dtd">
<!-- Creator: CorelDRAW X8 -->
<svg xmlns="http://www.w3.org/2000/svg" xml:space="preserve" width="51.4295mm" height="51.4292mm" version="1.1" style="shape-rendering:geometricPrecision; text-rendering:geometricPrecision; image-rendering:optimizeQuality; fill-rule:evenodd; clip-rule:evenodd"
viewBox="0 0 1580 1580"
 xmlns:xlink="http://www.w3.org/1999/xlink">
 <defs>
  <style type="text/css">
   <![CDATA[
    .fil0 {fill:url(#id0)}
   ]]>
  </style>
  <linearGradient id="id0" gradientUnits="userSpaceOnUse" x1="251.173" y1="1367.47" x2="1328.49" y2="212.177">
   <stop offset="0" style="stop-opacity:1; stop-color:#0072FF"/>
   <stop offset="1" style="stop-opacity:1; stop-color:#F08322"/>
  </linearGradient>
 </defs>
 <g id="Слой_x0020_1">
  <metadata id="CorelCorpID_0Corel-Layer"/>
  <path class="fil0" d="M1384 1580c-55,0 -83,-35 -106,-63 -22,-27 -35,-43 -64,-43 -28,0 -42,16 -64,43 -23,28 -50,63 -105,63 -55,0 -83,-35 -106,-63 -22,-27 -36,-43 -64,-43 -28,0 -42,16 -64,43 -23,28 -51,63 -106,63 -55,0 -83,-35 -105,-63 -22,-27 -36,-43 -64,-43 -29,0 -43,16 -65,43 -22,28 -50,63 -105,63 -55,0 -83,-35 -105,-63 -22,-27 -36,-43 -65,-43 -28,0 -42,16 -64,43 -23,28 -51,63 -106,63 -14,0 -26,-12 -26,-27 0,-14 12,-26 26,-26 29,0 43,-15 65,-43 22,-28 50,-62 105,-62 55,0 83,34 105,62 23,28 37,43 65,43 28,0 42,-15 64,-43 23,-28 51,-62 106,-62 55,0 83,34 105,62 22,28 36,43 64,43 29,0 43,-15 65,-43 22,-28 50,-62 105,-62 55,0 83,34 105,62 22,28 36,43 65,43 28,0 42,-15 64,-43 22,-28 50,-62 105,-62 55,0 83,34 105,62 23,28 36,43 65,43 28,0 42,-15 64,-43 22,-28 50,-62 105,-62 15,0 27,11 27,26 0,15 -12,26 -27,26 -28,0 -42,16 -64,43 -22,28 -50,63 -105,63zm-989 -1132l53 0c14,0 26,-12 26,-27 0,-14 -12,-26 -26,-26l-53 0c-15,0 -26,12 -26,26 0,15 11,27 26,27l0 0zm921 315l53 0c15,1 26,-11 26,-26 0,-14 -11,-26 -26,-26l-53 0c-14,0 -26,12 -26,26 0,15 12,27 26,27l0 -1zm-105 -52l-105 0c-15,0 -27,12 -27,26 0,15 12,27 27,27l105 -1c15,1 26,-11 26,-26 0,-14 -11,-26 -26,-26zm342 289c-55,0 -83,35 -105,63 -22,27 -36,43 -64,43 -29,0 -42,-16 -65,-43 -8,-11 -17,-22 -27,-31l282 -357c4,-5 6,-11 6,-17 0,-14 -12,-26 -27,-26 0,0 0,0 0,0l-79 0 0 -132c0,-14 -11,-26 -26,-26l-158 0 0 -211c0,-14 -12,-26 -26,-26l-158 0 0 -211c0,-14 -12,-26 -27,-26l-368 0c-15,0 -26,12 -26,26l0 211 -158 0c-15,0 -27,12 -27,26l0 53 -158 0 0 -79c0,-15 -12,-26 -26,-26l-53 0 0 -132c0,-15 -12,-26 -26,-26 -15,0 -26,11 -26,26l0 132 -53 0c-15,0 -26,11 -26,26l0 79 -53 0c-15,0 -26,12 -26,26l0 106c0,14 11,26 26,26l26 0 0 237 -79 0c-14,0 -26,12 -26,26l0 395c0,15 12,26 26,26 55,0 83,-34 106,-62 22,-27 36,-43 64,-43 29,0 43,16 65,43 22,28 50,62 105,62 55,0 83,-34 105,-62 22,-27 36,-43 65,-43 28,0 42,16 64,43 22,28 50,62 105,62 55,0 83,-34 106,-62 22,-27 36,-43 64,-43 28,0 42,16 64,43 23,28 51,62 106,62 55,0 82,-34 105,-62 22,-27 36,-43 64,-43 29,0 42,16 64,43 23,28 51,62 106,62 55,0 83,-34 105,-62 22,-27 36,-43 64,-43 15,0 27,-12 27,-26 0,-15 -12,-27 -27,-27l0 0zm-131 -368l-316 0 0 -105 316 0 0 105zm-474 0c-7,0 -14,3 -19,8l-71 71 -121 0 0 -184 316 0 0 105 -105 0zm-579 79l0 -184 316 0 0 184 -316 0zm868 -237l-316 0 0 -184 316 0 0 184zm-500 -421l316 0 0 184 -316 0 0 -184zm-184 237l316 0 0 184 -316 0 0 -184zm-369 -27l106 0 0 53 -106 0 0 -53zm-26 185c0,-15 -12,-27 -26,-27l-27 0 0 -52 395 0 0 105 -158 0c-14,0 -26,12 -26,26l0 211 -158 0 0 -263zm951 615c-22,27 -36,43 -64,43 -29,0 -43,-16 -65,-43 -22,-28 -50,-63 -105,-63 -55,0 -83,35 -105,63 -22,27 -36,43 -65,43 -28,0 -42,-16 -64,-43 -22,-28 -50,-63 -105,-63 -55,0 -83,35 -106,63 -22,27 -36,43 -64,43 -29,0 -42,-16 -64,-43 -23,-28 -51,-63 -106,-63 -55,0 -83,35 -105,63 -10,14 -23,27 -38,36l0 -336 816 0c7,0 13,-2 18,-7l72 -71 540 0 -253 320c-11,-3 -21,-5 -32,-5 -55,0 -83,35 -105,63zm275 306c-55,0 -83,-35 -106,-62 -22,-28 -35,-43 -64,-43 -28,0 -42,15 -64,43 -23,27 -50,62 -105,62 -55,0 -83,-35 -106,-62 -22,-28 -36,-43 -64,-43 -28,0 -42,15 -64,43 -23,27 -51,62 -106,62 -55,0 -83,-35 -105,-62 -22,-28 -36,-43 -64,-43 -29,0 -43,15 -65,43 -22,27 -50,62 -105,62 -55,0 -83,-35 -105,-62 -22,-28 -36,-43 -65,-43 -28,0 -42,15 -64,43 -23,27 -51,62 -106,62 -14,0 -26,-12 -26,-26 0,-15 12,-27 26,-27 29,0 43,-15 65,-42 22,-28 50,-63 105,-63 55,0 83,35 105,63 23,27 37,42 65,42 28,0 42,-15 64,-42 23,-28 51,-63 106,-63 55,0 83,35 105,63 22,27 36,42 64,42 29,0 43,-15 65,-42 22,-28 50,-63 105,-63 55,0 83,35 105,63 22,27 36,42 65,42 28,0 42,-15 64,-42 22,-28 50,-63 105,-63 55,0 83,35 105,63 23,27 36,42 65,42 28,0 42,-15 64,-42 22,-28 50,-63 105,-63 15,0 27,12 27,26 0,15 -12,27 -27,27 -28,0 -42,15 -64,43 -22,27 -50,62 -105,62z"/>
 </g>
</svg>
