<svg xmlns="http://www.w3.org/2000/svg" viewBox="0 0 480 480"><defs><style>.cls-1{fill:#fff;}</style></defs><title>cargo-ship</title><g id="Слой_2" data-name="Слой 2"><g id="Слой_1-2" data-name="Слой 1"><g id="Cargo_ship" data-name="Cargo ship"><path class="cls-1" d="M420.49,480c-16.72,0-25.19-10.53-32-19s-10.89-13-19.54-13-12.85,4.7-19.54,13c-6.81,8.46-15.28,19-32,19s-25.19-10.52-32-19c-6.7-8.31-10.9-13-19.54-13s-12.85,4.7-19.54,13c-6.82,8.46-15.3,19-32,19s-25.18-10.52-32-19c-6.7-8.31-10.9-13-19.54-13s-12.86,4.7-19.56,13c-6.82,8.46-15.3,19-32,19S86,469.48,79.2,461s-10.94-13-19.59-13S46.74,452.7,40,461c-6.78,8.46-15.27,19-32,19a8,8,0,0,1,0-16c8.66,0,12.87-4.7,19.58-13s15.3-19,32-19,25.22,10.52,32,19c6.74,8.31,11,13,19.59,13s12.86-4.7,19.56-13c6.82-8.46,15.3-19,32-19s25.18,10.53,32,19,10.92,13,19.55,13,12.85-4.7,19.54-13c6.81-8.46,15.29-19,32-19s25.19,10.52,32,19c6.7,8.31,10.94,13,19.54,13s12.85-4.7,19.54-13c6.81-8.46,15.28-19,32-19s25.18,10.52,32,19c6.7,8.31,10.9,13,19.54,13s12.8-4.7,19.52-13,15.28-19,32-19a8,8,0,0,1,0,16c-8.63,0-12.8,4.7-19.53,13S437.19,480,420.49,480Z"/><path class="cls-1" d="M420.49,416c-16.72,0-25.19-10.53-32-19s-10.89-13-19.54-13-12.85,4.7-19.54,13c-6.81,8.46-15.28,19-32,19s-25.19-10.52-32-19c-6.7-8.31-10.9-13-19.54-13s-12.85,4.7-19.54,13c-6.82,8.46-15.3,19-32,19s-25.18-10.52-32-19c-6.7-8.31-10.9-13-19.54-13s-12.86,4.7-19.56,13c-6.82,8.46-15.3,19-32,19S86,405.48,79.2,397s-10.94-13-19.59-13S46.74,388.7,40,397c-6.78,8.46-15.27,19-32,19a8,8,0,0,1,0-16c8.66,0,12.87-4.7,19.58-13s15.3-19,32-19,25.22,10.52,32,19c6.74,8.31,11,13,19.59,13s12.86-4.7,19.56-13c6.82-8.46,15.3-19,32-19s25.18,10.53,32,19,10.92,13,19.55,13,12.85-4.7,19.54-13c6.81-8.46,15.29-19,32-19s25.19,10.52,32,19c6.7,8.31,10.94,13,19.54,13s12.85-4.7,19.54-13c6.81-8.46,15.28-19,32-19s25.18,10.52,32,19c6.7,8.31,10.9,13,19.54,13s12.8-4.7,19.52-13,15.28-19,32-19a8,8,0,0,1,0,16c-8.63,0-12.8,4.7-19.53,13S437.19,416,420.49,416Z"/><path class="cls-1" d="M472,304c-16.71,0-25.18,10.53-32,19s-10.89,13-19.51,13-12.85-4.7-19.54-13a87.71,87.71,0,0,0-8.47-9.48L478.28,205A8,8,0,0,0,472,192H448V152a8,8,0,0,0-8-8H392V80a8,8,0,0,0-8-8H336V8a8,8,0,0,0-8-8H216a8,8,0,0,0-8,8V72H160a8,8,0,0,0-8,8V96H104V72a8,8,0,0,0-8-8H80V24a8,8,0,0,0-16,0V64H48a8,8,0,0,0-8,8V96H24a8,8,0,0,0-8,8v32a8,8,0,0,0,8,8h8v72H8a8,8,0,0,0-8,8V344a8,8,0,0,0,8,8c16.73,0,25.22-10.52,32-19,6.74-8.31,11-13,19.61-13s12.87,4.7,19.58,13,15.3,19,32,19,25.2-10.52,32-19c6.73-8.31,10.94-13,19.58-13s12.84,4.7,19.54,13c6.81,8.46,15.28,19,32,19s25.19-10.52,32-19c6.7-8.31,10.9-13,19.54-13s12.84,4.7,19.54,13c6.81,8.46,15.29,19,32,19s25.19-10.52,32-19c6.7-8.31,10.9-13,19.54-13s12.8,4.7,19.54,13,15.29,19,32,19,25.18-10.53,32-19,10.89-13,19.52-13a8,8,0,0,0,0-16ZM432,192H336V160h96Zm-144,0a8,8,0,0,0-5.66,2.34L260.69,216H224V160h96v32ZM112,216V160h96v56Zm264-72H280V88h96ZM224,16h96V72H224ZM168,88h96v56H168ZM56,80H88V96H56Zm-8,56a8,8,0,0,0-8-8H32V112H152v32H104a8,8,0,0,0-8,8v64H48ZM336.94,323c-6.7,8.31-10.9,13-19.54,13s-12.8-4.7-19.54-13c-6.81-8.46-15.29-19-32-19s-25.2,10.52-32,19c-6.66,8.31-10.91,13-19.55,13s-12.84-4.7-19.54-13-15.28-19-32-19-25.2,10.52-32,19c-6.71,8.31-10.92,13-19.58,13s-12.86-4.7-19.57-13c-6.83-8.46-15.3-19-32-19s-25.22,10.52-32,19a39.53,39.53,0,0,1-11.61,11V232H264a8.07,8.07,0,0,0,5.66-2.34L291.31,208H455.48l-77,97.38a33.78,33.78,0,0,0-9.54-1.38C352.22,304,343.75,314.52,336.94,323Z"/><path class="cls-1" d="M368,216H336a8,8,0,0,0,0,16h32a8,8,0,0,0,0-16Z"/><path class="cls-1" d="M400,232h16a8,8,0,0,0,0-16H400a8,8,0,0,0,0,16Z"/><path class="cls-1" d="M120,136h16a8,8,0,0,0,0-16H120a8,8,0,0,0,0,16Z"/></g></g></g></svg>