<svg height="512pt" viewBox="0 0 512 512" width="512pt" xmlns="http://www.w3.org/2000/svg"><path fill="#828282" d="m286 91c8.289062 0 15-6.710938 15-15v-46h196c8.289062 0 15-6.710938 15-15s-6.710938-15-15-15h-482c-8.289062 0-15 6.710938-15 15s6.710938 15 15 15h196v46c0 8.289062 6.710938 15 15 15h15v45c0 8.289062 6.710938 15 15 15 8.277344 0 15 6.722656 15 15 0 8.269531-6.71875 14.988281-14.984375 14.996094-.011719 0-.019531 0-.03125 0-8.265625-.007813-14.984375-6.726563-14.984375-14.996094 0-8.289062-6.710938-15-15-15s-15 6.710938-15 15c0 12.835938 5.464844 24.359375 14.113281 32.5625l-63.652343 42.4375h-146.460938c-8.289062 0-15 6.710938-15 15v241c0 8.289062 6.710938 15 15 15h482c8.289062 0 15-6.710938 15-15v-241c0-8.289062-6.710938-15-15-15h-146.460938l-63.652343-42.4375c8.648437-8.203125 14.113281-19.726562 14.113281-32.5625 0-19.53125-12.578125-36.023438-30-42.238281v-32.761719zm-195 346c0 8.289062-6.710938 15-15 15s-15-6.710938-15-15v-121c0-8.289062 6.710938-15 15-15s15 6.710938 15 15zm90 0c0 8.289062-6.710938 15-15 15s-15-6.710938-15-15v-121c0-8.289062 6.710938-15 15-15s15 6.710938 15 15zm90 0c0 8.289062-6.710938 15-15 15s-15-6.710938-15-15v-121c0-8.289062 6.710938-15 15-15s15 6.710938 15 15zm150-121c0-8.289062 6.710938-15 15-15s15 6.710938 15 15v121c0 8.289062-6.710938 15-15 15s-15-6.710938-15-15zm-90 0c0-8.289062 6.710938-15 15-15s15 6.710938 15 15v121c0 8.289062-6.710938 15-15 15s-15-6.710938-15-15zm-34.546875-75h-80.910156l40.457031-26.96875zm0 0"/></svg>