<?xml version="1.0" encoding="UTF-8"?>
<!DOCTYPE svg PUBLIC "-//W3C//DTD SVG 1.1//EN" "http://www.w3.org/Graphics/SVG/1.1/DTD/svg11.dtd">
<!-- Creator: CorelDRAW X8 -->
<svg xmlns="http://www.w3.org/2000/svg" xml:space="preserve" width="49px" height="49px" version="1.1" style="shape-rendering:geometricPrecision; text-rendering:geometricPrecision; image-rendering:optimizeQuality; fill-rule:evenodd; clip-rule:evenodd"
viewBox="0 0 21038 21034"
 xmlns:xlink="http://www.w3.org/1999/xlink">
 <defs>
  <style type="text/css">
   <![CDATA[
    .fil0 {fill:url(#id0)}
   ]]>
  </style>
  <linearGradient id="id0" gradientUnits="userSpaceOnUse" x1="3346.32" y1="18210" x2="17691.4" y2="2824.16">
   <stop offset="0" style="stop-opacity:1; stop-color:#0072FF"/>
   <stop offset="1" style="stop-opacity:1; stop-color:#F08322"/>
  </linearGradient>
 </defs>
 <g id="Слой_x0020_1">
  <metadata id="CorelCorpID_0Corel-Layer"/>
  <path class="fil0" d="M20999 4985c-72,-269 -249,-499 -491,-638 -242,-140 -529,-177 -799,-105 -269,73 -499,249 -638,491l-175 305c-167,-96 -380,-40 -477,126l-891 1518 -305 -175c-80,-47 -177,-60 -267,-35 -90,24 -167,83 -213,164 -95,168 -37,381 130,477l305 175 -2980 5164 -736 1967 -351 656c-205,357 -183,800 56,1135l-788 968 -221 -554c-100,-247 -330,-416 -596,-437 -265,-20 -519,111 -656,339l-126 214 -119 -1403c-28,-331 -284,-598 -615,-638 -330,-40 -643,158 -749,474l-862 2587c-61,183 38,380 221,442 34,16 71,25 108,28 151,0 285,-96 333,-239l859 -2587 123 1423c25,304 243,557 540,625 297,69 604,-62 760,-323l130 -214 218 550c92,232 301,398 548,435 247,37 494,-61 651,-256l816 -1034c91,24 184,36 277,35 376,3 725,-195 915,-519l351 -585 1336 -1623 3011 -5227 305 175c81,46 140,123 165,214 24,90 11,186 -35,266l-1403 2430c-53,80 -70,177 -49,271 21,93 79,174 161,223 81,47 177,60 268,35 90,-24 166,-83 213,-165l1402 -2429c140,-242 178,-530 105,-799 -72,-270 -249,-499 -491,-639l-305 -175 877 -1518c96,-166 39,-379 -126,-477l175 -305c144,-245 182,-539 105,-813l0 0zm-5223 11141c-194,0 -351,157 -351,351l0 3505c0,194 -157,351 -351,351l-14022 0c-194,0 -351,-157 -351,-351l0 -18930c0,-194 157,-351 351,-351l14022 0c194,0 351,157 351,351l0 6584c0,193 157,350 351,350 193,0 350,-157 350,-350l0 -6584c0,-581 -471,-1052 -1052,-1052l-14022 0c-581,0 -1052,471 -1052,1052l0 18930c0,581 471,1052 1052,1052l14022 0c581,0 1052,-471 1052,-1052l0 -3505c0,-194 -157,-351 -350,-351l0 0zm-8063 -4207l2454 0c193,0 350,-156 350,-350 0,-194 -157,-351 -350,-351l-2454 0c-194,0 -351,157 -351,351 0,194 157,350 351,350zm-1403 0c194,0 351,-156 351,-350 0,-194 -157,-351 -351,-351l-3505 0c-194,0 -351,157 -351,351 0,194 157,350 351,350l3505 0zm7362 -2454l-2454 0c-193,0 -350,157 -350,351 0,194 157,351 350,351l2454 0c194,0 351,-157 351,-351 0,-194 -157,-351 -351,-351zm-3505 351c0,-194 -157,-351 -351,-351l-7011 0c-194,0 -351,157 -351,351 0,194 157,351 351,351l7011 0c194,0 351,-157 351,-351zm3505 -2454l-7712 0c-194,0 -351,157 -351,351 0,193 157,350 351,350l7712 0c194,0 351,-157 351,-350 0,-194 -157,-351 -351,-351l0 0zm-9115 -2454c-193,0 -350,157 -350,351 0,193 157,350 350,350l7012 0c193,0 350,-157 350,-350 0,-194 -157,-351 -350,-351l-7012 0zm8063 -2103c194,0 351,-157 351,-351 0,-194 -157,-351 -351,-351l-9114 0c-194,0 -351,157 -351,351l0 1402c0,194 157,351 351,351l9114 0c194,0 351,-157 351,-351 0,-193 -157,-350 -351,-350l-8764 0 0 -701 8764 0zm-11218 13847c0,1646 1334,2980 2980,2980 1646,0 2980,-1334 2980,-2980 0,-194 -157,-351 -351,-351 -193,0 -350,157 -350,351 0,1259 -1020,2279 -2279,2279 -1258,0 -2279,-1020 -2279,-2279 0,-1258 1021,-2279 2279,-2279 493,-1 974,159 1367,456 155,116 375,85 491,-70 116,-155 85,-375 -70,-491 -903,-677 -2111,-786 -3120,-281 -1010,505 -1648,1536 -1648,2665l0 0zm4130 -943l-1241 1238 -743 -744c-137,-136 -358,-136 -495,0 -66,66 -103,156 -103,249 0,94 37,183 103,249l744 743c131,131 309,204 494,204 186,1 366,-72 498,-204l1237 -1241c119,-139 111,-346 -18,-475 -130,-130 -337,-138 -476,-19l0 0zm14145 -10626c47,-81 124,-140 214,-164 90,-23 186,-10 267,35 81,46 140,123 165,213 22,91 9,186 -35,267l-176 305 -610 -351 175 -305zm-4778 9788l-175 -101 -519 -302 498 -1332 1104 638 -908 1097zm-1052 1013c-148,-103 -193,-301 -105,-459l176 -305 610 351 -176 301c-49,85 -131,146 -227,167 -96,22 -197,2 -278,-55l0 0zm2360 -2685l-1213 -701 2804 -4859 1213 701 -2804 4859zm3155 -5465l-1213 -702 701 -1213 1213 702 -701 1213z"/>
 </g>
</svg>
