<svg xmlns="http://www.w3.org/2000/svg" viewBox="0 0 512 512"><defs><style>.cls-1{fill:#fff;}</style></defs><title>customs</title><g id="Слой_2" data-name="Слой 2"><g id="Capa_1" data-name="Capa 1"><path class="cls-1" d="M414.5,0H97.5A97.61,97.61,0,0,0,0,97.5v317A97.61,97.61,0,0,0,97.5,512h317A97.61,97.61,0,0,0,512,414.5V97.5A97.61,97.61,0,0,0,414.5,0ZM497,414.5A82.59,82.59,0,0,1,414.5,497H97.5A82.59,82.59,0,0,1,15,414.5V97.5A82.59,82.59,0,0,1,97.5,15h317A82.59,82.59,0,0,1,497,97.5Z"/><path class="cls-1" d="M416,60H308a7.5,7.5,0,0,0-7.5,7.5v40.08H258a7.5,7.5,0,0,0,0,15H408.5V155.5a46.5,46.5,0,0,1-93,0V145.08a7.5,7.5,0,0,0-15,0V155.5a61.5,61.5,0,0,0,123,0v-88A7.5,7.5,0,0,0,416,60Zm-7.5,47.58h-93V75h93Z"/><path class="cls-1" d="M394.5,232h-240a32.5,32.5,0,0,0,0,65H272V444.5a7.5,7.5,0,0,0,7.5,7.5h165a7.5,7.5,0,0,0,7.5-7.5v-155A57.56,57.56,0,0,0,394.5,232Zm-115,50h-125a17.5,17.5,0,0,1,0-35h240a42.25,42.25,0,0,1,24.26,7.63L287,386.39V289.5A7.5,7.5,0,0,0,279.5,282ZM437,437H287V412H437Zm0-40H297.61L429.37,265.24A42.25,42.25,0,0,1,437,289.5Z"/><path class="cls-1" d="M249.5,397H105V252.5a7.5,7.5,0,0,0-7.5-7.5h-30a7.5,7.5,0,0,0-7.5,7.5v152a7.5,7.5,0,0,0,7.5,7.5H90v32.5a7.5,7.5,0,0,0,7.5,7.5h152a7.5,7.5,0,0,0,7.5-7.5v-40A7.5,7.5,0,0,0,249.5,397ZM90,397H75V260H90Zm152,40H105V412H242Z"/></g></g></svg>