<svg viewBox="0 -46 512 512" xmlns="http://www.w3.org/2000/svg"><path fill="#828282" d="m383.300781 60h-21.300781v-30h30v-30h-90v30h30v30h-90v-30h30v-30h-90v30h30v30h-90v-30h30v-30h-90v30h30v30h-21.300781l-70.699219 68.699219v51.300781h452v-51.300781zm0 0"/><path fill="#828282" d="m62 255v-45h-62v141.300781l70.699219 68.699219h312.601562l68.699219-68.699219v-21.300781h-315c-41.398438 0-75-33.601562-75-75zm0 0"/><path fill="#828282" d="m362 210v45c0 24.898438 20.097656 45 45 45h45v-90zm0 0"/><path fill="#828282" d="m272 210v45c0 24.898438 20.097656 45 45 45h30c-9.300781-12.300781-15-28.199219-15-45v-45zm0 0"/><path fill="#828282" d="m182 210v45c0 24.898438 20.097656 45 45 45h30c-9.300781-12.300781-15-28.199219-15-45v-45zm0 0"/><path fill="#828282" d="m92 210v45c0 24.898438 20.097656 45 45 45h30c-9.300781-12.300781-15-28.199219-15-45v-45zm0 0"/><path fill="#828282" d="m482 180h-30v30h30v90h-30v30h30v30h30v-210h-30zm0 0"/></svg>