<?xml version="1.0" encoding="UTF-8"?>
<!DOCTYPE svg PUBLIC "-//W3C//DTD SVG 1.1//EN" "http://www.w3.org/Graphics/SVG/1.1/DTD/svg11.dtd">
<!-- Creator: CorelDRAW X8 -->
<svg xmlns="http://www.w3.org/2000/svg" xml:space="preserve" width="55px" height="55px" version="1.1" style="shape-rendering:geometricPrecision; text-rendering:geometricPrecision; image-rendering:optimizeQuality; fill-rule:evenodd; clip-rule:evenodd"
viewBox="0 0 15212 15538"
 xmlns:xlink="http://www.w3.org/1999/xlink">
 <defs>
  <style type="text/css">
   <![CDATA[
    .fil0 {fill:url(#id0)}
   ]]>
  </style>
  <linearGradient id="id0" gradientUnits="userSpaceOnUse" x1="2300.74" y1="13338.8" x2="12911.1" y2="2199.53">
   <stop offset="0" style="stop-opacity:1; stop-color:#0072FF"/>
   <stop offset="1" style="stop-opacity:1; stop-color:#F08322"/>
  </linearGradient>
 </defs>
 <g id="Слой_x0020_1">
  <metadata id="CorelCorpID_0Corel-Layer"/>
  <path class="fil0" d="M12107 9336l-584 -583c195,-241 253,-564 155,-858 -99,-293 -340,-516 -640,-591 94,-236 84,-499 -26,-727 -110,-228 -310,-400 -552,-473 157,-277 157,-617 -1,-894 -158,-277 -450,-450 -769,-456 20,-374 -194,-722 -536,-874 -343,-152 -744,-78 -1008,188l-654 654 -1618 -1619c303,-834 103,-1768 -517,-2404 -619,-636 -1548,-861 -2390,-580 -84,29 -148,99 -169,185 -20,87 6,178 69,241l736 736 -154 765 -803 143 -709 -714c-63,-64 -154,-90 -241,-70 -87,21 -157,84 -186,169 -282,832 -66,1752 557,2372 637,633 1582,842 2426,538l143 143 -1371 1375c-258,258 -402,608 -400,973l0 485c1,600 -208,1182 -591,1645l-59 -58c-282,-281 -739,-281 -1021,0l-983 984c-281,281 -281,737 0,1019l4277 4277c282,282 738,282 1019,0l984 -983c281,-282 281,-738 0,-1019l-151 -151 274 -132c800,-385 1530,-902 2157,-1531l1375 -1374 580 580c-304,845 -95,1789 538,2426 431,434 1018,678 1630,678 251,0 500,-40 738,-120 85,-29 149,-98 169,-185 21,-87 -5,-178 -68,-241l-736 -736 154 -765 803 -142 709 714c63,63 154,89 241,69 87,-20 157,-84 185,-169 283,-832 67,-1752 -556,-2372 -637,-633 -1582,-842 -2426,-538l0 0zm-7660 -5389c-682,309 -1485,164 -2016,-365 -372,-369 -563,-883 -522,-1406l467 470c59,60 144,87 227,72l1109 -196c104,-18 186,-99 207,-202l215 -1073c17,-85 -9,-172 -70,-233l-496 -496c633,-46 1244,245 1608,766 363,521 424,1195 161,1773 -45,98 -24,213 52,289l1739 1739 -653 653 -1739 -1739c-76,-76 -191,-96 -289,-52l0 0zm1680 10033l-984 984c-80,80 -211,80 -291,0l-4278 -4278c-80,-81 -80,-211 0,-292l984 -983c80,-81 211,-81 291,0l4278 4277c80,81 80,212 0,292l0 0zm2281 -2832c-587,587 -1269,1071 -2017,1431l-436 210 -3316 -3319c478,-561 741,-1273 741,-2010l0 -485c-2,-228 87,-448 249,-610l1373 -1374 1110 1111 -28 28c-15,15 -31,30 -47,44 -353,324 -893,399 -1344,185l-20 -9c-128,-60 -281,-6 -341,122 -61,128 -7,281 121,343l20 9c647,307 1398,201 1912,-270 21,-20 42,-40 62,-61l2062 -2061c99,-102 244,-143 381,-107 137,36 244,143 280,280 36,137 -5,282 -107,381l-33 32 -1540 1541c-100,100 -100,263 0,364 100,100 263,100 364,0l1541 -1541c153,-152 400,-151 552,2 152,152 153,399 1,552l-393 393 -1147 1148c-101,100 -101,263 0,363 100,101 263,101 363,0l1148 -1147c154,-151 400,-149 552,3 151,152 152,398 2,551l-1147 1148c-101,100 -101,263 0,363 100,101 263,101 363,0l852 -852c99,-100 244,-139 380,-103 136,36 242,142 278,278 36,136 -4,280 -104,379l-2687 2688zm6283 496l-467 -470c-59,-60 -144,-87 -227,-72l-1109 196c-104,18 -186,99 -207,203l-215 1072c-17,85 9,172 70,233l496 496c-633,46 -1245,-245 -1608,-766 -363,-521 -424,-1195 -161,-1773 44,-98 24,-213 -52,-289l-701 -701 653 -653 701 701c76,76 191,97 289,52 682,-309 1485,-164 2016,365 372,369 563,883 522,1406l0 0zm0 0z"/>
 </g>
</svg>
