<?xml version="1.0" encoding="iso-8859-1"?>
<!-- Generator: Adobe Illustrator 16.0.0, SVG Export Plug-In . SVG Version: 6.00 Build 0)  -->
<!DOCTYPE svg PUBLIC "-//W3C//DTD SVG 1.1//EN" "http://www.w3.org/Graphics/SVG/1.1/DTD/svg11.dtd">
<svg version="1.1" id="Capa_1" xmlns="http://www.w3.org/2000/svg" xmlns:xlink="http://www.w3.org/1999/xlink" x="0px" y="0px"
	 width="45.797px" height="45.797px" viewBox="0 0 45.797 45.797" style="enable-background:new 0 0 45.797 45.797;"
	 xml:space="preserve">
<g>
	<g>
		<path fill="#828282" d="M3.599,31.133h3.53v4.346c0,0.699,0.557,1.256,1.256,1.256h2.214c0.699,0,1.295-0.559,1.295-1.256v-4.346H28.95v4.346
			c0,0.699,0.565,1.256,1.266,1.256h2.214c0.699,0,1.286-0.559,1.286-1.256v-4.346h3.5c1.201,0,2.187-0.979,2.187-2.18v-3.244
			c0-1.201-0.984-2.185-2.187-2.185h-2.832v-5.496l9.269-3.286c0.742-0.263,1.135-1.078,0.871-1.818
			c-0.262-0.741-1.084-1.129-1.826-0.865l-8.313,2.948v-0.212c0-1.201-0.95-2.138-2.151-2.138h-8.938
			c-1.201,0-2.203,0.937-2.203,2.138v8.731h-2.547l-5.89-17.056h0.177c0.699,0,1.236-0.562,1.236-1.261V2.045
			c0-0.699-0.537-1.261-1.236-1.261H9.564c-0.699,0-1.265,0.562-1.265,1.261v3.164c0,0.699,0.566,1.261,1.265,1.261h0.125
			L3.845,23.526H3.599c-1.201,0-2.155,0.984-2.155,2.186v3.244C1.443,30.156,2.397,31.133,3.599,31.133z M11.176,10.95l2.06,5.971
			H9.132L11.176,10.95z M8.158,19.764h6.06l1.31,3.762h-8.67L8.158,19.764z"/>
		<path fill="#828282" d="M1.424,40.833h35.12c0.787,0,1.424-0.635,1.424-1.422c0-0.785-0.637-1.421-1.424-1.421H1.424
			C0.637,37.99,0,38.625,0,39.411C0,40.198,0.637,40.833,1.424,40.833z"/>
		<path fill="#828282" d="M14.238,42.086H1.424C0.637,42.086,0,42.764,0,43.549c0,0.787,0.637,1.464,1.424,1.464h12.814
			c0.787,0,1.424-0.677,1.424-1.464C15.662,42.764,15.024,42.086,14.238,42.086z"/>
		<path fill="#828282" d="M44.375,42.086H20.012c-0.787,0-1.424,0.678-1.424,1.463c0,0.787,0.637,1.464,1.424,1.464h24.362
			c0.786,0,1.423-0.677,1.423-1.464C45.798,42.764,45.161,42.086,44.375,42.086z"/>
	</g>
</g>
<g>
</g>
<g>
</g>
<g>
</g>
<g>
</g>
<g>
</g>
<g>
</g>
<g>
</g>
<g>
</g>
<g>
</g>
<g>
</g>
<g>
</g>
<g>
</g>
<g>
</g>
<g>
</g>
<g>
</g>
</svg>
