<?xml version="1.0" encoding="UTF-8"?>
<!DOCTYPE svg PUBLIC "-//W3C//DTD SVG 1.1//EN" "http://www.w3.org/Graphics/SVG/1.1/DTD/svg11.dtd">
<!-- Creator: CorelDRAW X8 -->
<svg xmlns="http://www.w3.org/2000/svg" xml:space="preserve" width="56px" height="46px" version="1.1" style="shape-rendering:geometricPrecision; text-rendering:geometricPrecision; image-rendering:optimizeQuality; fill-rule:evenodd; clip-rule:evenodd"
viewBox="0 0 21491 17790"
 xmlns:xlink="http://www.w3.org/1999/xlink">
 <defs>
  <style type="text/css">
   <![CDATA[
    .fil0 {fill:url(#id0)}
   ]]>
  </style>
  <linearGradient id="id0" gradientUnits="userSpaceOnUse" x1="4862.24" y1="16516.2" x2="16628.4" y2="1274.01">
   <stop offset="0" style="stop-opacity:1; stop-color:#0072FF"/>
   <stop offset="1" style="stop-opacity:1; stop-color:#F08322"/>
  </linearGradient>
 </defs>
 <g id="Слой_x0020_1">
  <metadata id="CorelCorpID_0Corel-Layer"/>
  <path class="fil0" d="M4069 9061c-742,0 -1348,605 -1348,1348 0,743 606,1349 1348,1349 743,0 1349,-606 1349,-1349 0,-747 -606,-1348 -1349,-1348zm-3733 -2338l0 0 1316 5c-142,99 -270,218 -379,350 -364,440 -563,994 -558,1562 0,14 0,28 5,42l582 4533c0,648 482,1192 1121,1273l0 1471c0,454 350,838 804,838l1491 0c459,-5 828,-379 828,-838l0 -1429 6491 0c104,0 180,-66 275,-142l0 3057c0,184 127,345 312,345l1240 0c170,-5 312,-137 331,-307l156 -1623c686,-180 1344,-454 1949,-824l1249 1032c133,109 327,99 445,-24l1770 -1769c123,-123 127,-313 19,-445l-1037 -1240c369,-605 649,-1263 824,-1949l1623 -156c170,-14 298,-161 298,-331l0 -2508c0,-170 -128,-312 -298,-331l-1623 -156c-180,-686 -455,-1344 -824,-1950l1032 -1249c109,-132 99,-326 -19,-445l-1770 -1769c-123,-123 -312,-128 -444,-19l-1245 1031c-605,-369 -1263,-648 -1949,-823l-156 -1627c-14,-171 -156,-303 -331,-308l-1240 0c-185,0 -312,161 -312,345l0 578c-52,-19 -104,-24 -156,-24l-4969 0c-1088,0 -2058,752 -2730,2129l-837 1481c-393,0 -1301,-5 -1798,-5 -795,0 -1443,398 -1646,1013 -95,284 -152,577 -176,875 -4,90 29,175 90,237 71,61 156,99 246,94zm12633 -2361c2319,175 4207,2144 4207,4538 0,2394 -1888,4362 -4207,4537l0 -9075zm0 9738c2697,-175 4869,-2442 4869,-5200 0,-2759 -2172,-5025 -4869,-5200l0 -3033 587 0 151 1566c15,147 119,265 261,298 776,171 1509,478 2167,918 123,81 284,76 397,-19l1202 -993 1344 1343 -999 1193c-90,113 -99,269 -23,392 435,663 742,1401 917,2172 29,142 147,246 294,260l1556 152 0 1907 -1556 151c-142,14 -260,118 -294,260 -165,771 -477,1510 -913,2172 -80,123 -71,284 19,393l994 1201 -1339 1344 -1202 -993c-113,-90 -270,-100 -393,-24 -662,435 -1400,743 -2171,918 -142,33 -246,156 -261,298l-151 1566 -587 0 0 -3042zm-8090 1864c-5,94 -76,165 -166,175l-1490 0c-90,0 -142,-85 -142,-175l0 -1434 1798 0 0 1434zm7428 -5460c-52,-24 -104,-38 -156,-43l-4372 0 170 -520c123,-374 578,-710 970,-710l3232 0c52,5 104,5 156,-9l0 1282zm0 -1888c-47,-24 -104,-43 -156,-47l-3232 0c-686,0 -1386,520 -1599,1173l-312 956c-33,99 -14,208 47,293 62,85 161,133 270,133l4826 0c52,4 109,-5 156,-19l0 653c-52,-15 -104,-24 -156,-19l-5782 0c-185,0 -331,146 -331,331 0,184 146,331 331,331l5782 0c57,-5 109,-19 156,-38l0 1599c-76,-66 -175,-99 -275,-94l-9434 0c-360,-5 -653,-298 -648,-663 0,-14 0,-33 -5,-47l-572 -4533c9,-955 667,-1542 1324,-1580 19,5 38,5 62,5l9392 0c52,0 109,-10 156,-33l0 1599zm-7263 -5271c5,-5 5,-9 10,-14 321,-662 1022,-1765 2138,-1765l4959 0c52,-5 109,-14 156,-38l0 4893c-52,-19 -104,-29 -156,-29l-8829 0 1722 -3047zm-4234 2385c113,-336 520,-559 1022,-559 373,0 979,0 1424,0l-511 904 -2030 0c24,-118 57,-232 95,-345zm3259 5365c-378,0 -686,-307 -686,-686 0,-378 308,-686 686,-686 379,0 687,308 687,686 0,379 -308,686 -687,686z"/>
 </g>
</svg>
