<svg xmlns="http://www.w3.org/2000/svg" viewBox="0 0 494 429.83"><defs><style>.cls-1{fill:#fff;}</style></defs><title>mechanical</title><g id="Слой_2" data-name="Слой 2"><g id="Layer_1" data-name="Layer 1"><path class="cls-1" d="M80.61,162h-.2a26.74,26.74,0,0,0-26.7,26.78q0,.09,0,.18A27.19,27.19,0,0,0,80.6,216h.2c7.18-1,13.92-3.14,19-8.26A26.87,26.87,0,0,0,80.61,162Zm.09,39.52a12.93,12.93,0,0,1-9.14-3.71,12.5,12.5,0,0,1-3.84-9A12.76,12.76,0,0,1,80.38,176h.23A12.66,12.66,0,0,1,93.5,188.44q0,.08,0,.16a12.85,12.85,0,0,1-12.79,12.92h0Z"/><path class="cls-1" d="M458,152.3a7,7,0,0,0,.05-.92,46.83,46.83,0,0,0-11.56-30.77,42.07,42.07,0,0,0-6.37-5.87l24.49-.19a7,7,0,0,0,6.95-7.05q0-.17,0-.34A71.17,71.17,0,0,0,468,89.93C463.9,77.81,451.15,70,435.5,70h-.35c-9.49,0-26.69.16-34.55.19L384.86,41.62C373.87,22.26,357.92,0,331.69,0h-.34L140.27,1.5c-21.54.16-40.54,15.25-53.52,42.42l-16,28.85c-7.85,0-25.25.15-34.86.22C20.09,73.1,7.29,81.11,3.3,93.37A71.09,71.09,0,0,0,0,110.63,7.07,7.07,0,0,0,6.78,118h.29l24-.25c-10.42,8.1-17.07,21.49-17,36.92a6.84,6.84,0,0,0,.06.87l11.87,88.52A26.23,26.23,0,0,0,48,269.23l.21,28.35A16.55,16.55,0,0,0,64.81,314h.13l29.14-.19a16.61,16.61,0,0,0,16.47-16.71l-.21-28,84.08-.62q-.42,5.61-.43,11.29a149.18,149.18,0,0,0,28.34,87.64,7,7,0,0,0,1.08,1.48A149.88,149.88,0,0,0,344,429.83c82.71,0,150-67.29,150-150a148.91,148.91,0,0,0-39.24-101.15ZM435.25,84h.24c9.43,0,17.17,4.2,19.31,10.45a56.23,56.23,0,0,1,1.7,6.15l-39,.31L408.3,84.16c8.58,0,19.89-.16,26.95-.16ZM99.1,50.56c.07-.13.14-.26.2-.39,6.11-12.85,19.58-34.52,41.08-34.67L331.45,14h.24c15,0,27.3,10.41,41,34.47L405,107.09l-34.21.27a46.79,46.79,0,0,0-92.87.7L66.34,109.62Zm257.53,56.93L292,108a32.49,32.49,0,0,1,32.09-27h.25a32.39,32.39,0,0,1,23,9.24A32,32,0,0,1,356.62,107.49ZM15,103.85a56,56,0,0,1,1.6-6.14C18.67,91.37,26.47,87.06,36,87l27-.17-9.26,16.69Zm79,196-29.14.21a2.69,2.69,0,0,1-1.84-.75,2.59,2.59,0,0,1-.78-1.83l-.21-28,34.34-.25.21,28A2.6,2.6,0,0,1,94,299.84Zm102.16-45.33L52.35,255.58a12.32,12.32,0,0,1-8.63-3.52,12.1,12.1,0,0,1-3.65-8.58,7,7,0,0,0-.06-.88L28.14,154.12c.06-18.37,12.54-29.53,25.12-30.37a7.21,7.21,0,0,0,1.14.25h.05l362.12-2.84c.05,0,.1-.16.15-.16H417a25.32,25.32,0,0,1,19.09,8.86,33.29,33.29,0,0,1,8,21.17l-1.92,15.38A150,150,0,0,0,226.5,186.57l-.12-15.77a6.88,6.88,0,0,0-7-6.8h-.1a6.86,6.86,0,0,0-6.95,6.77s0,.09,0,.14l.13,18.24a6.92,6.92,0,0,0,7,6.86h.06a149.38,149.38,0,0,0-23.43,58.51Zm41.69,110.19L322.52,280a7,7,0,0,0,1.42-7.86,56.28,56.28,0,0,1,11.37-62.87,55.71,55.71,0,0,1,45.76-16.1l-15.78,15.67a7,7,0,0,0-2,6.19l6,34a7,7,0,0,0,5.52,5.64l32.91,6.6a7,7,0,0,0,6.33-1.91l16.56-16.56a55.71,55.71,0,0,1-16.11,45.69,56.28,56.28,0,0,1-62.87,11.37,7,7,0,0,0-7.86,1.42L259.12,386A137.2,137.2,0,0,1,237.83,364.71ZM480,279.83c0,75-61,136-136,136a135.19,135.19,0,0,1-73.37-21.53l79.77-79.77a70.05,70.05,0,0,0,90.93-87.85,7,7,0,0,0-11.59-2.73l-22.91,22.91-24.55-4.92-4.54-25.71L400,194.14a7,7,0,0,0-2.7-11.61,69.67,69.67,0,0,0-71.87,16.87,70.38,70.38,0,0,0-16.09,74L229.54,353.2A136,136,0,1,1,480,279.83Z"/><path class="cls-1" d="M185.42,164h-.05a7,7,0,0,0-6.95,7V171l.13,18.18A6.87,6.87,0,0,0,185.5,196h.11a6.86,6.86,0,0,0,6.95-6.77s0-.09,0-.14l-.13-18.24a6.92,6.92,0,0,0-7-6.86Z"/><path class="cls-1" d="M151.47,164h-.05a7.07,7.07,0,0,0-6.95,7.16l.14,18.61a7.25,7.25,0,0,0,7,7.23h.05a7.18,7.18,0,0,0,6.95-7.28l-.14-18.55A7.19,7.19,0,0,0,151.47,164Z"/></g></g></svg>