<?xml version="1.0" encoding="UTF-8"?>
<!DOCTYPE svg PUBLIC "-//W3C//DTD SVG 1.1//EN" "http://www.w3.org/Graphics/SVG/1.1/DTD/svg11.dtd">
<!-- Creator: CorelDRAW X8 -->
<svg xmlns="http://www.w3.org/2000/svg" xml:space="preserve" width="56px" height="49px" version="1.1" style="shape-rendering:geometricPrecision; text-rendering:geometricPrecision; image-rendering:optimizeQuality; fill-rule:evenodd; clip-rule:evenodd"
viewBox="0 0 252063 219300"
 xmlns:xlink="http://www.w3.org/1999/xlink">
 <defs>
  <style type="text/css">
   <![CDATA[
    .fil0 {fill:url(#id0)}
   ]]>
  </style>
  <linearGradient id="id0" gradientUnits="userSpaceOnUse" x1="52677.3" y1="200065" x2="199386" y2="19235.5">
   <stop offset="0" style="stop-opacity:1; stop-color:#0072FF"/>
   <stop offset="1" style="stop-opacity:1; stop-color:#F08322"/>
  </linearGradient>
 </defs>
 <g id="Слой_x0020_1">
  <metadata id="CorelCorpID_0Corel-Layer"/>
  <path class="fil0" d="M41181 82659l-102 0c-7551,0 -13623,6123 -13623,13674 0,51 0,51 0,102 51,7552 6123,13725 13725,13776l102 0c3674,-510 7092,-1581 9695,-4234 2551,-2603 3980,-6123 3929,-9797 -51,-7500 -6174,-13572 -13726,-13521zm36176 1020l0 0c-1990,51 -3572,1684 -3572,3674l51 9490c0,1990 1582,3623 3572,3674l51 0c1990,-51 3572,-1735 3521,-3725l-51 -9490c0,-1939 -1582,-3572 -3572,-3623zm17297 0l0 0c-1990,0 -3572,1582 -3572,3572 0,0 0,0 0,51l51 9286c0,1939 1633,3470 3521,3470 0,0 0,0 51,0l51 0c1939,0 3521,-1531 3521,-3470 0,0 0,-51 0,-51l-51 -9286c0,-2041 -1582,-3572 -3572,-3572 0,0 0,0 0,0zm139091 -5970c0,-153 51,-306 51,-459 0,-5765 -2092,-11327 -5919,-15715 -969,-1122 -2092,-2092 -3265,-3011l12500 -102c1990,0 3572,-1632 3521,-3622 0,-51 0,-102 0,-153 -255,-3011 -867,-5970 -1786,-8776 -2092,-6174 -8623,-10154 -16582,-10154l-205 0c-4847,0 -13623,102 -17654,102l-8010 -14593c-5613,-9899 -13726,-21226 -27145,-21226l-153 0 -97507 765c-10970,102 -20664,7756 -27297,21634l-8164 14695c-3980,0 -12858,51 -17808,102 -8062,51 -14593,4133 -16634,10409 -918,2858 -1479,5817 -1683,8827 -102,1990 1479,3674 3469,3776 51,0 102,0 102,0l51 0 12246 -102c-5306,4133 -8725,10970 -8674,18828 0,153 0,306 51,459l6072 45156c153,6429 4847,11787 11174,12858l102 14440c51,4643 3827,8368 8470,8368l51 0 14848 -102c4694,-51 8419,-3827 8419,-8521l-102 -14287 42911 -306c-153,1888 -204,3827 -204,5766 0,16072 5051,31737 14439,44697 153,255 358,510 562,765 14440,19542 37247,31073 61534,31073 42197,0 76536,-34339 76536,-76535 51,-19134 -7092,-37554 -20001,-51636l1684 -13420zm-11634 -34849l103 0c4796,0 8776,2143 9847,5357 357,1021 663,2092 867,3113l-19899 153 -4694 -8521c4439,-51 10205,-102 13776,-102l0 0zm-171490 -17042c51,-51 51,-153 102,-204 3112,-6531 10000,-17603 20970,-17705l97456 -766 102 0c7653,0 13929,5307 20919,17604l16481 29900 -17450 153c-1684,-13062 -13674,-22298 -26736,-20614 -10868,1429 -19389,10052 -20614,20971l-107967 816 16737 -30155zm131386 29033l-32962 255c1378,-7960 8317,-13777 16379,-13777l102 0c4388,-51 8623,1633 11735,4695 2501,2398 4133,5459 4746,8827zm-174298 -1888c204,-1072 511,-2092 817,-3113 1071,-3214 5051,-5408 9898,-5459 3623,-51 9389,-51 13777,-102l-4746 8521 -19746 153zm40309 100007l-14848 102c-357,0 -663,-153 -918,-358 -255,-255 -408,-561 -408,-918l-102 -14287 17501 -153 102 14287c0,765 -612,1327 -1327,1327zm52095 -23114l-73372 561c-1633,0 -3214,-663 -4388,-1786 -1173,-1173 -1837,-2704 -1888,-4388 0,-153 0,-306 -51,-459l-6072 -45156c51,-9388 6378,-15052 12807,-15511 204,51 408,102 562,102l51 0 184757 -1429c51,0 51,-102 102,-102l102 0c3725,0 7296,1684 9746,4541 2602,3011 4030,6837 4082,10817l-970 7858c-26685,-23063 -65668,-24951 -94445,-4490 -5868,4184 -11123,9184 -15613,14797l-51 -8063c0,-1938 -1633,-3469 -3572,-3469 0,0 0,0 0,0l-51 0c-1939,0 -3521,1531 -3521,3470 0,0 0,51 0,51l51 9286c0,1939 1633,3521 3572,3521 0,0 0,0 0,0l51 0c-5970,8980 -10052,19185 -11889,29849l0 0zm21278 56228l43217 -43217c1071,-1072 1326,-2654 714,-4031 -4898,-10868 -2602,-23624 5817,-32094 6122,-6174 14694,-9184 23369,-8215l-8062 8011c-816,816 -1225,1990 -1020,3163l3061 17348c255,1429 1378,2603 2806,2858l16787 3367c1174,255 2398,-153 3214,-969l8470 -8470c970,8623 -2092,17195 -8214,23318 -8470,8419 -21226,10715 -32094,5817 -1378,-613 -2960,-306 -4031,714l-43166 43268c-3980,-3215 -7654,-6837 -10868,-10868zm123579 -43319c0,38268 -31124,69392 -69392,69392 -13267,0 -26278,-3776 -37452,-10970l40717 -40717c18471,6888 39085,-2500 45973,-20971 2857,-7654 3010,-16072 408,-23828 -612,-1888 -2653,-2857 -4541,-2245 -511,153 -1021,459 -1378,867l-11684 11685 -12552 -2500 -2296 -13113 11327 -11277c1378,-1377 1429,-3673 0,-5051 -408,-408 -867,-714 -1377,-867 -12858,-4388 -27094,-1021 -36687,8623 -9847,9898 -13062,24644 -8214,37757l-40717 40717c-20614,-32298 -11226,-75209 21021,-95924 32247,-20716 75158,-11277 95874,20970 7143,11174 10970,24185 10970,37452zm-203738 -39952c-1735,0 -3418,-663 -4643,-1888 -1225,-1173 -1939,-2857 -1939,-4592 -51,-3572 2857,-6531 6480,-6582 0,0 51,0 51,0l51 0c3572,-51 6531,2755 6582,6327 0,51 0,51 0,102 -51,3674 -2959,6633 -6582,6633 0,0 0,0 0,0l0 0z"/>
 </g>
</svg>
