<svg xmlns="http://www.w3.org/2000/svg" viewBox="0 0 480 488"><defs><style>.cls-1{fill:#fff;}</style></defs><title>meeting</title><g id="Слой_2" data-name="Слой 2"><g id="Capa_1" data-name="Capa 1"><path class="cls-1" d="M446.41,168.65a56,56,0,1,0-68.86,6.28A40,40,0,0,0,360,208v56H328V224a56.05,56.05,0,0,0-49.36-55.57,56,56,0,1,0-77.28,0A56.05,56.05,0,0,0,152,224v40H120V208a40,40,0,0,0-17.54-33.07,56,56,0,1,0-68.86-6.28A40,40,0,0,0,0,208V328a40.08,40.08,0,0,0,32,39.19V488H48V368h72V480a8,8,0,0,0,8,8h48a8,8,0,0,0,8-8V352h48V472H200v16h80V472H248V352h48V480a8,8,0,0,0,8,8h48a8,8,0,0,0,8-8V368h72V488h16V367.19A40.07,40.07,0,0,0,480,328V208A40,40,0,0,0,446.41,168.65ZM368,128a40,40,0,1,1,40,40A40,40,0,0,1,368,128Zm-168,0a40,40,0,1,1,40,40A40,40,0,0,1,200,128Zm52.46,56L240,217.22,227.54,184ZM168,224a40,40,0,0,1,40-40h2.46l22.06,58.81a8,8,0,0,0,15,0l22-58.81H272a40,40,0,0,1,40,40v40H280a8,8,0,0,0-8,8v32H208V272a8,8,0,0,0-8-8H168ZM32,128a40,40,0,1,1,40,40A40,40,0,0,1,32,128ZM168,472H136V360a8,8,0,0,0-8-8H40a24,24,0,0,1-24-24V208a24,24,0,0,1,24-24H80a24,24,0,0,1,24,24v64a8,8,0,0,0,8,8h80v24H80V232H64v80a8,8,0,0,0,8,8h72a24,24,0,0,1,24,24ZM296.9,336H183.1A40,40,0,0,0,176,320H304A40,40,0,0,0,296.9,336ZM464,328a24,24,0,0,1-24,24H352a8,8,0,0,0-8,8V472H312V344a24,24,0,0,1,24-24h72a8,8,0,0,0,8-8V232H400v72H288V280h80a8,8,0,0,0,8-8V208a24,24,0,0,1,24-24h40a24,24,0,0,1,24,24Z"/><rect class="cls-1" x="232" y="264" width="16" height="16"/><path class="cls-1" d="M200,0H88a8,8,0,0,0-8,8V48a8,8,0,0,0,8,8h32V72a8,8,0,0,0,12.8,6.4L162.66,56H200a8,8,0,0,0,8-8V8A8,8,0,0,0,200,0Zm-8,40H160a8,8,0,0,0-4.8,1.6L136,56V48a8,8,0,0,0-8-8H96V16h96Z"/><rect class="cls-1" x="280" y="24" width="16" height="16"/><rect class="cls-1" x="312" y="24" width="16" height="16"/><rect class="cls-1" x="344" y="24" width="16" height="16"/></g></g></svg>