<?xml version="1.0" encoding="UTF-8"?>
<!DOCTYPE svg PUBLIC "-//W3C//DTD SVG 1.1//EN" "http://www.w3.org/Graphics/SVG/1.1/DTD/svg11.dtd">
<!-- Creator: CorelDRAW X8 -->
<svg xmlns="http://www.w3.org/2000/svg" xml:space="preserve" width="83.6464mm" height="85.0404mm" version="1.1" style="shape-rendering:geometricPrecision; text-rendering:geometricPrecision; image-rendering:optimizeQuality; fill-rule:evenodd; clip-rule:evenodd"
viewBox="0 0 9180 9333"
 xmlns:xlink="http://www.w3.org/1999/xlink">
 <defs>
  <style type="text/css">
   <![CDATA[
    .fil0 {fill:url(#id0)}
   ]]>
  </style>
  <linearGradient id="id0" gradientUnits="userSpaceOnUse" x1="1404.28" y1="8027.14" x2="7776.09" y2="1306.21">
   <stop offset="0" style="stop-opacity:1; stop-color:#0072FF"/>
   <stop offset="1" style="stop-opacity:1; stop-color:#F08322"/>
  </linearGradient>
 </defs>
 <g id="Слой_x0020_1">
  <metadata id="CorelCorpID_0Corel-Layer"/>
  <path class="fil0" d="M8538 3226c206,-196 336,-472 336,-778 0,-591 -480,-1071 -1071,-1071 -590,0 -1071,480 -1071,1071 0,376 195,707 489,898 -202,137 -336,369 -336,632l0 1071 -612 0 0 -765c0,-547 -413,-1000 -944,-1063 204,-195 332,-469 332,-773 0,-591 -480,-1071 -1071,-1071 -590,0 -1071,480 -1071,1071 0,304 128,578 332,773 -531,63 -944,516 -944,1063l0 765 -612 0 0 -1071c0,-263 -133,-495 -335,-632 293,-191 488,-522 488,-898 0,-591 -480,-1071 -1071,-1071 -591,0 -1071,480 -1071,1071 0,306 130,582 336,778 -363,59 -642,372 -642,752l0 2295c0,370 263,679 612,750l0 2310 306 0 0 -2295 1377 0 0 2142c0,85 69,153 153,153l918 0c85,0 153,-68 153,-153l0 -2448 918 0 0 2295 -612 0 0 306 1530 0 0 -306 -612 0 0 -2295 918 0 0 2448c0,85 69,153 153,153l918 0c85,0 153,-68 153,-153l0 -2142 1377 0 0 2295 306 0 0 -2310c349,-71 612,-380 612,-750l0 -2295c0,-380 -279,-693 -642,-752zm-1959 -2461l306 0 0 -306 -306 0 0 306zm-612 0l306 0 0 -306 -306 0 0 306zm-612 0l306 0 0 -306 -306 0 0 306zm-1530 -765l-2142 0c-84,0 -153,69 -153,153l0 765c0,84 69,153 153,153l612 0 0 306c0,58 33,111 85,137 21,11 45,16 68,16 33,0 65,-10 92,-31l571 -428 714 0c85,0 153,-69 153,-153l0 -765c0,-84 -68,-153 -153,-153zm-153 765l-612 0c-33,0 -65,11 -92,31l-367 275 0 -153c0,-84 -68,-153 -153,-153l-612 0 0 -459 1836 0 0 459zm765 4590l306 0 0 -306 -306 0 0 306zm2601 -2907c0,-422 343,-765 765,-765 422,0 765,343 765,765 0,422 -343,765 -765,765 -422,0 -765,-343 -765,-765zm-3213 0c0,-422 343,-765 765,-765 422,0 765,343 765,765 0,422 -343,765 -765,765 -422,0 -765,-343 -765,-765zm1003 1071l-238 635 -238 -635 476 0zm-1615 765c0,-422 343,-765 765,-765l47 0 422 1125c22,60 79,99 143,99 64,0 121,-39 144,-99l421 -1125 47 0c422,0 765,343 765,765l0 765 -612 0c-84,0 -153,69 -153,153l0 612 -1224 0 0 -612c0,-84 -68,-153 -153,-153l-612 0 0 -765zm-2601 -1836c0,-422 343,-765 765,-765 422,0 765,343 765,765 0,422 -343,765 -765,765 -422,0 -765,-343 -765,-765zm2601 6579l-612 0 0 -2142c0,-84 -68,-153 -153,-153l-1683 0c-253,0 -459,-206 -459,-459l0 -2295c0,-253 206,-459 459,-459l765 0c253,0 459,206 459,459l0 1224c0,85 69,153 153,153l1530 0 0 459 -2142 0 0 -1377 -306 0 0 1530c0,85 69,153 153,153l1377 0c253,0 459,206 459,459l0 2448zm2465 -2601l-2176 0c-23,-113 -69,-217 -136,-306l459 0 1530 0 460 0c-67,89 -114,193 -137,306zm3196 -153c0,253 -206,459 -459,459l-1683 0c-84,0 -153,69 -153,153l0 2142 -612 0 0 -2448c0,-253 206,-459 459,-459l1377 0c85,0 153,-68 153,-153l0 -1530 -306 0 0 1377 -2142 0 0 -459 1530 0c85,0 153,-68 153,-153l0 -1224c0,-253 206,-459 459,-459l765 0c253,0 459,206 459,459l0 2295z"/>
 </g>
</svg>
