<?xml version="1.0" encoding="UTF-8"?>
<!DOCTYPE svg PUBLIC "-//W3C//DTD SVG 1.1//EN" "http://www.w3.org/Graphics/SVG/1.1/DTD/svg11.dtd">
<!-- Creator: CorelDRAW X8 -->
<svg xmlns="http://www.w3.org/2000/svg" xml:space="preserve" width="55px" height="49px" version="1.1" style="shape-rendering:geometricPrecision; text-rendering:geometricPrecision; image-rendering:optimizeQuality; fill-rule:evenodd; clip-rule:evenodd"
viewBox="0 0 17295 15207"
 xmlns:xlink="http://www.w3.org/1999/xlink">
 <defs>
  <style type="text/css">
   <![CDATA[
    .fil0 {fill:url(#id0)}
   ]]>
  </style>
  <linearGradient id="id0" gradientUnits="userSpaceOnUse" x1="3549.71" y1="13820.6" x2="13745" y2="1386.87">
   <stop offset="0" style="stop-opacity:1; stop-color:#0072FF"/>
   <stop offset="1" style="stop-opacity:1; stop-color:#F08322"/>
  </linearGradient>
 </defs>
 <g id="Слой_x0020_1">
  <metadata id="CorelCorpID_0Corel-Layer"/>
  <path class="fil0" d="M5534 4148c-94,-94 -202,-164 -317,-212 -120,-50 -247,-74 -375,-74 -127,0 -255,25 -375,74 -114,48 -221,118 -315,210l-2 3c-94,93 -165,202 -212,317 -50,120 -75,247 -75,375 0,128 25,255 75,375 47,116 118,224 212,317 94,94 202,165 317,213 120,49 247,74 375,74 128,0 255,-25 375,-74 116,-48 224,-119 317,-212 94,-94 165,-203 213,-318 49,-120 74,-248 74,-375 0,-128 -25,-255 -74,-375 -48,-116 -119,-224 -213,-318l0 0zm-1869 7688c-121,121 -213,261 -275,411 -64,155 -96,320 -96,486 0,165 32,331 96,486 62,149 154,289 275,411 122,121 262,213 411,275 155,64 321,96 486,96 165,0 331,-32 486,-96 149,-62 289,-154 411,-275 121,-122 213,-262 275,-411 64,-155 96,-321 96,-486 0,-166 -32,-331 -96,-486 -62,-150 -154,-290 -275,-411l-1 -2c-59,-59 -123,-111 -191,-157 -69,-47 -142,-87 -219,-119 -77,-32 -156,-56 -238,-73 -81,-16 -164,-24 -248,-24 -84,0 -167,8 -248,24 -82,17 -162,41 -238,73 -73,31 -143,68 -209,112 -65,43 -127,92 -184,148l-18 18zm1422 1442c-73,67 -155,117 -241,151 -91,36 -188,54 -284,54 -98,0 -196,-19 -288,-56 -89,-35 -173,-88 -246,-158l-1 -1c-73,-72 -128,-156 -165,-245 -38,-93 -57,-191 -57,-290 0,-99 19,-197 57,-290 37,-89 92,-173 165,-245l0 0c72,-73 156,-128 245,-165 93,-38 191,-57 290,-57 99,0 197,19 290,57 89,37 173,92 245,165l0 0c73,72 127,156 164,245 39,93 58,191 58,290 0,99 -19,197 -58,290 -36,89 -91,173 -164,245l-10 10 0 0zm6673 -9129c-94,93 -164,201 -212,317 -50,119 -74,247 -74,374 0,128 24,256 74,375 48,116 119,224 212,318l1 0c93,94 202,164 317,212 119,50 247,75 375,75 128,0 255,-25 375,-75 115,-47 222,-118 316,-211l1 -1c94,-94 165,-202 213,-317 49,-120 74,-248 74,-375 0,-128 -25,-256 -74,-376 -48,-115 -119,-223 -213,-317 -94,-93 -202,-164 -317,-212 -120,-49 -248,-74 -375,-74 -128,0 -255,25 -375,74 -116,48 -224,119 -318,212l0 1zm1023 1023l0 0c-45,45 -96,78 -151,101 -57,24 -118,35 -179,35 -61,0 -122,-11 -179,-35 -55,-23 -107,-56 -151,-101l-1 -1c-45,-44 -79,-96 -101,-151 -24,-57 -36,-118 -36,-179 0,-61 12,-122 36,-179 22,-55 56,-106 100,-151l1 -1c45,-45 96,-78 152,-101 57,-24 118,-36 179,-36 61,0 122,12 179,36 54,22 106,56 150,100l1 1c22,22 42,46 59,71 17,25 31,53 43,81 12,28 21,57 27,88 5,29 9,60 9,91 0,31 -4,61 -9,91 -6,30 -15,60 -27,88 -11,26 -25,52 -41,76 -15,23 -32,45 -51,65l0 1 -10 10zm1283 -5012c-25,-26 -53,-48 -83,-68 -29,-20 -61,-37 -94,-51 -33,-13 -67,-24 -102,-31 -35,-6 -70,-10 -106,-10 -37,0 -72,4 -107,10 -35,7 -69,18 -102,31 -33,14 -65,31 -94,51 -30,19 -57,42 -83,68l-614 612 -3683 3684c-39,38 -74,81 -104,126 -30,45 -56,94 -77,144 -21,50 -37,103 -47,157 -11,53 -16,107 -16,162 0,56 5,110 16,164 10,53 26,106 47,156 21,50 47,99 77,144 30,45 65,88 104,127l106 105c46,46 97,86 152,120 56,34 115,61 176,81 62,20 126,33 191,39 64,5 129,3 194,-7l4 0c1,-1 3,-1 5,0 26,-3 45,-3 70,-3l41 0 -618 619c-45,44 -91,90 -140,137 -50,49 -102,98 -156,148 -54,51 -110,104 -169,158 -58,54 -120,110 -184,168l-23 21 -22 -21c-64,-57 -126,-113 -186,-168 -60,-55 -118,-109 -172,-160 -55,-51 -107,-101 -156,-148 -49,-47 -94,-92 -137,-134 -131,-131 -272,-273 -413,-415l-204 -205 81 0c5,0 11,0 16,1 5,0 10,1 14,2 2,0 4,0 5,0l3 0c65,10 130,12 194,7 65,-5 129,-18 190,-38 62,-20 121,-48 176,-82 55,-33 107,-74 153,-120l106 -105c80,-80 140,-172 181,-271 42,-102 63,-210 63,-319 0,-109 -21,-218 -63,-320 -41,-98 -101,-190 -181,-270l-2865 -2865 -817 -819 -613 -612c-53,-50 -113,-89 -178,-114 -66,-27 -137,-40 -208,-40 -71,0 -142,13 -208,40 -64,25 -125,64 -178,114l-3068 3067c-53,52 -92,112 -119,177 -27,66 -41,137 -41,208 0,72 14,143 41,209 27,64 66,125 119,177l613 614 3683 3684c39,39 82,73 127,103 45,31 94,57 144,77 50,21 103,37 157,48 53,11 107,16 163,16 55,0 109,-5 162,-16 54,-11 107,-27 157,-47 50,-21 99,-47 144,-78 45,-30 87,-64 127,-103l105 -106c43,-44 81,-93 114,-144 32,-53 59,-108 79,-166 20,-58 34,-118 41,-179 7,-61 7,-123 0,-184l0 -4c0,-3 0,-5 0,-8l1 -4 0 -15 -1 -10 -2 -13c0,-3 0,-5 0,-7 -5,-38 -11,-76 -17,-114l225 225c142,141 283,281 409,408 37,36 75,75 114,115 40,41 80,83 121,127 42,43 84,88 127,134 43,46 85,93 128,140l25 26 -29 23c-316,246 -637,486 -951,707 -288,203 -571,390 -838,551 -248,150 -482,277 -696,375 -200,92 -381,157 -538,191 -41,9 -80,19 -120,29 -39,11 -79,23 -118,37 -38,13 -77,27 -116,42 -39,15 -77,31 -114,48l-21 10 -140 -140c-25,-25 -53,-48 -82,-67 -30,-20 -62,-37 -95,-51 -33,-13 -67,-24 -102,-31 -35,-7 -70,-10 -106,-10 -36,0 -72,3 -107,10 -35,7 -69,18 -102,31 -33,14 -65,31 -94,51 -30,19 -57,42 -83,67l-407 408c-25,26 -48,54 -68,83 -20,30 -37,61 -50,94 -14,33 -24,67 -31,103 -7,34 -11,70 -11,106 0,36 4,72 11,106 7,36 17,70 31,103 13,33 30,64 50,94 20,29 43,57 68,83l126 125 -10 21c-89,190 -152,387 -189,588 -37,204 -48,411 -33,617 16,205 57,408 125,604 67,193 158,379 275,553 44,66 92,130 143,192 51,61 105,121 162,178 56,56 116,110 178,161 61,52 126,100 192,145 173,117 359,210 552,277 196,68 400,110 606,126 205,15 413,4 617,-34 201,-37 399,-100 588,-190l22 -10 125 125c25,25 53,48 82,68 30,20 61,36 94,50 33,14 67,24 103,31 34,7 70,10 106,10 36,0 72,-3 107,-10 35,-7 69,-17 102,-31 33,-14 64,-30 94,-50 29,-20 57,-43 83,-68l407 -409c53,-52 92,-113 118,-177 28,-67 42,-138 42,-209 0,-71 -14,-142 -42,-209 -26,-64 -65,-124 -118,-176l-139 -140 9 -21c17,-38 33,-75 49,-114 15,-39 29,-77 42,-116 13,-39 25,-78 36,-118 11,-39 21,-79 30,-119 31,-149 93,-321 178,-510 91,-201 209,-421 347,-655 149,-250 321,-515 509,-786 203,-295 425,-596 654,-895l27 -35 26 35c242,314 460,613 654,893 195,281 365,544 509,785 144,241 261,461 350,657 88,194 149,365 180,509 9,41 18,81 29,120 11,40 23,79 36,118 13,39 27,78 42,116 16,39 32,77 49,114l10 21 -140 141c-26,25 -49,53 -68,82 -20,30 -37,61 -51,94 -13,33 -24,68 -31,103 -7,34 -10,70 -10,106 0,36 3,72 10,107 7,35 18,69 31,102 14,33 31,64 51,94 19,30 42,57 68,83l409 409c25,25 53,48 82,68 30,20 62,36 94,50 33,14 68,24 103,31 34,7 70,10 106,10 36,0 72,-3 107,-10 35,-7 69,-17 102,-31 33,-14 64,-30 94,-50 30,-20 57,-43 83,-68l125 -125 21 10c190,90 387,153 588,190 204,38 411,49 617,34 205,-16 409,-58 605,-126 193,-67 379,-159 552,-276 34,-23 67,-46 99,-70 32,-25 64,-49 94,-75 31,-25 62,-51 91,-78 30,-28 59,-55 88,-84l0 0c28,-28 55,-57 82,-86 27,-30 53,-60 78,-91 26,-30 50,-62 74,-94 24,-32 47,-65 69,-98 117,-174 208,-360 275,-552 68,-197 110,-400 125,-605 16,-206 5,-413 -32,-617 -37,-201 -100,-399 -189,-588l-10 -22 125 -126c26,-25 49,-53 68,-82 20,-30 37,-62 51,-94 13,-33 24,-68 31,-103 7,-34 10,-70 10,-106 0,-36 -3,-72 -10,-106 -7,-35 -18,-70 -31,-103 -14,-33 -31,-64 -51,-94 -19,-29 -42,-57 -67,-82l-409 -410c-53,-52 -113,-91 -177,-118 -67,-27 -138,-41 -209,-41 -71,0 -142,14 -209,41 -64,27 -124,66 -176,118l-140 141 -22 -10c-37,-18 -75,-34 -113,-49 -38,-16 -77,-30 -115,-42 -39,-13 -78,-25 -118,-36 -40,-11 -80,-21 -120,-29 -152,-32 -332,-97 -537,-191 -207,-96 -441,-222 -697,-377 -256,-155 -535,-339 -835,-550 -299,-210 -618,-447 -954,-709l-29 -23 25 -26c42,-47 85,-94 129,-140 43,-46 85,-90 126,-133 40,-43 80,-84 120,-125 39,-40 77,-79 114,-116l632 -632 -13 99c-1,4 -1,11 -2,15 0,4 0,8 -1,16l-1 10 -1 10 0 9 -1 9 1 4c1,2 1,4 1,6l0 4c-7,61 -6,122 1,182 7,61 21,121 41,178 20,57 47,112 79,164 32,51 70,99 113,143l105 106c39,39 82,73 127,104 45,30 94,56 144,77 50,21 103,36 156,47 54,11 108,16 163,16 55,0 110,-5 163,-16 54,-11 106,-26 157,-47 50,-21 98,-47 144,-77 45,-31 87,-65 126,-104l4298 -4299c52,-52 92,-112 118,-176 28,-67 42,-138 42,-209 0,-71 -14,-142 -42,-209 -26,-64 -66,-124 -118,-176l-3069 -3068zm1889 4297l-433 433 -7 -7c-517,-518 -1034,-1035 -1551,-1553 -477,-477 -992,-991 -1552,-1552l-7 -7 457 -456 1558 1557 1559 1561 -24 24zm-13081 -1581l1558 -1558 457 457 -7 7c-1035,1033 -2069,2066 -3103,3100l-6 6 -457 -456 1558 -1556zm764 -2354l433 434 -1035 1034c-717,718 -1434,1435 -2073,2074l-7 7 -459 -458 330 -329c926,-926 1853,-1853 2780,-2779l7 -6 24 23zm1709 7339l-72 73c-15,15 -31,28 -49,40 -18,12 -36,22 -56,30 -19,8 -40,14 -60,18 -21,4 -42,7 -63,7 -22,0 -43,-3 -63,-7 -21,-4 -42,-10 -61,-18 -20,-8 -38,-18 -56,-30 -18,-12 -34,-25 -49,-40l-2684 -2684 7 -7c772,-772 1500,-1501 2229,-2230l881 -880 2684 2684c31,31 54,67 70,105 16,39 25,81 25,123 0,42 -9,85 -25,124 -16,38 -39,74 -70,105 -28,27 -79,85 -106,106 -19,17 -39,33 -61,46 -22,13 -45,23 -70,31 -23,7 -48,12 -73,14 -25,1 -49,0 -74,-3 -4,0 -7,0 -10,-1 -4,0 -7,0 -11,-1l-41 -5c-13,-2 -27,-3 -39,-4 -14,-2 -28,-3 -44,-4 -16,-1 -33,-2 -50,-2l-11 0c-20,0 -41,0 -58,0 -19,0 -38,1 -57,2l0 0c-16,1 -33,1 -49,1l-22 0c-34,2 -68,5 -101,10 -33,4 -66,9 -100,15 -33,6 -66,13 -99,21 -32,8 -64,17 -96,27l0 0 -2 0c-3,1 -7,2 -10,3l-19 4 -8 3 -5 2 -12 4c-39,13 -78,29 -116,46 -15,6 -29,11 -43,17l-9 4 -17 7c-5,3 -11,5 -17,9l-1 0c-8,3 -16,7 -23,10 -7,4 -14,7 -22,12 -9,4 -16,8 -23,12 -7,4 -14,8 -20,12 -32,20 -67,38 -100,57 -18,13 -29,20 -40,27l-2 2c-28,19 -56,38 -80,55l-8 8c-14,10 -27,21 -40,31l-15 12c-12,9 -24,19 -35,29 -12,9 -24,20 -36,30 -11,10 -23,21 -34,31 -11,11 -22,21 -32,32 -11,11 -22,22 -32,33 -11,11 -21,23 -31,34 -11,12 -21,24 -31,35 -9,11 -19,23 -29,35 -8,12 -18,23 -27,34 -7,10 -15,20 -23,29 -5,8 -11,16 -18,25 -6,8 -12,17 -19,27l-21 31 -22 32c-1,2 -4,8 -8,13l-1 2c-3,4 -6,9 -9,14l-35 61c-3,4 -5,9 -8,14 -2,4 -4,10 -7,15l-5 9c-1,2 -5,12 -6,13 -11,20 -21,40 -31,61 -10,21 -20,42 -29,63 -9,21 -18,43 -27,65 -9,22 -17,44 -24,65 -1,4 -3,8 -4,12 0,2 0,4 -1,7 -1,3 -2,6 -4,9l-2 5 -3 12 -6 26c-2,5 -3,10 -4,14 -4,15 -9,30 -13,46 -3,14 -7,30 -11,46 -4,16 -7,32 -10,47 -3,15 -6,30 -9,47l-4 22 -4 22 -3 22 -6 50 -3 28 -2 29 -2 29c0,2 0,4 0,6 -2,11 -3,21 -3,32 -1,11 -2,21 -2,31 0,11 0,22 0,32 0,10 0,21 0,31 2,14 1,33 1,50 0,7 -1,14 -1,22 1,11 2,22 2,34 1,12 2,24 4,35 1,12 2,25 4,38 2,20 5,35 5,54 0,3 0,6 1,8l0 1c4,26 5,52 4,78 -2,25 -7,51 -15,75 -8,25 -19,49 -32,71 -13,22 -29,42 -48,61l-32 33 -1 0zm1573 -283l-839 -836 11 -21c9,-21 20,-41 31,-61 11,-20 22,-39 34,-59 12,-19 24,-38 37,-57 13,-19 26,-37 40,-55 2,-3 5,-6 8,-9l0 0c2,-2 3,-4 4,-5 3,-5 8,-11 13,-17 10,-12 21,-25 32,-38l19 -23c6,-7 13,-14 21,-22 7,-8 14,-16 22,-23l0 -1c8,-7 15,-15 23,-22 7,-7 15,-14 22,-20 8,-7 15,-13 22,-19 13,-11 22,-19 35,-28l7 -4 7 -6c3,-3 6,-7 10,-9 5,-3 9,-7 13,-10 3,-3 6,-5 8,-7 17,-12 33,-24 51,-36 16,-12 34,-23 52,-34 17,-11 35,-21 54,-31 18,-11 36,-20 55,-29l10 -6 21 -9 870 871c44,44 91,90 140,138 47,46 97,94 150,144 52,48 105,98 162,150 54,49 110,101 169,154l28 25 -29 25c-57,49 -115,99 -175,151 -61,51 -119,100 -175,147 -56,47 -115,96 -176,146 -57,48 -116,96 -176,144l-25 20 -21 -23c-48,-52 -95,-104 -141,-153 -46,-50 -92,-99 -137,-146 -45,-48 -89,-94 -131,-137 -42,-44 -84,-86 -123,-126l-34 -33 1 0zm6219 3287c46,9 91,20 135,33 45,12 89,27 132,43 44,16 87,34 129,54 41,20 82,41 122,64l5 2c11,5 24,10 36,14 13,6 27,10 42,13 14,3 29,5 44,5 15,0 30,-2 44,-5 14,-3 29,-7 42,-13l3 -1c3,-1 8,-3 13,-5l2 -1c7,-3 14,-6 21,-10 7,-4 14,-8 21,-13 6,-4 13,-9 19,-14 6,-5 12,-10 18,-16l288 -288 456 457 -279 279 -1 2c-1,2 -2,4 -4,7 -1,2 -3,4 -5,7l-8 10c-3,4 -5,7 -8,11 -2,3 -4,7 -6,11 -3,4 -5,7 -7,11l-1 3c-4,6 -8,13 -11,20 -3,6 -6,14 -9,21 -2,7 -4,14 -5,22 -2,7 -3,15 -3,22l-1 4c0,4 -1,8 -1,12 -1,4 -1,8 -1,12l-1 12 0 11 2 11 2 12 2 11c1,4 2,9 4,13 1,4 2,9 3,13 1,4 2,8 4,12 1,4 3,8 5,12 1,4 3,8 5,12l0 0c3,6 4,11 5,16l1 3c90,156 156,321 198,490 44,173 63,351 57,527 -5,177 -35,353 -89,523 -53,167 -130,328 -229,478l0 1c-12,17 -25,35 -37,52 -13,17 -26,34 -40,51 -13,18 -27,35 -41,51 -13,16 -28,32 -42,48 -3,3 -5,5 -8,7l-6 12 -2 -3 -8 10c-6,7 -11,14 -17,20 -6,7 -12,14 -18,20 -6,6 -12,12 -18,18 -5,6 -5,6 -11,11 -6,6 -12,12 -19,18 -6,6 -12,12 -19,18 -7,6 -14,12 -20,17l-19 16 -2 3c-2,2 -3,3 -5,5 -16,14 -32,29 -49,43 -16,13 -33,27 -51,41 -17,14 -34,27 -51,40 -18,12 -35,25 -53,37l0 0c-150,99 -311,175 -478,228 -170,54 -345,84 -522,89 -177,5 -354,-14 -527,-57 -169,-42 -334,-108 -490,-198l-1 -1c-1,0 -1,0 -2,0l0 0c-5,-1 -9,-2 -16,-5 -3,-2 -7,-4 -12,-6 -4,-1 -8,-3 -12,-4 -4,-2 -8,-3 -12,-4 -4,-1 -8,-2 -12,-3l-3 -1c-3,-1 -7,-2 -11,-3 -4,-1 -7,-2 -11,-3l-12 -2 -11 -1 -11 0 -12 0c-4,1 -8,1 -12,1 -4,1 -8,1 -12,2l-2 0c-3,0 -7,1 -11,2 -4,0 -9,1 -13,2l-11 2c-3,1 -7,2 -11,3 -8,3 -15,7 -22,10 -8,4 -16,8 -23,12 -7,4 -14,8 -21,13 -7,4 -14,9 -20,14 -3,2 -5,4 -8,6 -2,1 -4,2 -7,4l-2 1c-59,62 -121,123 -183,183 -30,30 -60,60 -89,89l-7 7 -457 -457c44,-43 274,-262 290,-290 2,-4 4,-8 9,-13 3,-3 5,-7 8,-10 3,-4 6,-8 8,-12 3,-4 6,-8 8,-12 2,-4 4,-9 7,-13 1,-4 4,-7 6,-11l5 -9 4 -9 4 -9c1,-4 2,-8 3,-12 1,-4 2,-9 3,-13 1,-5 2,-10 2,-14 1,-5 1,-9 2,-14l0 -4c2,-7 3,-14 3,-22 0,-7 0,-14 0,-22 -1,-7 -2,-15 -3,-22 -2,-7 -4,-14 -6,-21 -1,-2 -1,-3 -2,-4 0,-4 -1,-8 -2,-11 -1,-4 -3,-8 -4,-12 -1,-4 -2,-8 -4,-11 -1,-3 -3,-7 -4,-10l0 -1c-2,-3 -2,-5 -3,-7 -1,-3 -2,-6 -2,-9 -23,-41 -44,-82 -64,-124 -20,-43 -38,-86 -54,-130 -16,-44 -31,-88 -44,-133 -12,-45 -23,-90 -33,-136 -45,-211 -135,-451 -258,-708 -123,-257 -278,-532 -452,-811 -174,-281 -368,-567 -566,-846 -199,-279 -404,-551 -600,-805l-17 -20 17 -21c69,-87 138,-171 205,-254 70,-85 140,-169 209,-252 70,-83 141,-166 211,-249 71,-83 142,-165 212,-245l21 -24 25 20c320,250 667,511 1020,759 300,209 603,409 897,585 261,155 514,290 751,396 216,97 418,168 599,207zm1254 911l0 -1 0 1zm-4051 -4163c-45,45 -96,97 -151,154 -54,56 -112,118 -174,184 -60,64 -123,133 -190,207 -65,71 -132,146 -202,224 -2,2 -4,4 -6,5l-2 2c-1,3 -3,5 -5,7 -367,414 -796,919 -1219,1456 -345,438 -686,897 -986,1344 -257,383 -484,757 -657,1101 -155,308 -268,593 -320,838 -9,46 -21,91 -33,136 -13,44 -28,89 -44,132 -17,44 -35,87 -54,129 -19,41 -40,82 -63,123l-1 2c0,2 -1,4 -1,6 -1,3 -2,5 -3,8 -2,4 -4,9 -6,13 -1,4 -3,8 -4,12 -1,5 -3,9 -4,13 -1,5 -2,9 -3,13l-1 4c-2,7 -4,15 -5,22 -2,7 -3,15 -3,22 0,8 0,15 0,23 1,7 2,15 3,22l1 4c0,3 1,7 2,12 0,3 1,7 2,12l2 11 3 10c3,8 7,15 10,23 4,7 8,15 12,22 5,7 9,15 14,22 4,6 9,13 14,20 2,2 4,5 5,7 2,2 3,4 4,6l1 2 289 288 -457 456c-41,-41 -256,-266 -282,-280 -4,-3 -9,-5 -13,-9 -7,-5 -14,-10 -21,-15 -7,-5 -14,-9 -21,-13 -8,-5 -15,-8 -23,-12 -7,-4 -15,-7 -23,-10l-10 -3 -11 -2 -12 -2c-5,-1 -9,-1 -14,-2 -4,0 -8,-1 -12,-1 -4,-1 -8,-1 -12,-2l-12 0 -11 0 -11 1 -12 2 -11 3c-4,1 -9,3 -14,4 -4,1 -8,2 -12,3 -4,1 -9,2 -13,4 -4,1 -9,3 -13,4 -4,2 -8,4 -12,6 -6,3 -11,4 -15,5 -1,0 -3,0 -4,1 -156,90 -321,156 -490,198 -173,44 -350,62 -527,57 -177,-5 -353,-35 -523,-89 -167,-53 -328,-130 -478,-229l0 0c-18,-12 -35,-24 -52,-37 -17,-12 -34,-25 -51,-39 -17,-14 -34,-27 -50,-41 -16,-13 -32,-27 -48,-42 -4,-4 -7,-7 -9,-10l0 0c-14,-11 -28,-23 -41,-35 -15,-12 -28,-25 -41,-38l-1 0c-25,-26 -50,-54 -73,-82l-3 -3c-2,-1 -4,-3 -6,-6 -15,-16 -29,-32 -43,-48 -14,-17 -27,-33 -41,-50 -13,-17 -26,-34 -39,-52 -12,-17 -24,-34 -37,-52l-1 -1c-99,-151 -175,-312 -228,-478 -54,-170 -84,-346 -89,-523 -5,-176 14,-353 57,-526 42,-169 109,-334 198,-490 1,-1 1,-2 1,-3 2,-6 3,-11 6,-17 2,-4 4,-8 5,-11 2,-4 3,-8 4,-12 2,-4 3,-8 4,-12 1,-4 2,-8 3,-13 3,-12 5,-24 7,-36 1,-12 2,-24 1,-36 0,-12 -1,-24 -3,-36 -1,-11 -4,-23 -7,-34l-4 -11 -5 -10 -5 -11c-2,-3 -5,-8 -7,-12 -2,-3 -4,-7 -6,-11 -3,-4 -5,-8 -7,-12 -2,-3 -5,-6 -8,-10 -2,-3 -5,-7 -8,-10 -2,-3 -4,-5 -5,-7 -1,-3 -3,-5 -4,-7l-1 -2 -279 -279 457 -457 289 289c5,5 11,10 17,15 5,5 12,9 18,13 6,4 13,8 19,12 7,3 14,7 21,10 5,3 11,5 16,7 2,1 4,1 6,2 7,3 14,5 21,7 7,2 14,4 20,5 8,1 15,2 22,3 7,1 14,1 21,1 7,0 14,0 21,-1 7,-1 14,-2 21,-3 7,-2 14,-3 21,-5 7,-2 14,-4 21,-7 8,-2 14,-6 22,-9 4,-2 8,-3 11,-4l5 -2 3 -1 1 -1c40,-22 82,-44 124,-64 42,-19 86,-37 130,-54 43,-16 88,-31 133,-44 45,-13 90,-24 136,-33 190,-41 405,-118 636,-223 250,-114 521,-262 801,-433 311,-189 635,-407 959,-639 366,-262 733,-544 1082,-824l1 0c2,-2 4,-3 5,-4l3 -1c2,-3 3,-4 6,-6 105,-85 208,-169 309,-252 103,-85 205,-170 304,-254 102,-86 201,-170 295,-251 97,-84 191,-166 279,-245 87,-77 171,-152 250,-223 80,-73 156,-143 228,-210 71,-66 137,-129 197,-187 60,-57 115,-111 163,-159l1 -1 1 -1c36,-19 460,-450 706,-701 77,-78 136,-139 161,-164l5 -5 22 10c22,11 43,22 64,33 21,12 42,24 62,36 20,13 40,26 60,40 20,14 39,28 58,43l4 4c8,6 16,13 23,18 10,8 21,18 30,26l23 19c6,6 14,13 22,20 8,8 16,15 23,22l0 0c8,8 15,16 22,23 7,8 14,16 21,24 8,9 15,16 21,24 10,11 19,22 28,33l11 14c6,7 6,7 12,15 3,5 8,12 10,14l0 1c7,8 13,16 19,24 6,8 12,17 18,25 5,7 11,15 16,24 5,8 10,15 15,23l3 5 117 167 -56 -54c1,3 6,12 9,17l5 10 -243 244c-213,214 -426,428 -627,629zm-4825 6779l1 -1 -1 1zm6960 -6458c-15,15 -32,28 -49,40 -18,12 -37,22 -56,30 -20,8 -40,14 -61,19 -21,4 -42,6 -63,6 -21,0 -42,-2 -63,-6 -21,-5 -41,-11 -61,-19 -19,-8 -38,-18 -55,-30 -18,-12 -34,-25 -49,-40l-106 -106c-18,-19 -33,-39 -46,-61 -13,-22 -24,-45 -31,-70 -8,-24 -12,-48 -14,-73 -2,-25 -1,-50 3,-74 0,-4 0,-7 0,-10 1,-4 1,-9 2,-13l5 -38c1,-14 3,-27 4,-40 1,-14 3,-29 4,-45 1,-15 1,-32 2,-49l0 -11c0,-12 1,-24 1,-35 0,-12 0,-24 -1,-36 0,-12 -1,-23 -1,-35 -1,-11 -1,-23 -2,-36l0 0c-1,-7 -1,-16 -1,-24l1 -11c-3,-35 -6,-70 -10,-105 -5,-35 -10,-70 -16,-105 -7,-34 -14,-69 -23,-104 -8,-34 -18,-69 -28,-102 -1,-3 -2,-7 -3,-9l-4 -20 -2 -5c-4,-12 -9,-26 -14,-40 -5,-14 -10,-27 -16,-41 -5,-13 -11,-26 -16,-39 -6,-13 -12,-27 -18,-41 -3,-7 -5,-13 -8,-20l-2 -7 0 -2 -3 -7c-3,-7 -6,-14 -9,-19l-1 -1c-3,-8 -7,-15 -10,-22 -4,-8 -7,-15 -11,-22 -4,-7 -7,-14 -12,-22 -4,-7 -8,-14 -12,-21l-21 -36 -21 -36c-4,-7 -7,-13 -10,-17l-6 -10 -22 -32c-10,-15 -20,-30 -31,-46 -11,-15 -21,-30 -32,-43l-7 -9c-6,-7 -12,-14 -17,-21l-26 -33c-9,-12 -19,-24 -30,-36 -9,-12 -19,-23 -30,-35 -10,-12 -21,-23 -31,-34 -11,-11 -21,-22 -32,-33 -14,-14 -28,-27 -43,-41 -15,-14 -30,-27 -45,-40 -15,-13 -31,-26 -46,-39 -15,-12 -31,-25 -47,-37l-1 0c-3,-3 -7,-7 -11,-10l-6 -5 -9 -6c-14,-11 -30,-24 -46,-34 -7,-4 -13,-8 -18,-11l-26 -18 -46 -31 -58 -32c-7,-4 -16,-9 -25,-14 -8,-4 -17,-9 -26,-14l-27 -13 -26 -13c-7,-3 -11,-6 -16,-8l-1 -1c-5,-2 -9,-5 -13,-6l-10 -4 -6 -3c-14,-6 -27,-12 -40,-17 -13,-5 -26,-11 -40,-16 -14,-6 -27,-11 -41,-16 -13,-5 -26,-9 -39,-14l-1 0c-7,-2 -12,-4 -17,-6l-11 -5 -9 -2c-20,-7 -41,-13 -62,-18 -21,-6 -42,-11 -63,-16 -21,-5 -42,-9 -63,-14 -21,-4 -42,-7 -63,-11l-1 0c-11,-2 -21,-3 -30,-4 -3,0 -7,-1 -10,-2 -12,-1 -24,-3 -36,-4 -13,-2 -25,-3 -35,-4 -11,-1 -23,-2 -36,-3 -12,-1 -24,-2 -35,-3l-1 0c-7,-1 -15,-1 -23,-2l-22 -1 -22 -1 -21 0c-29,0 -59,0 -88,0l-22 0c-11,0 -24,1 -36,2 -13,1 -25,2 -37,3 -11,1 -23,3 -36,4 -13,2 -25,4 -37,5 -6,1 -12,1 -17,1 -3,0 -5,0 -7,0l-1 0c-26,5 -51,6 -76,4 -26,-2 -51,-7 -75,-14 -24,-8 -48,-18 -70,-31 -22,-13 -42,-28 -61,-46l-105 -106c-31,-31 -55,-67 -70,-105 -17,-39 -25,-81 -25,-124 0,-42 8,-84 25,-123 15,-38 39,-74 70,-105l2684 -2684 731 732c791,792 1583,1585 2374,2377l6 7 -2683 2684zm3840 -3888l-3091 -3091c152,-153 304,-305 457,-457l6 7c550,549 1070,1068 1551,1550 492,492 1006,1006 1551,1551l6 7 -456 457 -24 -24zm-3583 9955c84,0 166,-8 247,-24 82,-16 162,-40 238,-72 77,-32 150,-71 219,-117 68,-46 133,-99 192,-158l0 0c105,-106 189,-226 250,-355 63,-132 102,-274 117,-419 14,-144 4,-291 -32,-433 -34,-139 -93,-273 -176,-397 -82,-125 -184,-230 -299,-315 -118,-88 -249,-154 -388,-196 -139,-42 -285,-61 -431,-53 -143,7 -286,38 -424,95 -138,57 -261,136 -367,232 -109,98 -199,214 -268,342 -68,128 -114,268 -136,413 -21,141 -18,288 11,434 29,147 82,283 156,405 75,126 172,237 284,329 112,92 240,165 378,215 134,48 278,74 427,74l2 0zm-536 -1804c73,-72 157,-127 246,-164 92,-38 191,-57 290,-57 99,0 197,19 290,57 89,37 173,92 245,164 73,73 127,156 164,246 39,92 58,191 58,290 0,99 -19,197 -58,290 -37,89 -91,173 -164,245l-1 1c-73,70 -157,123 -246,158 -92,37 -190,56 -288,56 -98,0 -196,-19 -288,-56 -89,-35 -173,-88 -247,-158l-1 -1c-35,-35 -66,-73 -94,-114 -27,-42 -51,-86 -70,-131 -19,-46 -33,-94 -43,-143 -9,-48 -14,-97 -14,-147 0,-50 5,-100 14,-148 10,-49 24,-96 43,-142 19,-46 43,-90 70,-131 28,-41 59,-79 94,-115zm-7083 -6977c-24,18 -51,33 -78,46 -33,15 -68,26 -104,33 -45,9 -91,12 -137,7 -45,-4 -90,-15 -133,-33 -43,-18 -83,-42 -118,-71 -36,-29 -67,-63 -92,-101 -25,-39 -45,-80 -59,-125 -13,-43 -20,-89 -20,-135 0,-47 7,-93 20,-136 14,-44 34,-86 59,-124 25,-38 56,-73 92,-102 35,-29 75,-53 118,-70 43,-18 88,-29 133,-34 46,-4 92,-2 137,7 45,9 89,24 129,46 40,22 78,49 111,82 44,45 78,96 101,151 24,58 36,119 36,180 0,61 -12,122 -36,179 -23,55 -57,107 -101,151l-58 58 0 -9z"/>
 </g>
</svg>
