<svg xmlns="http://www.w3.org/2000/svg" viewBox="0 0 166.8 191.25"><defs><style>.cls-1{fill:#fff;}</style></defs><title>play-button</title><g id="Слой_2" data-name="Слой 2"><g id="Capa_1" data-name="Capa 1"><path class="cls-1" d="M150.7,66.61a6,6,0,1,0-6.35,10.18,22.2,22.2,0,0,1,0,37.67L45.94,175.83A22.19,22.19,0,0,1,12,157V34.26A22.19,22.19,0,0,1,45.94,15.43l57.29,35.72A6,6,0,1,0,109.58,41L52.29,5.25A33.77,33.77,0,0,0,17.6,4.36,33.77,33.77,0,0,0,0,34.26V157a33.77,33.77,0,0,0,17.6,29.9A33.77,33.77,0,0,0,52.29,186l98.42-61.37a34.19,34.19,0,0,0,0-58Z"/></g></g></svg>