<?xml version="1.0" encoding="UTF-8"?>
<!DOCTYPE svg PUBLIC "-//W3C//DTD SVG 1.1//EN" "http://www.w3.org/Graphics/SVG/1.1/DTD/svg11.dtd">
<!-- Creator: CorelDRAW X8 -->
<svg xmlns="http://www.w3.org/2000/svg" xml:space="preserve" width="169.14mm" height="169.14mm" version="1.1" style="shape-rendering:geometricPrecision; text-rendering:geometricPrecision; image-rendering:optimizeQuality; fill-rule:evenodd; clip-rule:evenodd"
viewBox="0 0 17470 17470"
 xmlns:xlink="http://www.w3.org/1999/xlink">
 <defs>
  <style type="text/css">
   <![CDATA[
    .fil0 {fill:#F08322}
   ]]>
  </style>
 </defs>
 <g id="Слой_x0020_1">
  <metadata id="CorelCorpID_0Corel-Layer"/>
  <path class="fil0" d="M8735 0c4825,0 8735,3910 8735,8735 0,4825 -3910,8735 -8735,8735 -4825,0 -8735,-3910 -8735,-8735 0,-4825 3910,-8735 8735,-8735zm4377 7293c-139,-87 -323,-44 -411,95 -86,141 -44,324 95,411 326,203 520,553 520,936 0,383 -194,733 -520,936l-4889 3049c-346,216 -764,226 -1120,29 -355,-197 -567,-558 -567,-965l0 -6098c0,-407 212,-767 567,-965 356,-197 774,-187 1120,29l2846 1775c140,87 324,44 411,-95 87,-140 45,-324 -96,-411l-2846 -1775c-532,-331 -1176,-348 -1724,-44 -548,304 -875,859 -875,1486l0 6098c0,627 327,1183 875,1486 261,145 544,217 826,217 310,0 620,-88 898,-261l4890 -3049c501,-313 801,-851 801,-1442 0,-591 -300,-1129 -801,-1442zm-4377 -6749c4523,0 8191,3668 8191,8191 0,4523 -3668,8191 -8191,8191 -4523,0 -8191,-3668 -8191,-8191 0,-4523 3668,-8191 8191,-8191z"/>
 </g>
</svg>
