<?xml version="1.0" encoding="UTF-8"?>
<!DOCTYPE svg PUBLIC "-//W3C//DTD SVG 1.1//EN" "http://www.w3.org/Graphics/SVG/1.1/DTD/svg11.dtd">
<!-- Creator: CorelDRAW X8 -->
<svg xmlns="http://www.w3.org/2000/svg" xml:space="preserve" width="55px" height="51px" version="1.1" style="shape-rendering:geometricPrecision; text-rendering:geometricPrecision; image-rendering:optimizeQuality; fill-rule:evenodd; clip-rule:evenodd"
viewBox="0 0 19544 17645"
 xmlns:xlink="http://www.w3.org/1999/xlink">
 <defs>
  <style type="text/css">
   <![CDATA[
    .fil0 {fill:url(#id0)}
   ]]>
  </style>
  <linearGradient id="id0" gradientUnits="userSpaceOnUse" x1="3828.6" y1="15882" x2="15715.4" y2="1763.04">
   <stop offset="0" style="stop-opacity:1; stop-color:#0072FF"/>
   <stop offset="1" style="stop-opacity:1; stop-color:#F08322"/>
  </linearGradient>
 </defs>
 <g id="Слой_x0020_1">
  <metadata id="CorelCorpID_0Corel-Layer"/>
  <path class="fil0" d="M17483 0l-12638 0c-1097,0 -1989,884 -1989,1967l-81 11128 -2467 0c-174,0 -308,155 -308,330l0 1531c0,1434 1147,2606 2532,2671l0 18 10642 0 0 -21c80,4 127,21 182,21l7 0c1477,-9 2668,-1212 2660,-2689l0 -9734 3213 0c174,0 308,-158 308,-333l0 -2810c2,-1142 -919,-2071 -2061,-2079l0 0zm-4309 11275l-7596 0c-174,0 -316,142 -316,317 0,175 142,316 316,316l7596 0c175,0 317,-141 317,-316 0,-175 -142,-317 -317,-317l0 0zm0 -1463l-7596 0c-174,0 -316,141 -316,316 0,175 142,317 316,317l7596 0c175,0 317,-142 317,-317 0,-175 -142,-316 -317,-316l0 0zm-4471 -3419c59,61 139,95 224,95l0 0c85,0 165,-34 224,-93l1259 -1260c124,-124 124,-324 0,-448 -123,-124 -324,-124 -447,0l-1034 1034 -414 -417c-123,-125 -323,-125 -448,-2 -124,123 -125,323 -2,448l638 643zm-1271 1397l1632 1116c106,74 247,74 354,0l1626 -1115c566,-386 983,-1192 983,-1875l0 -2258c3,-119 -62,-230 -169,-284l-2484 -1222c-87,-43 -190,-43 -277,0l-2480 1219c-106,54 -172,165 -168,284l0 2261c0,683 418,1489 983,1874l0 0zm-350 -3938l2156 -1063 2156 1066 0 2061c0,476 -312,1083 -707,1352l-1453 993 -1447 -993c-394,-269 -705,-876 -705,-1352l0 -2064zm-4412 13160l-2 0c-1126,0 -2035,-931 -2035,-2056l0 -1228 10049 0 0 1223c-3,712 279,1396 782,1900 53,54 109,82 167,161l-8961 0zm12720 -2057c0,1126 -901,2057 -2027,2057l-7 0c-1131,-8 -2044,-929 -2041,-2061l0 -1526c1,-178 -139,-324 -317,-330l-7590 0 81 -11126c0,-736 608,-1336 1356,-1336l11144 0c-361,396 -599,896 -599,1455l0 12867zm3521 -12870l0 2504 -2888 0 0 -2502c0,-792 659,-1454 1451,-1454l9 0c793,8 1432,656 1428,1450l0 2z"/>
 </g>
</svg>
