<?xml version="1.0" encoding="UTF-8"?>
<!DOCTYPE svg PUBLIC "-//W3C//DTD SVG 1.1//EN" "http://www.w3.org/Graphics/SVG/1.1/DTD/svg11.dtd">
<!-- Creator: CorelDRAW X8 -->
<svg xmlns="http://www.w3.org/2000/svg" xml:space="preserve" width="47px" height="47px" version="1.1" style="shape-rendering:geometricPrecision; text-rendering:geometricPrecision; image-rendering:optimizeQuality; fill-rule:evenodd; clip-rule:evenodd"
viewBox="0 0 19861 20173"
 xmlns:xlink="http://www.w3.org/1999/xlink">
 <defs>
  <style type="text/css">
   <![CDATA[
    .fil0 {fill:url(#id0)}
   ]]>
  </style>
  <linearGradient id="id0" gradientUnits="userSpaceOnUse" x1="3157.56" y1="17463.5" x2="16702.5" y2="2708.62">
   <stop offset="0" style="stop-opacity:1; stop-color:#0072FF"/>
   <stop offset="1" style="stop-opacity:1; stop-color:#F08322"/>
  </linearGradient>
 </defs>
 <g id="Слой_x0020_1">
  <metadata id="CorelCorpID_0Corel-Layer"/>
  <path class="fil0" d="M19619 8642c-209,-316 -526,-533 -895,-616 238,-455 228,-1022 -75,-1479 -215,-326 -540,-536 -894,-616 63,-120 110,-250 137,-387 78,-381 2,-769 -212,-1093 -210,-316 -527,-534 -895,-616 238,-455 228,-1022 -75,-1480 -443,-668 -1347,-852 -2016,-409l-1449 959c-772,-392 -1593,-669 -2445,-828 -269,-409 -583,-789 -933,-1129l-599 -580c-439,-426 -1127,-490 -1637,-152 -602,399 -768,1214 -369,1817 16,24 31,48 46,72 -1964,397 -3754,1439 -5078,2967 -1438,1657 -2230,3780 -2230,5977 0,421 29,843 86,1253 439,3193 2565,5944 5549,7180 1107,459 2281,691 3489,691 1915,0 3747,-586 5299,-1695 1519,-1085 2655,-2582 3287,-4330 59,-163 -26,-343 -189,-402 -163,-58 -342,26 -401,189 -588,1627 -1647,3022 -3061,4033 -1446,1032 -3152,1578 -4935,1578 -921,0 -1821,-145 -2682,-432l2552 -1690c0,-1 0,-1 0,-1 0,0 0,0 0,0l2122 -1405 0 0c190,-126 320,-319 366,-543 45,-223 1,-452 -125,-642l-28 -43 412 -273c294,-194 647,-271 995,-215 504,81 1016,-30 1442,-311l3417 -2264c-23,297 -62,592 -115,881 -32,171 80,335 251,366 19,4 38,5 57,5 148,0 280,-105 308,-256 87,-468 137,-947 150,-1427l963 -637c324,-215 545,-543 623,-924 77,-381 1,-769 -213,-1093zm-6983 -5334l-958 635 -189 -509c-79,-212 -169,-420 -269,-623 486,123 960,289 1416,497l0 0zm-9933 2175c1274,-1468 3008,-2455 4906,-2797 304,738 377,1562 195,2347l-765 3304c-120,-128 -276,-217 -452,-253 -224,-45 -452,-1 -643,125l-2166 1435c0,0 0,0 0,0 0,0 0,0 0,0l-3125 2069c-17,-220 -26,-442 -26,-664 0,-2046 738,-4023 2076,-5566l0 0zm8164 9867c-12,60 -47,112 -98,145l0 0 -1863 1234 -3457 -5157c-97,-143 -292,-182 -436,-85 -143,96 -182,291 -85,435l3455 5153 -2659 1762c-2643,-1156 -4534,-3597 -4989,-6438l3128 -2064 360 537c61,90 160,139 261,139 60,0 121,-17 175,-53 144,-97 182,-292 86,-436l-358 -533 1904 -1257c51,-33 111,-45 171,-33 60,12 111,47 145,98l4227 6382c33,51 45,112 33,171l0 0zm8350 -5740c-44,217 -170,404 -354,526l-1101 729c-1,0 -1,0 -1,0l-3930 2603c-294,194 -647,271 -995,215 -504,-81 -1016,30 -1442,311l-412 273 -3462 -5227 895 -3865c231,-996 109,-2045 -330,-2959 -4,-9 -8,-19 -13,-28 -84,-172 -180,-340 -287,-502 -208,-314 -122,-739 193,-947 265,-176 624,-143 853,79l599 581c648,628 1157,1408 1471,2254l326 879c1,2 1,3 2,5 1,2 2,4 3,6 2,5 4,10 6,14 7,13 14,26 22,39 96,144 290,184 435,88l3345 -2215c381,-252 895,-148 1147,233 252,380 147,895 -233,1147l-290 192c0,0 -1,0 -1,0l-648 429c-1,1 -1,2 -2,2 -4,3 -7,5 -10,8 -134,98 -169,285 -76,425 96,145 290,184 435,88l648 -429c184,-122 405,-165 621,-121 217,44 404,170 526,355 122,184 165,405 121,621 -44,217 -170,403 -354,525l-939 622c-144,96 -184,290 -88,435 60,91 160,140 262,140 59,0 119,-17 172,-52l146 -96 502 -333c381,-252 895,-147 1147,233 252,381 148,895 -233,1147l-469 311c-2,1 -4,3 -7,4l-462 307c-145,95 -184,290 -89,434 61,92 160,141 262,141 60,0 120,-17 173,-52l145 -96c0,0 0,-1 0,-1l503 -332c184,-122 405,-165 622,-121 216,44 403,169 525,354 122,184 165,405 121,621l0 0zm0 0z"/>
 </g>
</svg>
