<?xml version="1.0" encoding="UTF-8"?>
<!DOCTYPE svg PUBLIC "-//W3C//DTD SVG 1.1//EN" "http://www.w3.org/Graphics/SVG/1.1/DTD/svg11.dtd">
<!-- Creator: CorelDRAW X8 -->
<svg xmlns="http://www.w3.org/2000/svg" xml:space="preserve" width="55px" height="55px" version="1.1" style="shape-rendering:geometricPrecision; text-rendering:geometricPrecision; image-rendering:optimizeQuality; fill-rule:evenodd; clip-rule:evenodd"
viewBox="0 0 17511 17511"
 xmlns:xlink="http://www.w3.org/1999/xlink">
 <defs>
  <style type="text/css">
   <![CDATA[
    .fil0 {fill:url(#id0)}
   ]]>
  </style>
  <linearGradient id="id0" gradientUnits="userSpaceOnUse" x1="2784.32" y1="15159.3" x2="14727.1" y2="2352.21">
   <stop offset="0" style="stop-opacity:1; stop-color:#0072FF"/>
   <stop offset="1" style="stop-opacity:1; stop-color:#F08322"/>
  </linearGradient>
 </defs>
 <g id="Слой_x0020_1">
  <metadata id="CorelCorpID_0Corel-Layer"/>
  <path class="fil0" d="M17220 10507l-1704 0 -1578 -525 -513 -1282 0 -966c-2,-667 -505,-1227 -1169,-1298 0,-40 2,-81 2,-120l0 -4273c0,-129 -85,-243 -208,-280l-5837 -1751c-55,-16 -113,-16 -168,0l-5837 1751c-123,37 -208,151 -208,280l0 4273c0,135 9,269 14,403 7,197 18,393 36,588 3,33 7,64 10,97 359,3706 2604,6964 5939,8619 82,41 178,41 261,0 436,-219 858,-467 1261,-743 92,126 207,233 340,314 -291,348 -355,832 -163,1244 192,411 604,673 1058,673l4961 0c58,0 114,-17 162,-49l1677 -1118 1664 0c161,0 291,-131 291,-292l0 -5253c0,-161 -130,-292 -291,-292l0 0zm-4091 -4941c710,281 1174,968 1172,1730l584 0c3,-1001 -607,-1903 -1539,-2272l-104 -41 -217 541 104 42zm2996 431c57,173 103,350 138,529l573 -111c-40,-203 -92,-404 -157,-600l-554 182zm-468 -984c98,154 186,313 265,477l527 -250c-89,-187 -189,-368 -301,-542l-491 315zm140 4477l511 283c58,-107 116,-217 166,-329l-530 -244c-45,98 -94,195 -147,290zm-2001 -6734c-192,-77 -389,-141 -590,-192l-146 565c177,46 351,102 520,169l216 -542zm3051 5508l-574 -105c-33,180 -77,357 -132,530l557 176c62,-197 112,-398 149,-601zm-1967 -4911c-167,-121 -342,-233 -523,-333l-282 512c160,87 314,185 462,291l343 -470zm2048 4016c0,-114 -4,-228 -12,-340l-582 40c6,99 10,199 10,300 0,83 -2,165 -7,247l584 33c4,-93 7,-186 7,-280l0 0zm-1570 -3622l-399 427c133,124 258,257 375,398l449 -374c-133,-159 -275,-309 -425,-451zm-4455 5326l340 850 -1696 0c620,-1112 949,-2362 958,-3635l1169 -350 0 378c0,62 -2,124 -3,187 -521,185 -871,678 -872,1231l0 797c0,186 35,370 104,542l0 0zm-4190 2018c0,298 115,584 321,800 -109,79 -215,161 -327,234l-578 370 -577 -371c-1294,-830 -2278,-2064 -2799,-3510l7162 -2148c-40,1224 -402,2417 -1048,3457l-987 0c-645,0 -1167,523 -1167,1168l0 0zm-5971 -2996c-2,-14 -5,-29 -7,-43l1160 -347c34,175 76,350 123,521l-1177 353c-38,-167 -70,-327 -99,-484l0 0zm-134 -1172l1154 -346c8,182 22,364 43,545l-1152 345c-3,-26 -5,-52 -8,-78 -15,-151 -29,-304 -37,-466zm9315 -3404l-7588 2276 0 -2087 3804 -1358 3784 1080 0 89zm0 609l0 558 -7548 2265c-19,-182 -30,-364 -35,-548l7583 -2275zm1751 642l0 558 -1167 350 0 -558 1167 -350zm0 -609l-1167 350 0 -558 1167 -350 0 558zm-9218 3374l4749 -1424 2718 -816 0 559 -7346 2204c-47,-173 -88,-346 -121,-523zm-1872 -5275l5545 -1663 5545 1663 0 733 -1167 351 0 -134c0,-130 -86,-244 -212,-280l-4086 -1167c-58,-17 -121,-16 -178,5l-4086 1459c-116,42 -194,152 -194,275l0 2468 -1167 351 0 -4061zm5545 13173c-2514,-1291 -4380,-3568 -5152,-6286l1216 -365c561,1580 1632,2928 3043,3833l735 472c96,62 220,62 316,0l735 -472 8 -5c-103,484 115,980 540,1232 -177,210 -274,476 -274,751 1,40 4,81 9,121 -376,266 -768,506 -1176,719l0 0zm7501 1495l-4874 0c-323,0 -584,-262 -584,-584 -1,-303 233,-555 535,-578 157,-16 274,-151 267,-309 -6,-157 -135,-281 -292,-280l-218 0c-322,0 -584,-262 -584,-584 0,-322 262,-584 584,-584 161,0 292,-131 292,-292 0,-161 -131,-292 -292,-292l-292 0c-322,0 -584,-261 -584,-583 0,-323 262,-584 584,-584 161,0 292,-131 292,-292 0,-161 -131,-292 -292,-292l-292 0c-322,0 -584,-261 -584,-583 0,-323 262,-584 584,-584l3794 0c97,0 188,-48 242,-128 55,-81 66,-183 29,-273l-500 -1250c-41,-103 -63,-214 -63,-325l0 -797c0,-403 327,-729 730,-729 403,0 730,326 730,729l0 1022c0,37 7,74 20,108l584 1460c32,79 98,141 179,168l1552 517 0 4887 -1547 1032zm3298 -1168l-1168 0 0 -4669 1168 0 0 4669z"/>
 </g>
</svg>
