<?xml version="1.0" encoding="iso-8859-1"?>
<!-- Generator: Adobe Illustrator 19.0.0, SVG Export Plug-In . SVG Version: 6.00 Build 0)  -->
<svg version="1.1" id="Capa_1" xmlns="http://www.w3.org/2000/svg" xmlns:xlink="http://www.w3.org/1999/xlink" x="0px" y="0px"
	 viewBox="0 0 512 512" style="enable-background:new 0 0 512 512;" xml:space="preserve">
<g>
	<g>
		<path fill="#828282" d="M256.205,75.346c-8.27,0-14.988,6.719-14.988,14.988s6.719,14.988,14.988,14.988s14.988-6.719,14.988-14.988
			S264.474,75.346,256.205,75.346z"/>
	</g>
</g>
<g>
	<g>
		<path fill="#828282" d="M256.205,0.404c-49.59,0-89.93,40.339-89.93,89.93c0,29.45,11.607,47.384,37.09,84.562
			c13.773,20.096,30.914,45.111,52.84,81.308c21.765-35.949,38.891-60.933,52.752-81.163c25.527-37.207,37.178-55.2,37.178-84.708
			C346.135,40.744,305.795,0.404,256.205,0.404z M256.205,135.299c-24.795,0-44.965-20.17-44.965-44.965s20.17-44.965,44.965-44.965
			s44.965,20.17,44.965,44.965S281,135.299,256.205,135.299z"/>
	</g>
</g>
<g>
	<g>
		<path fill="#828282" d="M501.656,174.003l-15.105-23.682l-11.256,25.747c-8.007,18.297-19.541,25.981-28.82,32.143
			c-11.157,7.401-10.66,7.732-22.936,22.658c-7.567,9.251-19.658,24.019-26.332,28.323c-0.834-1.596-1.976-4.318-3.161-8.738
			c-1.2-4.478-5.829-18.121-18.315-22.161c-13.056-4.304-24.107,4.874-33.943,12.91c-4.746,3.813-7.818-1.645-5.343-7.933
			c0.674-1.742,1.596-3.366,2.576-5.167l9.28-18.018c-13.83-6.107-14.242-6.711-20.853-8.954
			c-38.917,56.99-50.489,79.51-71.243,112.95c-22.498-36.011-31.228-54.61-77.561-122.234c-5.284-7.71-9.812-14.489-14.214-21.221
			c-31.261-4.77-45.028-6.656-143.767-21.386c-2.474,14.213-1.361,17.423-10.265,64.345
			C-12.583,334.6-11.492,363.951,164.284,442.611c35.773,16.012,44.072,25.791,52.093,35.245
			c18.706,22.095,26.687,21.632,41.438,32.143c12.085-42.235,11.543-44.117,12.178-45.009c53.879-11.334,42.913-8.705,65.603-14.33
			c37.749-9.353,38.69-9.28,74.638,41.394l13.846,19.541l11.519-20.99c9.412-17.17,10.407-34.045,3.016-51.552
			c-10.231-24.312-4.552-33.768,4.845-49.414c8.285-13.802,18.604-31.986,18.37-60.44c-0.22-25.029,7.714-44.131,24.224-58.416
			c11.572-10.01,15.904-35.288,20.887-45.258C515.122,209.234,513.395,192.387,501.656,174.003z"/>
	</g>
</g>
<g>
</g>
<g>
</g>
<g>
</g>
<g>
</g>
<g>
</g>
<g>
</g>
<g>
</g>
<g>
</g>
<g>
</g>
<g>
</g>
<g>
</g>
<g>
</g>
<g>
</g>
<g>
</g>
<g>
</g>
</svg>
