<?xml version="1.0" encoding="UTF-8"?>
<!DOCTYPE svg PUBLIC "-//W3C//DTD SVG 1.1//EN" "http://www.w3.org/Graphics/SVG/1.1/DTD/svg11.dtd">
<!-- Creator: CorelDRAW X8 -->
<svg xmlns="http://www.w3.org/2000/svg" xml:space="preserve" width="13.1344mm" height="13.1344mm" version="1.1" style="shape-rendering:geometricPrecision; text-rendering:geometricPrecision; image-rendering:optimizeQuality; fill-rule:evenodd; clip-rule:evenodd"
viewBox="0 0 214 214"
 xmlns:xlink="http://www.w3.org/1999/xlink">
 <defs>
  <style type="text/css">
   <![CDATA[
    .fil0 {fill:#2e3c4e}
   ]]>
  </style>
 </defs>
 <g id="Слой_x0020_1">
  <metadata id="CorelCorpID_0Corel-Layer"/>
  <path fill="#2e3c4e" class="fil0" d="M107 0c59,0 107,48 107,107 0,59 -48,107 -107,107 -59,0 -107,-48 -107,-107 0,-59 48,-107 107,-107zm-64 108l27 10 11 35c1,2 3,3 5,1l15 -12c2,-2 4,-2 6,-1l28 21c2,1 4,0 5,-2l20 -98c1,-3 -2,-5 -4,-4l-113 44c-3,1 -3,5 0,6zm36 5l54 -33c1,-1 2,0 1,1l-44 41c-2,2 -3,4 -3,6l-2 11c0,2 -2,2 -2,0l-6 -20c-1,-2 0,-5 2,-6z"/>
 </g>
</svg>
