<?xml version="1.0" encoding="UTF-8"?>
<!DOCTYPE svg PUBLIC "-//W3C//DTD SVG 1.1//EN" "http://www.w3.org/Graphics/SVG/1.1/DTD/svg11.dtd">
<!-- Creator: CorelDRAW X8 -->
<svg xmlns="http://www.w3.org/2000/svg" xml:space="preserve" width="85.0405mm" height="78.0243mm" version="1.1" style="shape-rendering:geometricPrecision; text-rendering:geometricPrecision; image-rendering:optimizeQuality; fill-rule:evenodd; clip-rule:evenodd"
viewBox="0 0 38285 35126"
 xmlns:xlink="http://www.w3.org/1999/xlink">
 <defs>
  <style type="text/css">
   <![CDATA[
    .fil0 {fill:url(#id0)}
   ]]>
  </style>
  <linearGradient id="id0" gradientUnits="userSpaceOnUse" x1="7279.71" y1="31428" x2="31004.8" y2="3698.02">
   <stop offset="0" style="stop-opacity:1; stop-color:#0072FF"/>
   <stop offset="1" style="stop-opacity:1; stop-color:#F08322"/>
  </linearGradient>
 </defs>
 <g id="Слой_x0020_1">
  <metadata id="CorelCorpID_0Corel-Layer"/>
  <path class="fil0" d="M37883 23478c-717,-1054 -2162,-1333 -3219,-623l-7325 4902 -1565 -88 -41 -402c-155,-1566 -1353,-2815 -2912,-3035 -5,-1 -9,-2 -14,-2l-5965 -687c-1310,-186 -2553,-619 -3695,-1287 -1723,-1008 -3690,-1541 -5686,-1541l-886 0 0 -1053c0,-667 -543,-1210 -1210,-1210l-4154 0c-668,0 -1211,543 -1211,1210l0 7870c0,308 250,558 558,558 308,0 558,-250 558,-558l0 -7870c0,-52 43,-94 95,-94l4154 0c52,0 94,42 94,94l0 13158c0,52 -42,95 -94,95l-4154 0c-52,0 -95,-43 -95,-95l0 -1622c0,-308 -250,-558 -558,-558 -308,0 -558,250 -558,558l0 1622c0,668 543,1211 1211,1211l4154 0c667,0 1210,-543 1210,-1211l0 -794 7762 2940c15,6 31,11 46,15 342,97 684,145 1020,145 181,0 360,-14 537,-42l11463 -1652c3,-1 6,-1 9,-2 976,-156 1896,-567 2663,-1191l7399 -5688c11,-8 21,-16 31,-25 871,-774 1034,-2084 378,-3048zm-2938 -18600l-3975 -3976c-626,-625 -1491,-952 -2373,-896 -883,56 -1699,490 -2240,1189l-4524 5847c-871,1126 -847,2695 13,3792l-1156 1156c-201,201 -263,489 -185,743l-1239 1239c-53,53 -97,113 -132,180l-669 1275 -1212 626c-166,86 -292,230 -356,406l-373 1022 -1374 689c-210,106 -360,307 -399,540l-311 1842c-40,236 37,479 207,648 140,141 330,218 525,218 41,0 82,-4 123,-11l1842 -311c233,-39 435,-188 540,-399l690 -1374 1022 -372c175,-64 319,-191 405,-357l626 -1211 1276 -670c66,-35 126,-79 179,-132l1238 -1239c70,22 144,33 219,33 198,0 385,-77 525,-218l1157 -1156c554,434 1228,656 1905,656 663,0 1329,-212 1886,-643l1861 -1440c244,-188 288,-539 100,-782 -189,-244 -540,-289 -783,-100l-1861 1439c-782,605 -1899,534 -2598,-165l-2643 -2643c-699,-699 -770,-1816 -165,-2598l4523 -5847c345,-446 866,-722 1429,-758 561,-35 1114,173 1512,571l3976 3976c399,399 607,950 571,1513 -36,562 -312,1083 -758,1428l-1078 834c-244,189 -289,539 -100,783 189,244 539,288 783,100l1078 -834c700,-541 1133,-1358 1189,-2241 56,-882 -270,-1747 -896,-2372zm-12326 6761l1589 1589 -937 937c-255,-78 -542,-16 -743,184l-1402 1402 -1329 698c-135,71 -244,180 -314,316l-614 1187 -1024 373c-179,65 -324,195 -410,365l-671 1337 -1136 192 192 -1136 1338 -672c169,-85 299,-230 364,-409l373 -1024 1187 -614c136,-70 245,-178 316,-314l698 -1329 1402 -1402c200,-201 262,-489 184,-743l937 -937zm10518 -5515l-3414 -3413c-262,-262 -609,-406 -979,-406 -370,0 -717,144 -979,406 -261,261 -405,608 -405,978 0,370 144,717 405,979l3414 3414c262,261 609,405 979,405 370,0 717,-144 979,-405 539,-540 539,-1418 0,-1958zm-790 1168c-68,69 -148,79 -189,79 -42,0 -121,-10 -189,-79l-3414 -3413c-69,-69 -79,-148 -79,-190 0,-41 10,-121 79,-189 68,-68 148,-78 189,-78 41,0 121,10 189,78l3414 3414c68,68 79,148 79,189 0,42 -11,121 -79,189zm4430 18387l-7388 5680c-5,3 -9,7 -13,10 -615,501 -1353,833 -2136,958l-11453 1651c-3,1 -13,2 -16,3 -343,54 -700,31 -1062,-68l-8134 -3080 0 -9002 885 0c1799,0 3571,480 5124,1388 1270,743 2652,1224 4108,1430 5,1 10,2 15,2l5965 687c1044,151 1846,989 1951,2040l16 162 -12192 -1851c-305,-46 -589,164 -636,469 -46,304 164,589 468,635l12902 1959c1,0 1,0 1,0 17,2 34,4 52,5l2229 125c121,7 241,-26 342,-93l7480 -5006c551,-370 1302,-225 1675,323 0,0 0,0 0,0 338,496 258,1170 -183,1573z"/>
 </g>
</svg>
