<svg xmlns="http://www.w3.org/2000/svg" viewBox="0 0 512 469.76"><defs><style>.cls-1{fill:#fff;}</style></defs><title>valet</title><g id="Слой_2" data-name="Слой 2"><g id="Capa_1" data-name="Capa 1"><path class="cls-1" d="M506.63,314a31.18,31.18,0,0,0-43.06-8.33l-98,65.55L344.68,370l-.54-5.38a45.44,45.44,0,0,0-38.95-40.6l-.19,0-79.77-9.18a135,135,0,0,1-49.41-17.22A150.77,150.77,0,0,0,99.77,277H87.93V263a16.21,16.21,0,0,0-16.19-16.19H16.19A16.21,16.21,0,0,0,0,263V368.2a7.46,7.46,0,0,0,14.93,0V263a1.26,1.26,0,0,1,1.26-1.26H71.74A1.26,1.26,0,0,1,73,263v176a1.26,1.26,0,0,1-1.26,1.26H16.19a1.26,1.26,0,0,1-1.26-1.26v-21.7a7.46,7.46,0,0,0-14.93,0v21.7a16.21,16.21,0,0,0,16.19,16.19H71.74a16.21,16.21,0,0,0,16.19-16.19V428.31l103.81,39.31.62.2A50.15,50.15,0,0,0,206,469.76a45.91,45.91,0,0,0,7.18-.56l153.3-22.1.11,0a75.37,75.37,0,0,0,35.62-15.93l99-76.07.41-.34A31.18,31.18,0,0,0,506.63,314Zm-14.8,29.44-98.8,76-.17.13a60.41,60.41,0,0,1-28.57,12.82L211.12,454.41l-.21,0a33.64,33.64,0,0,1-14.21-.9L87.93,412.34V292H99.77a135.82,135.82,0,0,1,68.51,18.57,149.9,149.9,0,0,0,54.95,19.12l.19,0,79.77,9.18a30.55,30.55,0,0,1,26.09,27.28l.22,2.17-163-24.75a7.46,7.46,0,0,0-2.24,14.76l172.55,26.19h0c.23,0,.46.06.7.07l29.81,1.67a7.48,7.48,0,0,0,4.57-1.25l100-67a16.22,16.22,0,0,1,22.4,4.33h0A16.22,16.22,0,0,1,491.83,343.42Z"/><path class="cls-1" d="M443.15,81.91,397.5,36.25a18.51,18.51,0,1,0-26.18,26.17L417,108.08a18.51,18.51,0,0,0,26.18-26.18ZM432.6,97.53a3.58,3.58,0,0,1-5.06,0L381.88,51.87a3.58,3.58,0,1,1,5.06-5.06L432.6,92.46a3.58,3.58,0,0,1,0,5.06Z"/><path class="cls-1" d="M467.34,65.23,414.17,12.06A41.18,41.18,0,0,0,352.48,16L292,94.17a41.37,41.37,0,0,0,.17,50.71l-15.47,15.47a9.94,9.94,0,0,0-2.47,9.94l-16.57,16.57a9.93,9.93,0,0,0-1.77,2.41l-9,17.05-16.2,8.38a9.9,9.9,0,0,0-4.76,5.42l-5,13.67L202.61,243a10,10,0,0,0-5.34,7.22l-4.16,24.63a9.93,9.93,0,0,0,11.44,11.44l24.63-4.16a10,10,0,0,0,7.22-5.34l9.22-18.37,13.67-5a9.91,9.91,0,0,0,5.42-4.77l8.37-16.2,17.06-9a10,10,0,0,0,2.4-1.77l16.56-16.56a10,10,0,0,0,9.95-2.47l15.47-15.47a41.35,41.35,0,0,0,50.71.17l24.88-19.25A7.46,7.46,0,0,0,401,156.36L376.1,175.61a26.4,26.4,0,0,1-34.75-2.21L306,138.06a26.4,26.4,0,0,1-2.21-34.75l60.49-78.19a26.26,26.26,0,0,1,39.33-2.5l53.17,53.17a26.25,26.25,0,0,1-2.5,39.33l-14.42,11.15A7.46,7.46,0,0,0,449,138.08l14.42-11.15a41.18,41.18,0,0,0,3.92-61.69ZM302.49,155.66l21.25,21.25-12.53,12.53a9.94,9.94,0,0,0-9.94,2.47l-18.75,18.75L264.76,220a9.88,9.88,0,0,0-4.2,4.23l-8.2,15.87-13.7,5a9.89,9.89,0,0,0-5.48,4.88l-9,17.89L209,270.4l2.57-15.2,17.89-9a9.9,9.9,0,0,0,4.87-5.47l5-13.7,15.87-8.2a9.89,9.89,0,0,0,4.23-4.2l9.33-17.77,18.75-18.75a9.94,9.94,0,0,0,2.47-9.94Z"/></g></g></svg>