<svg xmlns="http://www.w3.org/2000/svg" viewBox="0 0 227.91 192.59"><defs><style>.cls-1{fill:#4b9afe;}</style></defs><title>warranty</title><g id="Слой_2" data-name="Слой 2"><g id="objects"><path class="cls-1" d="M87.42,188.87l-.23-.06a95.5,95.5,0,0,1-23.56-10.4c.17-1.11.74-1.5,2.13-1.67a5.82,5.82,0,0,1,2.21.11,7.86,7.86,0,0,1,.74.28,4.36,4.36,0,0,0,.54.23,2.13,2.13,0,0,0,1.5-.11A91,91,0,0,0,114,188a91.51,91.51,0,0,0,44.33-11.42h0v0a91.83,91.83,0,0,0,41.41-47.85,2.78,2.78,0,0,0,.65,1.36,2.17,2.17,0,0,0,.45.31h.06c.79.11,1.56.51,2.44.14a.86.86,0,0,0,.6,0c-.37,1-.74,1.9-1.13,2.83a.17.17,0,0,0,0-.11,1.22,1.22,0,0,0-.88-1,1.39,1.39,0,0,0-.6,0,1.28,1.28,0,0,0-1.16,1.36,1.81,1.81,0,0,0,1.22,1.22.82.82,0,0,0,.37,0,1.12,1.12,0,0,0,.54-.2c-.23.54-.48,1.08-.71,1.64-.06,0-.09-.06-.14-.06a.31.31,0,0,0-.23,0,.35.35,0,0,0-.28.51.67.67,0,0,0,.28.28,96.21,96.21,0,0,1-26.28,33.76v-.09a2,2,0,0,0-.85-1.22.68.68,0,0,0,.11-.51.56.56,0,0,0-.4-.4.69.69,0,0,0-.34,0,.55.55,0,0,0-.43.6h0a2.05,2.05,0,0,0-1.64,2,2,2,0,0,0,1.33,1.45,96,96,0,0,1-27.41,14.8.89.89,0,0,0,0-.71c-.14-.43-.6-.77-1.22-1.5a7.76,7.76,0,0,0-.6,1.73.94.94,0,0,0,.45.94,96.54,96.54,0,0,1-56.47,1Zm66.42-8.42a.42.42,0,0,0-.26,0c-.17.06-.23.48-.37.91a2.62,2.62,0,0,0,1,.09c.14-.06.26-.57.14-.65a1,1,0,0,0-.51-.31ZM189.55,151a.72.72,0,0,0-.34-.06H189a1.88,1.88,0,0,0-.54.26l.65,1v.09h0l.06,0,0,0h0l0,0,.09,0v0l.48-.06h0l.65-.09,0-.06v0h0v-.06h0v0h0v0h0v0h0v0h0l0,0h0a1.21,1.21,0,0,0-.82-.79Zm5.87-4.65h0c0-.17.09-.26.06-.31l-.23-.14-.09.23c0,.09.11.11.26.23Zm3.34-4.93h0c-.11-.31-.2-.45-.28-.48s-.23,0-.43.11c.23.11.4.23.71.37Zm-141.14,33a96.45,96.45,0,0,1-36.31-51.68h4.76a91.46,91.46,0,0,0,19.3,34.5l-.34.17-.6.26a1.75,1.75,0,0,0,.43.57h0l.6-.85a91.89,91.89,0,0,0,23.1,18.68l-1.87-.34-2.47-.43c-1.3-.26-2.69-.11-4-.48a4.91,4.91,0,0,1-1.73-.94c-.31.17-.62.34-.94.54ZM205,127.62a3,3,0,0,0-2-2,2.28,2.28,0,0,0-.88-.11,2,2,0,0,0-1.45.62c.4-1.19.79-2.38,1.13-3.57h4.76c-.48,1.67-1,3.34-1.56,5Z"/><path class="cls-1" d="M22.93,64.74c1.13-3.2,2.41-6.35,3.83-9.41l.6.71a1.57,1.57,0,0,0,.48-.85l0-.11a1.76,1.76,0,0,0-.09-.79,1.53,1.53,0,0,0-.2-.37l0,0-.14.11a0,0,0,0,1,0,0l.11-.11-.11.11a94.81,94.81,0,0,1,6-10.46.62.62,0,0,0,.14.23c.26.31.68.43,1.36.82h0A5.91,5.91,0,0,0,34.84,43a.85.85,0,0,0-.51-.6h-.2a96.17,96.17,0,0,1,71-42c0,.09,0,.14,0,.23l1,.28.14.06h0c0-.23.11-.45.14-.68,2.47-.17,5-.28,7.48-.28A98.85,98.85,0,0,1,129,1.16a1.39,1.39,0,0,0,.06,1.25,2,2,0,0,0,1.13.88,1.63,1.63,0,0,0,1-.06,1.25,1.25,0,0,0,.43-1.59,89.39,89.39,0,0,1,8.76,2l.14.06A96.54,96.54,0,0,1,204.89,64.6h-4.82a95.13,95.13,0,0,0-5.3-11.74,2.62,2.62,0,0,1,.28.14l.43.17A1.42,1.42,0,0,0,197.4,52a9.59,9.59,0,0,0,0-2c-.54.06-1,.2-1.5.2a.5.5,0,0,0,.11-.14,1.21,1.21,0,0,0-.37-1.67c0,.23-.09.43-.11.62l-.14,0-.06-.2c0-1.19-.09-1.25-1.19-1.59h0a1,1,0,0,0-.79.09,4.17,4.17,0,0,0-1.22,1c-.88-1.39-1.79-2.78-2.72-4.14h.17a1.76,1.76,0,0,0,1.25-2,2.09,2.09,0,0,0-.85-1.25.59.59,0,0,0,.11-.48.56.56,0,0,0-.4-.4.69.69,0,0,0-.34,0,.55.55,0,0,0-.43.6h0a2,2,0,0,0-1.36.94A91.79,91.79,0,0,0,27.75,64.74ZM30,52.67a1.92,1.92,0,0,0-.23.57l.28.26a4.24,4.24,0,0,0,.37-.31c-.11-.14-.23-.28-.43-.51ZM74.78,10.37h-.09v.11l-.4,0-.62-.06,0,.06a1.19,1.19,0,0,0,.91,1.19s0,0,.06,0l.11,0,.11,0,.26,0-.26-1,0-.14h0l-.06,0,0-.11ZM186.24,35a.36.36,0,0,0-.45.14c-.09.14-.09.43,0,.48a1.81,1.81,0,0,0,.4.23.24.24,0,0,0,.2,0,3.63,3.63,0,0,0,.82-.48c-.37-.11-.6-.23-.82-.31l-.14-.06Zm-5-3.83a.55.55,0,0,0-.2,0,.56.56,0,0,0-.48.71.6.6,0,0,0,.37.48H181c.28,0,.71-.45.65-.68a.69.69,0,0,0-.48-.48Zm4.48,1-.26,0,0,.28h.26ZM172.32,21.46l-.09,0a.39.39,0,0,0-.37.48.47.47,0,0,0,.31.37.18.18,0,0,0,.17,0c.17-.11.26-.31.48-.57a4.14,4.14,0,0,0-.51-.26Zm-19-11.28h0l.17-.82,0-.17h0l0-.26h0l-.6-.06h0l.6,0-.6,0L153,8.7h0l-.14-.06h0l-.09.2-.48,0,.48,0h0l-.48,0a1.25,1.25,0,0,1-.06.28l0,.09h0l.43.11-.17.6h0l.11.06.17-.65-.14.65Z"/><path class="cls-1" d="M89.86,179.94a85.1,85.1,0,0,1-14.94-5.84v-.37l-.14-.2-.09-.09a2.07,2.07,0,0,0-.26-.31h0v0h0l-.17-.11h0l0,0h0l-.06,0h0l-.17.65c-.88-.45-1.76-.91-2.64-1.42l.2-.17-.6-.26-.17-.77h0l-.06-.14-1.08.37A87.5,87.5,0,0,1,31,122.71h2.69A84.45,84.45,0,0,0,114,180.79c3.2,0,6.35-.2,9.47-.54a2.76,2.76,0,0,1,.31.14h0c0-.06,0-.14,0-.2A84.44,84.44,0,0,0,182.95,145a2.84,2.84,0,0,0,.74.6s.09,0,.11.06a1.17,1.17,0,0,0,1.16-.54,1.52,1.52,0,0,0,0-1.59,1.45,1.45,0,0,0-.68-.51,84.5,84.5,0,0,0,9.95-20.47h2.66a87.19,87.19,0,0,1-56.83,56.72c.2-.43.43-.88.6-1.33l-1.19-.51a12.78,12.78,0,0,1-.82,1.79l.54.34c-.14,0-.26.09-.4.11a0,0,0,0,0,0,0l-.06.06a87.72,87.72,0,0,1-48.87.2Zm-7.68-5.1a1.86,1.86,0,0,0-.68.54h0l-.11.11,1,.77a.56.56,0,0,1,.28-.2l-.28-.62h0l.28.6-.26-.6-.26-.6h0l.26.6h0Zm-14.23-6.26,0,.09a2.49,2.49,0,0,0-.14.43v.06h0l1.25.26,0-.11.06-.17.06-.11-1.22-.45v0Zm101.82-7.88-.26,0,0,.28h.26Zm10.6-9.86a.9.9,0,0,0-.94.23,1.31,1.31,0,0,0,.43.26,1.94,1.94,0,0,0,1.16-.2,3,3,0,0,0-.65-.28Z"/><path class="cls-1" d="M32.8,64.74a87.1,87.1,0,0,1,28-37.36l.11.28h0c.2-.11.43-.26.62-.4a5.46,5.46,0,0,0,.85-.77l.14-.17-.17-.14a86.68,86.68,0,0,1,51.51-17c3,0,5.92.17,8.82.45A4.28,4.28,0,0,1,124,12.16v.23a85.59,85.59,0,0,0-10.15-.6A84.25,84.25,0,0,0,55.53,35.23a.53.53,0,0,0-.06-.23.82.82,0,0,0-.54-.48.9.9,0,0,0-.74.14A.75.75,0,0,0,54,35.91a1.42,1.42,0,0,0,.48.31A85.16,85.16,0,0,0,37.59,60.07a1.6,1.6,0,0,0-1.16.17c-.71.43-1,2.72-.54,3.57a0,0,0,0,0,0,0c-.14.31-.26.6-.37.91ZM40.14,53l-1.13.6.26.51.57-.28.57-.31h0ZM192.27,64.63a82.84,82.84,0,0,0-6.46-12.76.65.65,0,0,0,.43-.71.64.64,0,0,0-.48-.48.7.7,0,0,0-.34,0,.54.54,0,0,0-.28.14,84,84,0,0,0-15.08-17.66,3.65,3.65,0,0,0,.51-2,3.47,3.47,0,0,0-2.47-2.32,3.85,3.85,0,0,0-1.39-.11,3.3,3.3,0,0,0-1.42.51,84.13,84.13,0,0,0-40-16.64,2.42,2.42,0,0,0,0-.45,4.38,4.38,0,0,0-.79-2.21A85.94,85.94,0,0,1,138,12.64,87.94,87.94,0,0,1,152,18a4,4,0,0,0-.54,1.45,1,1,0,0,0,.77.94,1.25,1.25,0,0,0,.57.06,1.08,1.08,0,0,0,.91-1.47c0-.06,0-.09-.06-.14A87.49,87.49,0,0,1,195,64.63ZM172.06,31.69a1,1,0,0,0-.17.4c0,.09.2.17.37.31.09-.2.23-.37.17-.48s-.23-.17-.37-.23ZM143.18,14.83l-.11.26a.4.4,0,0,1,.17.06h.11l.06-.11Z"/><path class="cls-1" d="M114,168.09l-3.32-7.68-5.3-.48a1.39,1.39,0,0,0-.85-.62,1.71,1.71,0,0,0-1.3.14.89.89,0,0,0-.31.26l-.6-.06,6.29-5.53L106.72,146l7.2,4.25,7.2-4.28-1.81,8.16,1.33,1.19-.09.11.37.2-.17.09.17-.09.23.14,4.45,3.88-8.33.79Zm2.27-7.37-.48.4.09.11,1-.82-.17-.23-1,.79.09.14Zm.82-11.65a1.92,1.92,0,0,0-.23.57l.28.26a4.24,4.24,0,0,0,.37-.31c-.11-.14-.23-.28-.43-.51Z"/><path class="cls-1" d="M91.13,162.09l-2.41-5.58-6.09-.57,4.59-4-1.36-6L91.13,149,96.35,146l-1.3,6,4.56,4-.85.09v0a1.82,1.82,0,0,0-.91-1.47c-.31-.31-.74-.62-1.22-1.11a4.72,4.72,0,0,1-.31.65,1.2,1.2,0,0,0-1.3,1.47,3.4,3.4,0,0,0,.26.82l-1.73.17Z"/><path class="cls-1" d="M137.48,162.06l-2.41-5.58-6.09-.57,4.59-4-1.36-6,3.32,2V148a1,1,0,0,0,.77.94,1.25,1.25,0,0,0,.57.06,1.4,1.4,0,0,0,.37-.11l.23.14,5.24-3.12-1.3,6,4.56,4-6.07.57Zm-1.3-9.33a.13.13,0,0,0-.14,0c-.09,0-.09.26-.14.48a3.93,3.93,0,0,0,.48-.09l.06-.28a1,1,0,0,0-.26-.11Z"/><path class="cls-1" d="M107.4,53l1.81-8.16-4-3.49h.06l-.11-.06-2.27-2,8.33-.79,3.32-7.68,3.32,7.68,8.33.77-6.29,5.53.71,3.15h0s-.09,0-.11-.06-.43,0-.48.06a7.27,7.27,0,0,0-.74,1.16.54.54,0,0,0,.14.48,1.38,1.38,0,0,0,.68.48,1.66,1.66,0,0,0,.54.06,1.48,1.48,0,0,0,.43-.2l.68,3-5.92-3.49c.28-.68.57-1.08.51-1.42a1.08,1.08,0,0,0-.74-1,.87.87,0,0,0-.54,0,1.09,1.09,0,0,0-.6,1,4.24,4.24,0,0,0,1,1.16l-.91-.54Zm1-3h0c0-.17.09-.26.06-.31s-.14-.11-.23-.14l-.09.23c0,.06.11.11.26.23Zm5.22-2.83-.2.28a2.37,2.37,0,0,0,.34.23l.17-.2a3.23,3.23,0,0,0-.31-.31ZM111.74,45h0c-.11-.31-.2-.45-.28-.48s-.23,0-.43.11c.23.11.4.23.71.37Zm-4.05-4-.14.2a1.56,1.56,0,0,1,.26.2c.06-.11.14-.2.11-.2Zm6.72-1.16a.7.7,0,0,0-.23,0c-.26.09-.4.28-.28.51s.28.31.54.54c.14-.31.28-.48.28-.65a.36.36,0,0,0-.31-.37Zm.48-4a2,2,0,0,0-.6-.06,1.32,1.32,0,0,0-1.16,1.39,1.81,1.81,0,0,0,1.22,1.22.82.82,0,0,0,.37,0,1.28,1.28,0,0,0,1-1.59,1.19,1.19,0,0,0-.88-1Z"/><path class="cls-1" d="M132.15,52.92l1.33-6-4.59-4,6.07-.57,2.44-5.58,2.41,5.58,1.7.14a.16.16,0,0,0,0,.17l.09.06c.11,0,.26,0,.43.06v-.23l3.83.37-.28.26h-.51l.34.14L141.31,47l1.33,6-2.83-1.67c0-.09,0-.14,0-.14a1,1,0,0,0-.43-.23.78.78,0,0,0-.26,0l-1.73-1Zm5.81-5,0,.11.09.26.6-.23.6-.23h0l0-.11a1.81,1.81,0,0,0-.17-.45h0v0h0v0h0v0h0v0h0v0h0v0h0v0l-.17-.11-.34.57-.34.57a.4.4,0,0,1-.14-.17ZM136.2,45l-.31,1.08h0v.09l0,.09h0v.48l.06.65h0l.2,0h0a1.51,1.51,0,0,0,.88-.65l.06-.11,0-.14A1.16,1.16,0,0,0,136.2,45Zm-1.5-1.45h0l-.06.09a.89.89,0,0,0-.28.28l1,.77.06-.06h0l.17-.17h0Zm.79-.34a.31.31,0,0,0-.23,0c-.14.06-.31.31-.28.43s.28.26.54.48c.11-.28.26-.45.23-.6a.37.37,0,0,0-.26-.31Z"/><path class="cls-1" d="M85.8,53l1.33-6-4.56-4,6.07-.57L91,36.82l2.44,5.58,6.07.57L95,47l1.33,6L91,49.86Zm5-8.73c0,.62-.11,1,.06,1.3a.84.84,0,0,0,.43.26c.17,0,.34.06.37,0a1,1,0,0,0,.28-.94c-.11-.23-.57-.31-1.13-.62Zm-1-1.11h0a2.27,2.27,0,0,0-.37.37c.06.09.17.23.23.23h0a2.08,2.08,0,0,0,.57-.28c-.2-.14-.37-.28-.43-.31Z"/><path class="cls-1" d="M26.25,92.1c0-8.31-1.45-13.95-10.46-14.29V74.49H10.4v3.32C1.67,78.15,0,83.42,0,92.1c0,8.39,1.53,13.95,10.4,14.29v4h5.39v-4c9-.34,10.46-6,10.46-14.29Zm-5.39,0c0,6.43-.62,9.41-5.19,9.58V82.46c4.56.2,5.19,3.2,5.19,9.64Zm-10.35,9.58C6,101.51,5.39,98.53,5.39,92.1s.62-9.44,5.13-9.64Zm25,8.5,7.68-20.92v20.92h5.39V76H43.74L36.11,96.94V76H30.76v34.16Zm36.23,0V76H66.33v14.4H59.67V76H54.31v34.16h5.36V95.27h6.66v14.91Zm25,0L88.47,76H83.23l-8.39,34.16H80.5l1.33-6.77h7.91l1.39,6.77Zm-8-11.62H82.89l2.95-14.29Zm28.57,11.62V76H112v14.4h-6.66V76H99.92v34.16h5.39V95.27H112v14.91ZM140,101.11h-5.39a6.4,6.4,0,0,1-.82,3.37,2.69,2.69,0,0,1-2.52,1.25,2.77,2.77,0,0,1-2.55-1.3c-1-1.64-1.19-5.07-1.19-11.31s.14-9.69,1.19-11.34a2.77,2.77,0,0,1,2.55-1.3,2.69,2.69,0,0,1,2.52,1.25,6.06,6.06,0,0,1,.82,3.32H140c-.11-3-1-5.61-2.75-7.2a8.28,8.28,0,0,0-6-2.18,8.13,8.13,0,0,0-6.63,2.92c-2.24,2.69-2.49,6.43-2.49,14.54s.26,11.82,2.49,14.51a8.13,8.13,0,0,0,6.63,2.92,7.94,7.94,0,0,0,5.9-2.15,10.31,10.31,0,0,0,2.83-7.29Zm21.06-8c0-8.11-.2-11.85-2.49-14.54a9,9,0,0,0-13.24,0c-2.27,2.72-2.49,6.43-2.49,14.54s.23,11.79,2.49,14.51a9,9,0,0,0,13.24,0c2.3-2.69,2.49-6.41,2.49-14.51Zm-5.39,0c0,6.24-.14,9.67-1.13,11.31a2.87,2.87,0,0,1-2.61,1.3,2.77,2.77,0,0,1-2.55-1.3c-1-1.64-1.19-5.07-1.19-11.31s.2-9.69,1.19-11.34a2.77,2.77,0,0,1,2.55-1.3,2.87,2.87,0,0,1,2.61,1.3c1,1.64,1.13,5.1,1.13,11.34Zm27.64,7.29c0-3.17-.4-5.24-2-6.86a6.16,6.16,0,0,0-1.87-1.25,5.12,5.12,0,0,0,1.79-1.22c1.59-1.62,2-3.49,2-5.92,0-3.71-.57-5.44-2.15-7-1.39-1.45-3.46-2.13-6.6-2.13h-8.53v34.16h8.48c3.2,0,5.27-.71,6.72-2.15,1.64-1.67,2.21-3.6,2.21-7.63ZM178,100c0,4-1.19,5.33-4.05,5.33H171.3V94.68h2.61c2.86,0,4.05,1.56,4.05,5.33Zm-.09-14.54c0,3.29-1.11,4.68-3.88,4.68H171.3V80.87H174c2.78,0,3.88,1.25,3.88,4.59Zm29.74,24.72L199.3,76h-5.22l-8.39,34.16h5.64l1.36-6.77h7.91l1.39,6.77Zm-8-11.62h-5.87l2.92-14.29ZM215,110.18l4.48-14h3v14h5.39V76h-8.65c-6.24,0-8.73,3-8.73,10.06,0,4.22.88,7.26,4,8.93l-5.1,15.17Zm.88-24.09c0-2.81.43-5.22,3.32-5.22h3.29V91.33h-3.29c-2.89,0-3.32-2.41-3.32-5.24Z"/><path class="cls-1" d="M67.92,120.19v-1.76H60v12.81h2V120.19Zm13.41,11.06-4.68-12.81H75.09l-4.71,12.81h2l.91-2.55h5.07l.88,2.55ZM77.87,127h-4l2-5.67Zm17.49-4.68a3.81,3.81,0,0,0-4.08-3.91H86.4v12.81h2v-5h2.92a3.78,3.78,0,0,0,4.08-3.86Zm-1.93,0a2,2,0,0,1-2.27,2.13H88.36v-4.28h2.81a2,2,0,0,1,2.27,2.15Zm16,8.9-4.68-12.81h-1.56l-4.71,12.81h2l.91-2.55h5l.91,2.55ZM106,127h-4l2-5.67Zm17.52,4.22V118.43h-2v5.5h-5.19v-5.5h-1.93v12.81h1.93v-5.58h5.19v5.58ZM138,120.19v-1.76h-9v1.76h3.54v11.06h1.93V120.19Zm14.88,11.06V118.43h-1.79l-5.73,9.3v-9.3h-1.93v12.81h1.76l5.75-9.3v9.3Zm10.49-5h2.55v5h2V118.43H163a3.77,3.77,0,0,0-4.08,3.91,3.54,3.54,0,0,0,2.47,3.51l-2.81,5.39h2.32Zm2.55-1.76h-2.81a2.16,2.16,0,1,1,0-4.31h2.81Z"/></g></g></svg>